<?xml version="1.0" encoding="UTF-8"?>
<svg id="_レイヤー_2" data-name="レイヤー 2" xmlns="http://www.w3.org/2000/svg" viewBox="0 0 532.13 713.85">
  <defs>
    <style>
      .cls-1 {
        font-size: 32px;
      }

      .cls-1, .cls-2, .cls-3, .cls-4, .cls-5, .cls-6, .cls-7, .cls-8, .cls-9, .cls-10, .cls-11, .cls-12, .cls-13, .cls-14, .cls-15, .cls-16, .cls-17, .cls-18, .cls-19 {
        font-family: MOBO-Bold-83pv-RKSJ-H, MOBO-Bold;
        font-weight: 700;
      }

      .cls-1, .cls-20, .cls-9, .cls-13, .cls-16, .cls-19 {
        fill: #d03f26;
      }

      .cls-21 {
        fill: #727171;
      }

      .cls-22 {
        fill: #d3edfb;
      }

      .cls-23 {
        fill: #f6dbb7;
      }

      .cls-2 {
        font-size: 24px;
      }

      .cls-2, .cls-3, .cls-4, .cls-5, .cls-6, .cls-8, .cls-11, .cls-12, .cls-14, .cls-15, .cls-17, .cls-18 {
        fill: #2e2e2e;
      }

      .cls-24 {
        fill: #faee00;
      }

      .cls-3, .cls-10 {
        font-size: 11px;
      }

      .cls-4 {
        font-size: 42px;
      }

      .cls-5 {
        font-size: 9px;
      }

      .cls-6 {
        font-size: 50px;
      }

      .cls-7 {
        font-size: 14px;
      }

      .cls-7, .cls-10 {
        fill: #fefdfa;
      }

      .cls-25 {
        fill: #efefef;
      }

      .cls-26 {
        fill: #e83828;
      }

      .cls-27 {
        fill: #facfa8;
      }

      .cls-28 {
        letter-spacing: .25em;
      }

      .cls-29 {
        fill: #f7f8f8;
      }

      .cls-30 {
        letter-spacing: 0em;
      }

      .cls-8 {
        font-size: 12px;
      }

      .cls-31 {
        fill: #898989;
      }

      .cls-32 {
        fill: #e18073;
      }

      .cls-33 {
        fill: #3e3a39;
      }

      .cls-9 {
        font-size: 90px;
      }

      .cls-34 {
        fill: #c9caca;
      }

      .cls-35 {
        fill: #fff;
      }

      .cls-36 {
        fill: #dcdddd;
      }

      .cls-37 {
        fill: #595757;
      }

      .cls-38 {
        fill: #f39800;
      }

      .cls-11 {
        font-size: 27px;
      }

      .cls-39 {
        fill: #b5b5b6;
      }

      .cls-40 {
        fill: #f8b62d;
      }

      .cls-41 {
        fill: #f5f5f5;
      }

      .cls-12 {
        font-size: 20px;
      }

      .cls-42 {
        letter-spacing: -.05em;
      }

      .cls-13 {
        font-size: 37px;
      }

      .cls-14 {
        font-size: 19px;
      }

      .cls-43 {
        fill: #7ecef4;
      }

      .cls-44 {
        fill: none;
        stroke: gray;
        stroke-miterlimit: 10;
        stroke-width: .5px;
      }

      .cls-45 {
        fill: #ea5514;
      }

      .cls-15 {
        font-size: 31px;
      }

      .cls-16 {
        font-size: 36px;
      }

      .cls-46 {
        letter-spacing: .1em;
      }

      .cls-47 {
        fill: #c30d23;
      }

      .cls-17 {
        font-size: 18px;
      }

      .cls-18 {
        font-size: 34px;
      }

      .cls-48 {
        letter-spacing: .02em;
      }

      .cls-49 {
        letter-spacing: .03em;
      }

      .cls-50 {
        letter-spacing: .02em;
      }

      .cls-51 {
        letter-spacing: .02em;
      }

      .cls-52 {
        letter-spacing: .02em;
      }

      .cls-53 {
        letter-spacing: .02em;
      }

      .cls-54 {
        fill: #eee9e8;
      }

      .cls-55 {
        letter-spacing: .03em;
      }

      .cls-56 {
        letter-spacing: .03em;
      }

      .cls-57 {
        letter-spacing: .04em;
      }

      .cls-58 {
        letter-spacing: .03em;
      }

      .cls-59 {
        letter-spacing: .03em;
      }

      .cls-60 {
        letter-spacing: .03em;
      }

      .cls-61 {
        letter-spacing: .03em;
      }

      .cls-62 {
        fill: #fde6c7;
      }

      .cls-19 {
        font-size: 60px;
      }
    </style>
  </defs>
  <g id="_レイヤー_1-2" data-name="レイヤー 1">
    <g>
      <g>
        <polygon class="cls-54" points="334.85 1.64 334.85 24.41 323.74 31.13 334.85 37.85 334.85 60.62 530.83 60.62 530.83 1.64 334.85 1.64"/>
        <polygon class="cls-44" points="334.85 1.64 334.85 24.41 323.74 31.13 334.85 37.85 334.85 60.62 530.83 60.62 530.83 1.64 334.85 1.64"/>
      </g>
      <text class="cls-5" transform="translate(345.16 20.14)"><tspan class="cls-59" x="0" y="0">選手登録</tspan><tspan class="cls-49" x="36.94" y="0">が</tspan><tspan class="cls-59" x="46.18" y="0">最低２人以上</tspan><tspan class="cls-49" x="101.58" y="0">い</tspan><tspan class="cls-61" x="110.83" y="0">れば大会エン</tspan><tspan x="166.23" y="0">ト</tspan></text>
      <text class="cls-5" transform="translate(345.16 34.14)"><tspan class="cls-57" x="0" y="0">リー</tspan><tspan class="cls-56" x="18.63" y="0">は</tspan><tspan class="cls-57" x="27.94" y="0">可</tspan><tspan x="37.25" y="0">能。</tspan><tspan class="cls-57" x="55.25" y="0">過</tspan><tspan class="cls-56" x="64.57" y="0">去</tspan><tspan class="cls-58" x="73.87" y="0">に選手２</tspan><tspan class="cls-55" x="111.13" y="0">人</tspan><tspan class="cls-30" x="120.44" y="0">で、</tspan><tspan class="cls-57" x="138.44" y="0">全国</tspan><tspan class="cls-56" x="157.07" y="0">大</tspan><tspan x="166.37" y="0">会</tspan></text>
      <text class="cls-5" transform="translate(345.16 48.15)"><tspan x="0" y="0">ベスト４に入ったチームもあるでござる！</tspan></text>
      <g>
        <polygon class="cls-36" points="152.05 130.55 96.26 129.96 42.37 207.69 115.04 207.69 152.05 130.55"/>
        <polygon class="cls-36" points="418.02 207.69 488.46 207.69 434.59 129.99 381.02 130.55 418.02 207.69"/>
        <polygon class="cls-25" points="488.46 207.69 418.02 207.69 381.02 130.55 434.59 129.99 414.65 101.23 317.15 101.23 213.68 101.23 116.18 101.23 96.26 129.96 152.05 130.55 115.04 207.69 42.37 207.69 6.46 259.5 213.68 259.5 317.15 259.5 524.37 259.5 488.46 207.69"/>
        <path class="cls-33" d="M530.83,262.88H0L114.41,97.85h302.01l114.41,165.03ZM12.91,256.12h505l-105.04-151.51H117.95L12.91,256.12Z"/>
        <polygon class="cls-33" points="116.69 209.38 42.37 209.38 42.37 206 114.54 206 149.4 131.39 98.48 131.39 98.48 128.01 154.71 128.01 116.69 209.38"/>
        <polygon class="cls-33" points="490.69 209.38 416.38 209.38 378.36 128.01 434.59 128.01 434.59 131.39 383.67 131.39 418.53 206 490.69 206 490.69 209.38"/>
        <rect class="cls-33" x="263.73" y="101.23" width="3.38" height="158.27"/>
        <path class="cls-33" d="M276.8,164.72c0,4.85-5.1,8.79-11.39,8.79s-11.39-3.94-11.39-8.79,5.1-8.79,11.39-8.79,11.39,3.94,11.39,8.79"/>
        <rect class="cls-33" x="23.53" y="239.47" width="2.25" height="21.42" transform="translate(-119.98 44.56) rotate(-29.5)"/>
        <rect class="cls-33" x="108" y="106.11" width="24.43" height="2.25" transform="translate(-31.23 52.33) rotate(-21.81)"/>
        <rect class="cls-33" x="495.81" y="249.05" width="21.42" height="2.25" transform="translate(39.29 567.75) rotate(-60.49)"/>
        <rect class="cls-33" x="409.83" y="95.02" width="2.25" height="24.43" transform="translate(158.74 448.96) rotate(-68.19)"/>
        <path class="cls-24" d="M63.5,191.08c0,3.5-3.86,6.33-8.63,6.33s-8.63-2.84-8.63-6.33,3.87-6.33,8.63-6.33,8.63,2.84,8.63,6.33"/>
        <path class="cls-33" d="M54.87,198.54c-5.38,0-9.76-3.35-9.76-7.46s4.38-7.46,9.76-7.46,9.76,3.35,9.76,7.46-4.38,7.46-9.76,7.46M54.87,185.87c-4.14,0-7.51,2.34-7.51,5.21s3.37,5.21,7.51,5.21,7.51-2.34,7.51-5.21-3.37-5.21-7.51-5.21"/>
        <path class="cls-24" d="M62.29,190.02c0,2.57-3.32,4.66-7.42,4.66s-7.42-2.09-7.42-4.66,3.32-4.66,7.42-4.66,7.42,2.09,7.42,4.66"/>
        <path class="cls-33" d="M54.87,195.11c-4.33,0-7.84-2.28-7.84-5.08s3.52-5.08,7.84-5.08,7.84,2.28,7.84,5.08-3.52,5.08-7.84,5.08M54.87,185.78c-3.86,0-7,1.9-7,4.24s3.14,4.24,7,4.24,7-1.9,7-4.24-3.14-4.24-7-4.24"/>
        <path class="cls-24" d="M54.87,129.78c-1.74,0-3.16,1.1-3.16,2.46v56.71c0,1.36,1.41,2.46,3.16,2.46s3.16-1.1,3.16-2.46v-56.71c0-1.36-1.41-2.46-3.16-2.46"/>
        <path class="cls-33" d="M54.87,192.54c-2.36,0-4.28-1.61-4.28-3.59v-56.71c0-1.98,1.92-3.59,4.28-3.59s4.28,1.61,4.28,3.59v56.71c0,1.98-1.92,3.59-4.28,3.59M54.87,130.91c-1.08,0-2.03.62-2.03,1.34v56.71c0,.71.95,1.34,2.03,1.34s2.03-.62,2.03-1.34v-56.71c0-.71-.95-1.34-2.03-1.34"/>
        <path class="cls-24" d="M57.58,131.56c0,.98-1.22,1.78-2.72,1.78s-2.72-.8-2.72-1.78,1.22-1.78,2.72-1.78,2.72.8,2.72,1.78"/>
        <path class="cls-33" d="M54.87,133.9c-1.84,0-3.28-1.03-3.28-2.34s1.44-2.34,3.28-2.34,3.28,1.03,3.28,2.34-1.44,2.34-3.28,2.34M54.87,130.34c-1.27,0-2.15.64-2.15,1.22s.89,1.21,2.15,1.21,2.15-.64,2.15-1.21-.89-1.22-2.15-1.22"/>
        <path class="cls-24" d="M98.63,139.14c0,3.5-3.86,6.33-8.63,6.33s-8.63-2.84-8.63-6.33,3.87-6.33,8.63-6.33,8.63,2.84,8.63,6.33"/>
        <path class="cls-33" d="M89.99,146.6c-5.38,0-9.76-3.35-9.76-7.46s4.38-7.46,9.76-7.46,9.76,3.35,9.76,7.46-4.38,7.46-9.76,7.46M89.99,133.94c-4.14,0-7.51,2.34-7.51,5.21s3.37,5.21,7.51,5.21,7.51-2.34,7.51-5.21-3.37-5.21-7.51-5.21"/>
        <path class="cls-24" d="M97.42,138.09c0,2.57-3.32,4.66-7.42,4.66s-7.42-2.09-7.42-4.66,3.32-4.66,7.42-4.66,7.42,2.09,7.42,4.66"/>
        <path class="cls-33" d="M89.99,143.17c-4.33,0-7.84-2.28-7.84-5.08s3.52-5.08,7.84-5.08,7.84,2.28,7.84,5.08-3.52,5.08-7.84,5.08M89.99,133.85c-3.86,0-7,1.9-7,4.24s3.14,4.24,7,4.24,7-1.9,7-4.24-3.14-4.24-7-4.24"/>
        <path class="cls-24" d="M89.99,77.85c-1.74,0-3.16,1.1-3.16,2.46v56.71c0,1.36,1.41,2.46,3.16,2.46s3.16-1.1,3.16-2.46v-56.71c0-1.36-1.41-2.46-3.16-2.46"/>
        <path class="cls-33" d="M89.99,140.61c-2.36,0-4.28-1.61-4.28-3.59v-56.71c0-1.98,1.92-3.59,4.28-3.59s4.28,1.61,4.28,3.59v56.71c0,1.98-1.92,3.59-4.28,3.59M89.99,78.98c-1.08,0-2.03.62-2.03,1.34v56.71c0,.71.95,1.34,2.03,1.34s2.03-.62,2.03-1.34v-56.71c0-.71-.95-1.34-2.03-1.34"/>
        <path class="cls-24" d="M92.71,79.63c0,.98-1.22,1.78-2.72,1.78s-2.72-.8-2.72-1.78,1.22-1.78,2.72-1.78,2.72.8,2.72,1.78"/>
        <path class="cls-33" d="M89.99,81.97c-1.84,0-3.28-1.03-3.28-2.34s1.44-2.34,3.28-2.34,3.28,1.03,3.28,2.34-1.44,2.34-3.28,2.34M89.99,78.41c-1.27,0-2.15.64-2.15,1.22s.89,1.21,2.15,1.21,2.15-.64,2.15-1.21-.88-1.22-2.15-1.22"/>
        <path class="cls-24" d="M468.4,191.08c0,3.5,3.86,6.33,8.63,6.33s8.63-2.84,8.63-6.33-3.87-6.33-8.63-6.33-8.63,2.84-8.63,6.33"/>
        <path class="cls-33" d="M477.03,198.54c-5.38,0-9.76-3.35-9.76-7.46s4.38-7.46,9.76-7.46,9.76,3.35,9.76,7.46-4.38,7.46-9.76,7.46M477.03,185.87c-4.14,0-7.51,2.34-7.51,5.21s3.37,5.21,7.51,5.21,7.51-2.34,7.51-5.21-3.37-5.21-7.51-5.21"/>
        <path class="cls-24" d="M469.61,190.02c0,2.57,3.32,4.66,7.42,4.66s7.42-2.09,7.42-4.66-3.32-4.66-7.42-4.66-7.42,2.09-7.42,4.66"/>
        <path class="cls-33" d="M477.03,195.11c-4.33,0-7.84-2.28-7.84-5.08s3.52-5.08,7.84-5.08,7.84,2.28,7.84,5.08-3.52,5.08-7.84,5.08M477.03,185.78c-3.86,0-7,1.9-7,4.24s3.14,4.24,7,4.24,7-1.9,7-4.24-3.14-4.24-7-4.24"/>
        <path class="cls-24" d="M477.03,129.78c1.74,0,3.16,1.1,3.16,2.46v56.71c0,1.36-1.41,2.46-3.16,2.46s-3.16-1.1-3.16-2.46v-56.71c0-1.36,1.41-2.46,3.16-2.46"/>
        <path class="cls-33" d="M477.03,192.54c-2.36,0-4.28-1.61-4.28-3.59v-56.71c0-1.98,1.92-3.59,4.28-3.59s4.28,1.61,4.28,3.59v56.71c0,1.98-1.92,3.59-4.28,3.59M477.03,130.91c-1.08,0-2.03.62-2.03,1.34v56.71c0,.71.95,1.34,2.03,1.34s2.03-.62,2.03-1.34v-56.71c0-.71-.95-1.34-2.03-1.34"/>
        <path class="cls-24" d="M474.31,131.56c0,.98,1.22,1.78,2.72,1.78s2.72-.8,2.72-1.78-1.22-1.78-2.72-1.78-2.72.8-2.72,1.78"/>
        <path class="cls-33" d="M477.03,133.9c-1.84,0-3.28-1.03-3.28-2.34s1.44-2.34,3.28-2.34,3.28,1.03,3.28,2.34-1.44,2.34-3.28,2.34M477.03,130.34c-1.27,0-2.15.64-2.15,1.22s.89,1.21,2.15,1.21,2.15-.64,2.15-1.21-.89-1.22-2.15-1.22"/>
        <path class="cls-24" d="M431.01,139.14c0,3.5,3.86,6.33,8.63,6.33s8.63-2.84,8.63-6.33-3.87-6.33-8.63-6.33-8.63,2.84-8.63,6.33"/>
        <path class="cls-33" d="M439.65,146.6c-5.38,0-9.76-3.35-9.76-7.46s4.38-7.46,9.76-7.46,9.76,3.35,9.76,7.46-4.38,7.46-9.76,7.46M439.65,133.94c-4.14,0-7.51,2.34-7.51,5.21s3.37,5.21,7.51,5.21,7.51-2.34,7.51-5.21-3.37-5.21-7.51-5.21"/>
        <path class="cls-24" d="M432.23,138.09c0,2.57,3.32,4.66,7.42,4.66s7.42-2.09,7.42-4.66-3.32-4.66-7.42-4.66-7.42,2.09-7.42,4.66"/>
        <path class="cls-33" d="M439.65,143.17c-4.33,0-7.84-2.28-7.84-5.08s3.52-5.08,7.84-5.08,7.84,2.28,7.84,5.08-3.52,5.08-7.84,5.08M439.65,133.85c-3.86,0-7,1.9-7,4.24s3.14,4.24,7,4.24,7-1.9,7-4.24-3.14-4.24-7-4.24"/>
        <path class="cls-24" d="M439.65,77.85c1.74,0,3.16,1.1,3.16,2.46v56.71c0,1.36-1.41,2.46-3.16,2.46s-3.16-1.1-3.16-2.46v-56.71c0-1.36,1.41-2.46,3.16-2.46"/>
        <path class="cls-33" d="M439.65,140.61c-2.36,0-4.28-1.61-4.28-3.59v-56.71c0-1.98,1.92-3.59,4.28-3.59s4.28,1.61,4.28,3.59v56.71c0,1.98-1.92,3.59-4.28,3.59M439.65,78.98c-1.08,0-2.03.62-2.03,1.34v56.71c0,.71.95,1.34,2.03,1.34s2.03-.62,2.03-1.34v-56.71c0-.71-.95-1.34-2.03-1.34"/>
        <path class="cls-24" d="M436.93,79.63c0,.98,1.22,1.78,2.72,1.78s2.72-.8,2.72-1.78-1.22-1.78-2.72-1.78-2.72.8-2.72,1.78"/>
        <path class="cls-33" d="M439.65,81.97c-1.84,0-3.28-1.03-3.28-2.34s1.44-2.34,3.28-2.34,3.28,1.03,3.28,2.34-1.44,2.34-3.28,2.34M439.65,78.41c-1.27,0-2.15.64-2.15,1.22s.89,1.21,2.15,1.21,2.15-.64,2.15-1.21-.89-1.22-2.15-1.22"/>
        <polygon class="cls-54" points="428.11 294.55 406.46 198.32 410.38 294.55 352.81 294.55 352.81 389.64 516.27 389.64 516.27 294.55 428.11 294.55"/>
        <polygon class="cls-44" points="428.11 294.55 406.46 198.32 410.38 294.55 352.81 294.55 352.81 389.64 516.27 389.64 516.27 294.55 428.11 294.55"/>
      </g>
      <text class="cls-8" transform="translate(367.6 342.4)"><tspan x="0" y="0">他のプレイヤーと区別の</tspan></text>
      <text class="cls-8" transform="translate(367.6 358.4)"><tspan x="0" y="0">つくもの（ビブスなど）</tspan></text>
      <text class="cls-8" transform="translate(367.6 374.39)"><tspan x="0" y="0">を着用するでござる！</tspan></text>
      <text class="cls-14" transform="translate(367.13 321.94)"><tspan x="0" y="0">ゴールキーパー</tspan></text>
      <text class="cls-4" transform="translate(294.6 364.17)"><tspan x="0" y="0">！</tspan></text>
      <text class="cls-17" transform="translate(73.28 391.82)"><tspan x="0" y="0">（事前に選手登録が必要）</tspan></text>
      <rect class="cls-54" x="86.12" y="356.76" width="144.6" height="9.75"/>
      <text class="cls-2" transform="translate(202.55 319.25)"><tspan x="0" y="0">選手交代は</tspan></text>
      <text class="cls-16" transform="translate(86.12 361.52)"><tspan x="0" y="0">何回でも</tspan></text>
      <text class="cls-4" transform="translate(234.08 364.17)"><tspan x="0" y="0">OK</tspan></text>
      <g>
        <path class="cls-29" d="M46.67,301.87c-1.42-.2-2.87-.31-4.35-.31-16.99,0-30.77,13.78-30.77,30.77,0,6.6,2.08,12.7,5.61,17.71,5.32,5.55,12.8,9.02,21.08,9.02,16.11,0,29.22-13.11,29.22-29.22,0-13.18-8.77-24.34-20.79-27.97M41.52,354.18v-6.43c-4.19,0-20.26-1.09-21.9-17.11,0,0,4,8.11,21.9,6.47v-7.1l15.33,12.08-15.33,12.09ZM34.95,322.74v7.1l-15.33-12.08,15.33-12.08v6.43c4.19,0,20.26,1.09,21.9,17.11,0,0-4-8.11-21.9-6.47"/>
        <path class="cls-34" d="M42.32,301.56c1.48,0,2.93.11,4.35.31-2.67-.81-5.5-1.24-8.43-1.24-16.11,0-29.22,13.11-29.22,29.22,0,7.83,3.1,14.95,8.14,20.2-3.53-5.01-5.61-11.11-5.61-17.71,0-16.99,13.78-30.77,30.77-30.77"/>
        <path class="cls-33" d="M34.95,312.1v-6.43l-15.33,12.08,15.33,12.09v-7.1c17.9-1.64,21.9,6.47,21.9,6.47-1.64-16.02-17.7-17.1-21.9-17.11"/>
        <path class="cls-33" d="M41.52,337.11c-17.9,1.64-21.9-6.47-21.9-6.47,1.64,16.02,17.7,17.1,21.9,17.11v6.43l15.33-12.08-15.33-12.08v7.1Z"/>
        <path class="cls-33" d="M38.24,295.24c-19.08,0-34.6,15.52-34.6,34.6s15.52,34.6,34.6,34.6,34.6-15.52,34.6-34.6-15.52-34.6-34.6-34.6M38.24,359.06c-8.28,0-15.76-3.47-21.08-9.02-5.03-5.25-8.14-12.37-8.14-20.2,0-16.11,13.11-29.22,29.22-29.22,2.93,0,5.76.44,8.43,1.24,12.01,3.63,20.79,14.79,20.79,27.97,0,16.11-13.11,29.22-29.22,29.22"/>
        <path class="cls-33" d="M178.83,321.58h-81.92c-5.96,0-10.78-4.83-10.78-10.78s4.83-10.79,10.78-10.79h81.92c5.96,0,10.78,4.83,10.78,10.79s-4.83,10.78-10.78,10.78"/>
      </g>
      <text class="cls-7" transform="translate(98.1 315.62)"><tspan x="0" y="0">自由にどうぞ</tspan></text>
      <rect class="cls-54" x="241.33" y="567.03" width="290.79" height="146.82"/>
      <text class="cls-3" transform="translate(258.41 649.58)"><tspan class="cls-48" x="0" y="0">車椅子が</tspan><tspan class="cls-50" x="44.97" y="0">制</tspan><tspan class="cls-48" x="56.2" y="0">限速</tspan><tspan class="cls-50" x="78.68" y="0">度</tspan><tspan class="cls-48" x="89.91" y="0">を超えて</tspan><tspan class="cls-50" x="134.88" y="0">い</tspan><tspan class="cls-48" x="146.11" y="0">ない</tspan><tspan x="168.6" y="0">か、</tspan><tspan class="cls-50" x="190.6" y="0">試</tspan><tspan class="cls-48" x="201.83" y="0">合開始前</tspan><tspan x="246.8" y="0">に</tspan></text>
      <text class="cls-3" transform="translate(258.41 665.58)"><tspan class="cls-51" x="0" y="0">必ず</tspan><tspan class="cls-53" x="22.44" y="0">審</tspan><tspan class="cls-51" x="33.65" y="0">判員</tspan><tspan class="cls-53" x="56.09" y="0">に</tspan><tspan class="cls-51" x="67.3" y="0">よる</tspan><tspan class="cls-53" x="89.74" y="0">ス</tspan><tspan class="cls-51" x="100.95" y="0">ピ</tspan><tspan class="cls-53" x="112.17" y="0">ー</tspan><tspan class="cls-51" x="123.38" y="0">ドチ</tspan><tspan class="cls-53" x="145.82" y="0">ェ</tspan><tspan class="cls-51" x="157.03" y="0">ッ</tspan><tspan class="cls-53" x="168.25" y="0">ク</tspan><tspan class="cls-51" x="179.45" y="0">を受</tspan><tspan class="cls-53" x="201.89" y="0">け</tspan><tspan class="cls-52" x="213.1" y="0">るこ</tspan><tspan class="cls-53" x="235.54" y="0">と</tspan><tspan x="246.75" y="0">が</tspan></text>
      <text class="cls-3" transform="translate(258.41 681.58)"><tspan x="0" y="0">決められているでござる。</tspan></text>
      <text class="cls-3" transform="translate(258.41 697.59)"><tspan x="0" y="0">近年はセンサー式のチェック方法もあるでござる！</tspan></text>
      <text class="cls-11" transform="translate(282.4 626.26)"><tspan x="0" y="0">スピードチェック？</tspan></text>
      <text class="cls-2" transform="translate(247.57 494.56)"><tspan x="0" y="0">車椅子の</tspan></text>
      <text class="cls-15" transform="translate(459.34 580.25)"><tspan x="0" y="0">以下</tspan></text>
      <text class="cls-18" transform="translate(351.82 502.11)"><tspan x="0" y="0">最高速度は</tspan></text>
      <text class="cls-13" transform="translate(460.39 546.67)"><tspan x="0" y="0">km</tspan></text>
      <g>
        <path class="cls-29" d="M284.49,531.37l1.62-.76.78,1.68c2.06-.84,4.27-1.31,6.53-1.41v-1.65h1.79v1.65c2.26.1,4.46.58,6.53,1.41l.78-1.68,1.62.76-.78,1.67c1.85.95,3.56,2.19,5.05,3.7l4.12-3.46c-4.75-4.98-11.31-7.81-18.22-7.81s-13.47,2.83-18.22,7.81l4.12,3.46c1.49-1.51,3.2-2.74,5.05-3.7l-.78-1.67Z"/>
        <path class="cls-29" d="M313.73,522.3c-4.93-2.7-10.59-4.23-16.6-4.23-19.16,0-34.7,15.54-34.7,34.7,0,9.62,3.92,18.32,10.25,24.6,5.91,4.8,13.44,7.68,21.63,7.68,18.96,0,34.39-15.43,34.39-34.39,0-11.76-5.94-22.16-14.97-28.36M273.15,532.54c5.31-6.2,13.02-9.75,21.16-9.75s15.86,3.55,21.16,9.75l.88,1.03-8.22,6.9-.86-1c-1.44-1.66-3.16-3.01-5.05-4l-.81,1.73-1.62-.76.8-1.72c-1.71-.68-3.53-1.08-5.39-1.18v1.67h-1.79v-1.67c-1.86.1-3.68.5-5.39,1.18l.6,1.29-1.62.76-.6-1.3c-1.9.99-3.61,2.34-5.05,4l-.86,1-8.22-6.9.88-1.03ZM300.02,559.67c-1.47,3.15-5.21,4.51-8.36,3.05-3.15-1.47-4.52-5.21-3.04-8.37,1.17-2.52,3.8-3.89,6.42-3.59l7.31-12.12c.41-.67,1.15-.33.9.42l-4.58,13.39c1.91,1.81,2.55,4.71,1.37,7.22M294.31,581.26c-14.54,0-26.7-10.14-29.81-23.74h21.29c.26,4.49,3.97,8.04,8.53,8.04s8.26-3.56,8.53-8.04h21.29c-3.11,13.6-15.27,23.74-29.81,23.74"/>
        <path class="cls-39" d="M262.43,552.77c0-19.16,15.54-34.7,34.7-34.7,6.02,0,11.67,1.54,16.6,4.23-5.53-3.8-12.22-6.03-19.42-6.03-18.96,0-34.39,15.43-34.39,34.39,0,10.77,4.98,20.4,12.76,26.71-6.32-6.28-10.25-14.98-10.25-24.6"/>
        <path class="cls-33" d="M294.31,510.02c-22.41,0-40.65,18.23-40.65,40.65s18.23,40.65,40.65,40.65,40.65-18.23,40.65-40.65-18.23-40.65-40.65-40.65M294.31,585.05c-8.19,0-15.72-2.88-21.63-7.68-7.78-6.31-12.76-15.94-12.76-26.71,0-18.96,15.43-34.39,34.39-34.39,7.2,0,13.89,2.23,19.42,6.03,9.03,6.2,14.97,16.6,14.97,28.36,0,18.96-15.43,34.39-34.39,34.39"/>
        <path class="cls-33" d="M293.42,529.23v1.65c.3-.01.59-.04.89-.04s.6.03.89.04v-1.65h-1.79Z"/>
        <path class="cls-33" d="M293.42,533.54v1.67h1.79v-1.67c-.3-.02-.59-.02-.89-.02s-.6,0-.89.02"/>
        <path class="cls-33" d="M302.51,530.62l-.78,1.68c.55.22,1.09.48,1.62.75l.78-1.67-1.62-.76Z"/>
        <path class="cls-33" d="M299.8,536.44l1.62.76.81-1.73c-.53-.28-1.07-.52-1.62-.74l-.8,1.72Z"/>
        <path class="cls-33" d="M287.01,536.76l1.62-.76-.6-1.29c-.55.22-1.1.47-1.62.74l.6,1.3Z"/>
        <path class="cls-33" d="M284.49,531.37l.78,1.67c.53-.27,1.07-.53,1.62-.75l-.78-1.68-1.62.76Z"/>
        <path class="cls-33" d="M281.35,539.47c1.44-1.66,3.16-3.01,5.05-4,.53-.28,1.07-.52,1.62-.74,1.71-.68,3.53-1.08,5.39-1.18.3-.01.6-.02.89-.02s.6,0,.89.02c1.86.1,3.68.5,5.39,1.18.55.22,1.1.47,1.62.74,1.9.99,3.61,2.34,5.05,4l.86,1,8.22-6.9-.88-1.03c-5.31-6.19-13.02-9.75-21.16-9.75s-15.86,3.55-21.16,9.75l-.88,1.03,8.22,6.9.86-1ZM276.09,533.28c4.75-4.98,11.31-7.81,18.22-7.81s13.47,2.83,18.22,7.81l-4.12,3.46c-1.49-1.51-3.2-2.74-5.05-3.7-.53-.27-1.07-.53-1.62-.75-2.06-.84-4.26-1.31-6.52-1.41-.3-.01-.59-.05-.89-.05s-.6.03-.89.05c-2.26.1-4.46.58-6.52,1.41-.55.22-1.09.48-1.62.75-1.85.95-3.56,2.19-5.05,3.7l-4.12-3.46Z"/>
        <path class="cls-33" d="M302.84,557.52c-.26,4.49-3.97,8.05-8.53,8.05s-8.26-3.56-8.53-8.05h-21.29c3.11,13.6,15.27,23.74,29.81,23.74s26.7-10.14,29.81-23.74h-21.29Z"/>
        <path class="cls-33" d="M302.33,538.64l-7.31,12.12c-2.62-.3-5.24,1.07-6.42,3.59-1.47,3.15-.11,6.9,3.04,8.37s6.9.11,8.37-3.05c1.17-2.52.53-5.41-1.37-7.22l4.58-13.39c.26-.75-.49-1.09-.9-.42"/>
        <path class="cls-33" d="M269.51,551.13c0-2.17.9-3.25,2.23-3.25s2.24,1.08,2.24,3.25-.91,3.31-2.24,3.31-2.23-1.14-2.23-3.31M272.56,551.13c0-1.73-.37-2.08-.81-2.08s-.8.36-.8,2.08.35,2.14.8,2.14.81-.4.81-2.14"/>
        <path class="cls-35" d="M280.13,574.73c-.1-.07-.11-.2-.03-.3l.58-.71c.09-.11.22-.12.32-.04.42.3.92.5,1.36.5.56,0,.82-.21.82-.55,0-.37-.35-.48-.89-.71l-.8-.34c-.66-.26-1.28-.81-1.28-1.73,0-1.06.95-1.91,2.29-1.91.67,0,1.37.23,1.91.7.09.08.09.2.02.29l-.49.63c-.08.1-.2.12-.31.04-.36-.23-.71-.36-1.13-.36-.46,0-.75.19-.75.53s.39.48.96.71l.79.31c.79.31,1.25.84,1.25,1.73,0,1.05-.89,1.98-2.41,1.98-.76,0-1.56-.26-2.2-.77"/>
        <path class="cls-35" d="M286.09,575.16v-5.87c0-.14.09-.22.22-.22h1.99c1.39,0,2.54.49,2.54,2.06s-1.16,2.16-2.5,2.16h-.51c-.13,0-.22.09-.22.22v1.65c0,.13-.09.22-.22.22h-1.07c-.13,0-.22-.09-.22-.22M287.75,572.08h.53c.74,0,1.09-.35,1.09-.97s-.4-.86-1.14-.86h-.48c-.08,0-.13.05-.13.13v1.56c0,.08.05.13.13.13"/>
        <path class="cls-35" d="M292.23,575.16v-5.87c0-.13.09-.22.22-.22h3.56c.13,0,.22.09.22.22v.81c0,.13-.09.22-.22.22h-2.04c-.13,0-.22.09-.22.22v.72c0,.13.09.22.22.22h1.66c.14,0,.22.09.22.22v.82c0,.13-.09.22-.22.22h-1.66c-.13,0-.22.09-.22.22v.89c0,.13.09.22.22.22h2.14c.14,0,.22.09.22.22v.83c0,.13-.09.22-.22.22h-3.66c-.13,0-.22-.09-.22-.22"/>
        <path class="cls-35" d="M297.86,575.16v-5.87c0-.13.09-.22.22-.22h3.56c.13,0,.22.09.22.22v.81c0,.13-.09.22-.22.22h-2.04c-.13,0-.22.09-.22.22v.72c0,.13.09.22.22.22h1.66c.13,0,.22.09.22.22v.82c0,.13-.09.22-.22.22h-1.66c-.13,0-.22.09-.22.22v.89c0,.13.09.22.22.22h2.14c.13,0,.22.09.22.22v.83c0,.13-.09.22-.22.22h-3.66c-.14,0-.22-.09-.22-.22"/>
        <path class="cls-35" d="M303.51,575.16v-5.87c0-.13.09-.22.22-.22h1.59c1.93,0,3.2.93,3.2,3.13s-1.27,3.19-3.11,3.19h-1.68c-.13,0-.22-.09-.22-.22M305.13,574.16h.1c1.02,0,1.73-.46,1.73-1.97s-.71-1.92-1.73-1.92h-.1c-.06,0-.11.05-.11.1v3.68c0,.06.05.11.11.11"/>
        <path class="cls-33" d="M311.41,554.1v-.78c0-.13.09-.22.22-.22h.89c.14,0,.22-.09.22-.22v-3.15c0-.13-.09-.22-.22-.22h-.71c-.13,0-.22-.09-.22-.22v-.52c0-.12.07-.2.18-.22.55-.12.95-.27,1.33-.5.04-.02.08-.04.12-.04h.82c.13,0,.22.09.22.22v4.65c0,.13.09.22.22.22h.7c.13,0,.22.09.22.22v.78c0,.13-.09.22-.22.22h-3.55c-.13,0-.22-.09-.22-.22"/>
        <path class="cls-33" d="M315.65,551.13c0-2.17.9-3.25,2.24-3.25s2.24,1.08,2.24,3.25-.91,3.31-2.24,3.31-2.24-1.14-2.24-3.31M318.7,551.13c0-1.73-.37-2.08-.81-2.08s-.81.36-.81,2.08.35,2.14.81,2.14.81-.4.81-2.14"/>
      </g>
      <text class="cls-9" transform="translate(348.98 581.82)"><tspan class="cls-42" x="0" y="0">1</tspan><tspan x="50.31" y="0">0</tspan></text>
      <g>
        <path class="cls-20" d="M271.67,626.07h-3.88c-3.97,0-7.22-3.25-7.22-7.22v-3.88c0-3.97,3.25-7.22,7.22-7.22h3.88c3.97,0,7.22,3.25,7.22,7.22v3.88c0,3.97-3.25,7.22-7.22,7.22"/>
        <polygon class="cls-41" points="268.19 621.59 263.72 616.82 265.77 614.55 268.28 618.6 273.16 611.19 275.66 613.02 268.19 621.59"/>
        <polygon class="cls-33" points="232.83 672.58 246.49 664.14 232.42 657.46 232.83 672.58"/>
        <path class="cls-33" d="M169.28,646.23c11.41-17.07,34.48-21.66,51.55-10.25,17.07,11.4,21.66,34.48,10.25,51.55-11.4,17.07-34.48,21.66-51.55,10.25-17.07-11.4-21.66-34.49-10.25-51.55"/>
      </g>
      <text class="cls-10" transform="translate(178.29 656.41)"><tspan x="0" y="0">試合前の</tspan></text>
      <text class="cls-10" transform="translate(172.79 672.42)"><tspan x="0" y="0">選手たちに</tspan></text>
      <text class="cls-10" transform="translate(183.79 688.42)"><tspan x="0" y="0">注目！</tspan></text>
      <text class="cls-2" transform="translate(70.17 27.05)"><tspan x="0" y="0">人数は</tspan></text>
      <text class="cls-12" transform="translate(247.16 52.33)"><tspan class="cls-46" x="0" y="0">以内</tspan><tspan x="44" y="0">！</tspan></text>
      <text class="cls-17" transform="translate(71.58 52.48)"><tspan class="cls-28" x="0" y="0">1</tspan><tspan x="15.46" y="0">チーム</tspan></text>
      <rect class="cls-54" x="145.26" y="39.9" width="98.14" height="16.51"/>
      <text class="cls-19" transform="translate(138.22 52.8)"><tspan x="0" y="0">４</tspan></text>
      <text class="cls-6" transform="translate(192.49 50.38)"><tspan x="0" y="0">人</tspan></text>
      <path class="cls-33" d="M299.7,28.6h-48.77c-5.96,0-10.78-4.83-10.78-10.78s4.83-10.79,10.78-10.79h48.77c5.96,0,10.79,4.83,10.79,10.79s-4.83,10.78-10.79,10.78"/>
      <text class="cls-7" transform="translate(246.73 22.65)"><tspan x="0" y="0">男女混合</tspan></text>
      <g>
        <path class="cls-29" d="M18.62,8.91c-3.75,0-6.8,3.04-6.8,6.8v21.23h10.54c1.14-3.78,3.03-7.85,5.17-7.94-2.66-1.57-4.44-4.45-4.44-7.76,0-4.98,4.04-9.02,9.02-9.02s9.02,4.04,9.02,9.02c0,3.31-1.79,6.2-4.45,7.76,2.12.1,3.98,4.16,5.11,7.93h13.27V13.95c0-1.93-.72-3.68-1.9-5.03H18.62Z"/>
        <path class="cls-39" d="M18.62,8.91h34.53c-1.41-1.61-3.47-2.63-5.76-2.63h-30.63c-4.22,0-7.66,3.44-7.66,7.66v23h2.74V15.71c0-3.75,3.04-6.8,6.8-6.8"/>
        <path class="cls-33" d="M47.39,2.28h-30.63c-6.43,0-11.66,5.23-11.66,11.66v30.63c0,6.43,5.23,11.66,11.66,11.66h30.63c6.43,0,11.66-5.23,11.66-11.66V13.95c0-6.43-5.23-11.66-11.66-11.66M55.05,36.94h-13.27c-1.13-3.77-2.99-7.83-5.11-7.93,2.66-1.57,4.45-4.45,4.45-7.76,0-4.98-4.04-9.02-9.02-9.02s-9.02,4.04-9.02,9.02c0,3.31,1.79,6.19,4.44,7.76-2.14.09-4.03,4.15-5.17,7.94h-13.27V13.95c0-4.23,3.44-7.66,7.66-7.66h30.63c2.3,0,4.36,1.02,5.76,2.63,1.18,1.35,1.9,3.11,1.9,5.03v23ZM11.58,48.89v-7.29c0-.17.11-.28.28-.28h2.47c1.72,0,3.15.61,3.15,2.55s-1.44,2.68-3.11,2.68h-.63c-.17,0-.28.11-.28.28v2.05c0,.17-.11.28-.28.28h-1.33c-.17,0-.28-.11-.28-.28M21.35,47.58h2.48c.17,0,.28.11.28.28v1.03c0,.17-.11.28-.28.28h-4.37c-.17,0-.28-.11-.28-.28v-7.29c0-.17.11-.28.28-.28h1.33c.17,0,.28.11.28.28v5.7c0,.17.11.28.28.28M28.35,23.22h7.29c-.4,1.37-1.88,2.4-3.65,2.4s-3.24-1.02-3.64-2.4M42.06,44.34h2.06c.17,0,.28.11.28.28v1.02c0,.17-.11.28-.28.28h-2.06c-.17,0-.28.11-.28.28v1.11c0,.17.11.28.28.28h2.65c.17,0,.28.11.28.28v1.03c0,.17-.11.28-.28.28h-4.54c-.17,0-.28-.11-.28-.28v-7.29c0-.17.11-.28.28-.28h4.42c.17,0,.28.11.28.28v1.01c0,.17-.11.28-.28.28h-2.53c-.17,0-.28.11-.28.28v.9c0,.17.11.28.28.28M34.47,46.36s0-.03-.01-.04l-2.14-4.59c-.11-.24-.01-.4.24-.4h1.39c.11,0,.21.07.25.18l.59,1.57c.12.35.26.69.39,1.04.17.42.37.42.53,0,.14-.36.28-.69.41-1.04l.58-1.57c.04-.1.14-.18.26-.18h1.35c.26,0,.36.15.24.4l-2.15,4.59s-.01.03-.01.04l-.02.09v2.44c0,.17-.11.28-.28.28h-1.32c-.17,0-.28-.11-.28-.28v-2.44l-.02-.09ZM27.48,41.32h1.85c.12,0,.22.08.26.2l2.27,7.29c.07.21-.04.36-.27.36h-1.4c-.12,0-.23-.09-.27-.21l-.34-1.38c-.03-.12-.14-.21-.27-.21h-1.9c-.12,0-.23.09-.27.21l-.34,1.38c-.03.12-.14.21-.27.21h-1.33c-.22,0-.33-.14-.27-.36l2.27-7.29c.03-.12.13-.2.26-.2M51.64,46.33l1.38,2.43c.15.24.04.41-.24.41h-1.46c-.1,0-.2-.06-.24-.14l-1.3-2.47c-.04-.09-.14-.14-.24-.14h-.45c-.17,0-.28.11-.28.28v2.21c0,.17-.11.28-.28.28h-1.33c-.17,0-.28-.11-.28-.28v-7.29c0-.17.11-.28.28-.28h2.59c1.68,0,3.07.57,3.07,2.46,0,1.02-.43,1.72-1.09,2.13-.16.1-.21.24-.12.41"/>
        <path class="cls-35" d="M35.64,23.22h-7.29c.4,1.37,1.88,2.4,3.65,2.4s3.24-1.02,3.65-2.4"/>
        <path class="cls-33" d="M49.64,42.81h-.68c-.1,0-.17.07-.17.17v1.77c0,.1.07.17.17.17h.68c.9,0,1.36-.39,1.36-1.13s-.47-.98-1.36-.98"/>
        <path class="cls-33" d="M28.53,43.39c-.1-.39-.22-.39-.32,0l-.47,1.86-.12.44c-.03.12.03.21.17.21h1.18c.12,0,.19-.08.16-.21l-.11-.44c-.16-.58-.32-1.24-.48-1.86"/>
        <path class="cls-33" d="M13.64,45.07h.66c.92,0,1.35-.43,1.35-1.2s-.5-1.07-1.41-1.07h-.6c-.1,0-.17.07-.17.17v1.93c0,.1.07.17.17.17"/>
        <path class="cls-35" d="M11.86,49.17h1.33c.17,0,.28-.11.28-.28v-2.05c0-.17.11-.28.28-.28h.63c1.66,0,3.11-.82,3.11-2.68s-1.43-2.55-3.15-2.55h-2.47c-.17,0-.28.11-.28.28v7.29c0,.17.11.28.28.28M13.47,42.98c0-.1.07-.17.17-.17h.6c.91,0,1.41.28,1.41,1.07s-.43,1.2-1.35,1.2h-.65c-.1,0-.17-.07-.17-.17v-1.93Z"/>
        <path class="cls-35" d="M20.79,41.32h-1.33c-.17,0-.28.11-.28.28v7.29c0,.17.11.28.28.28h4.37c.17,0,.28-.11.28-.28v-1.03c0-.17-.11-.28-.28-.28h-2.48c-.17,0-.28-.11-.28-.28v-5.7c0-.17-.11-.28-.28-.28"/>
        <path class="cls-35" d="M24.95,48.81c-.07.21.04.35.27.35h1.33c.12,0,.23-.09.27-.21l.34-1.38c.03-.12.15-.21.27-.21h1.9c.12,0,.23.09.27.21l.34,1.38c.03.12.14.21.27.21h1.4c.22,0,.33-.14.27-.35l-2.27-7.29c-.03-.12-.13-.2-.25-.2h-1.85c-.12,0-.22.08-.26.2l-2.27,7.29ZM28.96,45.9h-1.18c-.13,0-.2-.09-.17-.21l.12-.44.47-1.86c.1-.39.22-.39.32,0,.16.62.32,1.29.48,1.86l.11.44c.03.13-.03.21-.16.21"/>
        <path class="cls-35" d="M34.77,49.17h1.32c.17,0,.28-.11.28-.28v-2.44l.02-.09s0-.03.01-.04l2.15-4.59c.11-.24.01-.4-.24-.4h-1.35c-.11,0-.21.08-.26.18l-.58,1.57c-.13.35-.27.69-.41,1.04-.17.42-.37.42-.53,0-.13-.36-.27-.69-.39-1.04l-.59-1.57c-.04-.11-.14-.18-.26-.18h-1.39c-.26,0-.35.16-.24.4l2.14,4.59s.01.03.01.04l.02.09v2.44c0,.17.11.28.28.28"/>
        <path class="cls-35" d="M42.06,42.89h2.53c.17,0,.28-.11.28-.28v-1.01c0-.17-.11-.28-.28-.28h-4.41c-.17,0-.28.11-.28.28v7.29c0,.17.11.28.28.28h4.54c.17,0,.28-.11.28-.28v-1.03c0-.17-.11-.28-.28-.28h-2.65c-.17,0-.28-.11-.28-.28v-1.11c0-.17.11-.28.28-.28h2.06c.17,0,.28-.11.28-.28v-1.02c0-.17-.11-.28-.28-.28h-2.06c-.17,0-.28-.11-.28-.28v-.9c0-.17.11-.28.28-.28"/>
        <path class="cls-35" d="M52.85,43.78c0-1.9-1.4-2.46-3.07-2.46h-2.6c-.17,0-.28.11-.28.28v7.29c0,.17.11.28.28.28h1.33c.17,0,.28-.11.28-.28v-2.21c0-.17.11-.28.28-.28h.45c.1,0,.2.06.24.14l1.3,2.47c.04.09.14.15.24.15h1.46c.29,0,.39-.17.24-.41l-1.38-2.43c-.09-.17-.03-.31.12-.41.65-.41,1.09-1.11,1.09-2.13M49.64,44.92h-.68c-.1,0-.17-.07-.17-.17v-1.77c0-.1.07-.17.17-.17h.68c.9,0,1.36.24,1.36.98s-.47,1.13-1.36,1.13"/>
        <rect class="cls-54" x="61.5" y="460.13" width="95" height="10.78"/>
      </g>
      <text class="cls-3" transform="translate(5.41 517.99)"><tspan x="0" y="0">◆</tspan><tspan class="cls-60" x="11" y="0">電動車椅子を適切に操作すること</tspan><tspan x="180.29" y="0">が</tspan></text>
      <text class="cls-3" transform="translate(5.41 534)"><tspan x="0" y="0">できれば誰でもプレー可能！</tspan></text>
      <text class="cls-3" transform="translate(5.41 550)"><tspan x="0" y="0">◆</tspan><tspan class="cls-60" x="11" y="0">日本国内の公式戦に出場する場合</tspan><tspan x="180.29" y="0">は</tspan></text>
      <text class="cls-3" transform="translate(5.41 566.01)"><tspan x="0" y="0">障がい者手帳が必要。</tspan></text>
      <text class="cls-3" transform="translate(5.41 582.01)"><tspan x="0" y="0">◆健常者は公式戦に出場できない。</tspan></text>
      <text class="cls-2" transform="translate(60.37 493.94)"><tspan x="0" y="0">出場資格？</tspan></text>
      <text class="cls-1" transform="translate(58.26 465.88)"><tspan x="0" y="0">公式戦</tspan></text>
      <g>
        <path class="cls-33" d="M39.96,440.12h-18.34l-16.21,15.68v28.38c0,6.22,5.06,11.29,11.29,11.29h23.26c6.22,0,11.29-5.06,11.29-11.29v-32.77c0-6.22-5.06-11.29-11.29-11.29M47.52,484.19c0,4.17-3.4,7.57-7.57,7.57h-23.26c-4.17,0-7.57-3.39-7.57-7.57v-24.66h10.3c3.26,0,5.91-2.65,5.91-5.91v-9.77h14.62c4.17,0,7.57,3.39,7.57,7.57v32.77Z"/>
        <rect class="cls-33" x="31.09" y="450.97" width="9.16" height="9.16"/>
        <rect class="cls-33" x="16.4" y="465.42" width="23.85" height="2.38"/>
        <rect class="cls-33" x="16.4" y="473.08" width="23.85" height="2.38"/>
        <rect class="cls-33" x="16.4" y="480.75" width="23.85" height="2.38"/>
      </g>
      <text class="cls-17" transform="translate(158.77 468.39)"><tspan x="0" y="0">の</tspan></text>
      <g>
        <path class="cls-22" d="M376.17,118.32c.26.36.52.73.76,1.1l3.79-2.69-.03-1.35,1.41,1.74-4.81,2.86c.05.09.11.17.16.26l5.31-3.03-2.22-3-4.37,4.1Z"/>
        <path class="cls-22" d="M384.89,122.07l-5.61,1.86c.17.42.33.85.48,1.29l4.4-.78.58-1.26.04.19.4,1.92-5.19.6c.03.1.06.2.09.31l5.57-.47-.75-3.65Z"/>
        <path class="cls-43" d="M380.7,115.39l.03,1.35-3.79,2.69c.12.18.24.37.36.56l4.81-2.86-1.41-1.74Z"/>
        <path class="cls-43" d="M384.77,123.37l-.04-.19-.58,1.26-4.4.78c.07.22.15.45.22.67l5.19-.61-.4-1.91Z"/>
        <path class="cls-33" d="M386.51,119.27l-7.19,2.38,6.6-3.77-5.09-6.89-6.01,5.64c-4.71-5.43-11.66-8.87-19.4-8.87-14.17,0-25.69,11.52-25.69,25.68,0,12.87,9.6,20.55,25.69,20.55s25.69-7.68,25.69-20.55c0-1.76-.18-3.48-.52-5.14l7.63-.64-1.72-8.39ZM375.16,132.24c-5.36,2.08-12.4,3.27-19.73,3.27s-14.84-1.26-20.27-3.48c-.54-.22-1.06-.45-1.56-.69.27-2.76,1.05-5.38,2.25-7.75.56.23,1.14.46,1.75.66,4.92,1.7,11.21,2.65,17.83,2.65s13.35-1.02,18.33-2.83c.43-.16.84-.32,1.24-.48,1.2,2.37,1.98,4.98,2.25,7.74-.67.32-1.37.62-2.1.9M377.45,120.25c-.05-.09-.11-.17-.16-.26-.12-.19-.24-.37-.36-.56-.24-.38-.5-.74-.76-1.11l4.37-4.1,2.22,3-5.31,3.03ZM373.64,121.25c-4.76,1.89-11.26,2.96-18.21,2.96-6.15,0-11.95-.84-16.51-2.35-.59-.2-1.16-.4-1.7-.62,3.94-5.86,10.63-9.72,18.21-9.72.63,0,1.25.03,1.86.09,6.81.57,12.74,4.26,16.35,9.64M338,144.81c-2.53-2.37-4.3-5.75-4.48-10.56.46.2.94.4,1.42.58,5.65,2.16,12.89,3.36,20.48,3.36,7.11,0,13.83-1.04,19.27-2.92.92-.32,1.8-.66,2.64-1.02-.18,4.72-1.89,8.07-4.34,10.43-5.05,4.85-13.21,5.56-17.56,5.56s-12.38-.7-17.43-5.44M379.98,125.89c-.07-.23-.15-.45-.22-.67-.15-.43-.31-.86-.48-1.29l5.61-1.86.75,3.65-5.57.47c-.03-.1-.06-.21-.09-.31"/>
        <path class="cls-22" d="M357.29,111.61c-7.68.55-14.36,4.49-18.37,10.25,4.56,1.51,10.36,2.35,16.51,2.35,6.95,0,13.45-1.07,18.21-2.96-3.61-5.38-9.55-9.07-16.35-9.64"/>
        <path class="cls-22" d="M372.99,144.68c-3.73,2.8-9.02,4.08-14.87,4.08-.92,0-1.83-.04-2.72-.1,9.66-.66,17.42-4.78,19.3-13.39-5.44,1.88-12.15,2.92-19.27,2.92-7.59,0-14.83-1.21-20.48-3.36.06,3.9,1.16,7.23,3.05,9.98,5.05,4.73,13.11,5.43,17.43,5.43s12.52-.72,17.56-5.56"/>
        <path class="cls-35" d="M333.52,134.25c.18,4.8,1.95,8.19,4.48,10.56-1.89-2.75-2.99-6.08-3.05-9.98-.49-.19-.96-.38-1.42-.58"/>
        <path class="cls-35" d="M357.29,111.61c-.61-.05-1.23-.08-1.86-.08-7.58,0-14.27,3.86-18.21,9.72.55.22,1.11.42,1.71.62,4.01-5.76,10.69-9.7,18.37-10.25"/>
        <path class="cls-43" d="M355.4,148.66c.89.06,1.8.1,2.72.1,5.86,0,11.14-1.28,14.87-4.08,2.46-2.36,4.17-5.71,4.34-10.43-.84.36-1.72.71-2.64,1.02-1.88,8.6-9.64,12.73-19.3,13.39"/>
        <path class="cls-27" d="M373.76,124.08c-4.98,1.81-11.47,2.83-18.34,2.83s-12.91-.95-17.83-2.64c-.76,1.33-1.88,3.87-2.44,7.77,5.43,2.23,12.64,3.48,20.27,3.48s14.37-1.2,19.73-3.27c.1-1.71-.03-4.61-1.39-8.16M346.91,133.26c-2.34,0-4.24-2.62-4.24-5.84,0-.22.01-.43.03-.64,1.85.87,4.91,2.18,8.1,3.01-.66,2.04-2.15,3.47-3.88,3.47M363.95,133.26c-1.73,0-3.22-1.43-3.88-3.47,3.18-.83,6.24-2.14,8.09-3.01.02.21.03.42.03.64,0,3.23-1.9,5.84-4.24,5.84"/>
        <path class="cls-62" d="M335.85,123.59c-1.2,2.37-1.98,4.98-2.25,7.75.5.24,1.02.47,1.56.69.56-3.91,1.68-6.44,2.44-7.77-.61-.21-1.19-.43-1.75-.66"/>
        <path class="cls-32" d="M375.01,123.59c-.4.17-.82.33-1.24.48,1.36,3.55,1.5,6.45,1.39,8.16.73-.28,1.43-.59,2.1-.9-.27-2.76-1.05-5.37-2.25-7.74"/>
        <path class="cls-33" d="M342.66,127.41c0,3.23,1.9,5.84,4.24,5.84,1.73,0,3.21-1.43,3.88-3.47-3.18-.83-6.24-2.14-8.09-3.01-.02.21-.03.42-.03.64"/>
        <path class="cls-33" d="M368.17,126.77c-1.85.87-4.91,2.18-8.09,3.01.66,2.04,2.15,3.47,3.88,3.47,2.34,0,4.24-2.62,4.24-5.84,0-.22-.01-.43-.03-.64"/>
        <path class="cls-22" d="M382.2,209.26c.26.36.52.73.76,1.1l3.79-2.69-.03-1.35,1.41,1.74-4.81,2.86c.05.09.11.17.16.26l5.31-3.03-2.22-3-4.37,4.1Z"/>
        <path class="cls-22" d="M390.92,213.01l-5.61,1.86c.17.42.33.85.48,1.29l4.4-.78.58-1.26.04.19.4,1.92-5.19.6c.03.1.06.2.09.31l5.57-.47-.75-3.65Z"/>
        <path class="cls-43" d="M386.73,206.32l.03,1.35-3.79,2.69c.12.18.24.37.36.56l4.81-2.86-1.41-1.74Z"/>
        <path class="cls-43" d="M390.81,214.3l-.04-.19-.58,1.26-4.4.78c.08.22.15.45.22.67l5.19-.61-.4-1.91Z"/>
        <path class="cls-33" d="M392.54,210.21l-7.19,2.38,6.6-3.77-5.09-6.89-6.01,5.64c-4.71-5.43-11.66-8.87-19.4-8.87-14.17,0-25.69,11.52-25.69,25.68,0,12.87,9.6,20.55,25.69,20.55s25.69-7.68,25.69-20.55c0-1.76-.18-3.48-.52-5.14l7.62-.64-1.72-8.39ZM381.19,223.17c-5.36,2.08-12.4,3.27-19.73,3.27s-14.84-1.26-20.27-3.48c-.54-.22-1.06-.45-1.56-.69.27-2.76,1.05-5.38,2.25-7.75.56.23,1.14.46,1.75.66,4.92,1.7,11.21,2.65,17.83,2.65s13.35-1.02,18.33-2.83c.43-.16.84-.32,1.24-.48,1.2,2.37,1.98,4.98,2.25,7.74-.67.32-1.37.62-2.1.9M383.48,211.18c-.05-.09-.11-.17-.16-.26-.12-.19-.24-.37-.36-.56-.25-.38-.5-.74-.76-1.11l4.37-4.1,2.22,3-5.31,3.03ZM379.67,212.19c-4.76,1.89-11.26,2.96-18.21,2.96-6.15,0-11.95-.84-16.51-2.35-.59-.2-1.16-.4-1.7-.62,3.94-5.86,10.63-9.72,18.21-9.72.63,0,1.25.03,1.86.09,6.81.57,12.74,4.26,16.35,9.64M344.03,235.74c-2.53-2.37-4.3-5.75-4.48-10.56.46.2.94.4,1.42.58,5.65,2.16,12.89,3.36,20.48,3.36,7.11,0,13.83-1.04,19.27-2.92.92-.32,1.8-.66,2.64-1.02-.18,4.72-1.89,8.07-4.34,10.43-5.05,4.85-13.21,5.56-17.56,5.56s-12.38-.7-17.43-5.44M386.01,216.82c-.07-.23-.15-.45-.22-.67-.15-.43-.31-.86-.48-1.29l5.61-1.86.75,3.65-5.57.47c-.03-.1-.06-.21-.09-.31"/>
        <path class="cls-22" d="M363.32,202.55c-7.68.55-14.36,4.49-18.37,10.25,4.56,1.51,10.36,2.35,16.51,2.35,6.95,0,13.45-1.07,18.21-2.96-3.61-5.38-9.55-9.07-16.35-9.64"/>
        <path class="cls-22" d="M379.02,235.62c-3.73,2.8-9.02,4.08-14.87,4.08-.92,0-1.83-.04-2.72-.1,9.66-.66,17.42-4.78,19.3-13.39-5.44,1.88-12.15,2.92-19.27,2.92-7.59,0-14.83-1.21-20.48-3.36.06,3.9,1.16,7.23,3.05,9.98,5.05,4.73,13.11,5.43,17.43,5.43s12.52-.72,17.56-5.56"/>
        <path class="cls-35" d="M339.55,225.18c.18,4.8,1.95,8.19,4.48,10.56-1.89-2.75-2.99-6.08-3.05-9.98-.49-.19-.96-.38-1.42-.58"/>
        <path class="cls-35" d="M363.32,202.55c-.61-.05-1.23-.08-1.86-.08-7.58,0-14.27,3.86-18.21,9.72.55.22,1.11.42,1.71.62,4.01-5.76,10.69-9.7,18.37-10.25"/>
        <path class="cls-43" d="M361.43,239.59c.89.06,1.8.1,2.72.1,5.86,0,11.14-1.28,14.87-4.08,2.46-2.36,4.17-5.71,4.34-10.43-.84.36-1.72.71-2.64,1.02-1.88,8.6-9.64,12.73-19.3,13.39"/>
        <path class="cls-27" d="M379.8,215.01c-4.98,1.81-11.47,2.83-18.34,2.83s-12.91-.95-17.83-2.65c-.76,1.33-1.88,3.87-2.44,7.77,5.43,2.23,12.64,3.48,20.27,3.48s14.37-1.2,19.73-3.27c.1-1.71-.03-4.61-1.39-8.16M352.94,224.19c-2.34,0-4.24-2.62-4.24-5.84,0-.22.01-.43.03-.64,1.85.87,4.91,2.18,8.1,3.01-.66,2.04-2.15,3.47-3.88,3.47M369.98,224.19c-1.73,0-3.22-1.43-3.88-3.47,3.18-.83,6.24-2.14,8.09-3.01.02.21.03.42.03.64,0,3.23-1.9,5.84-4.24,5.84"/>
        <path class="cls-62" d="M341.88,214.52c-1.2,2.37-1.98,4.98-2.25,7.75.5.24,1.02.47,1.56.69.56-3.91,1.68-6.44,2.44-7.77-.61-.21-1.19-.43-1.75-.66"/>
        <path class="cls-32" d="M381.04,214.52c-.4.17-.82.33-1.24.48,1.36,3.55,1.49,6.45,1.39,8.16.73-.28,1.43-.59,2.1-.9-.27-2.76-1.05-5.37-2.25-7.74"/>
        <path class="cls-33" d="M348.7,218.35c0,3.23,1.9,5.84,4.24,5.84,1.73,0,3.22-1.43,3.88-3.47-3.18-.83-6.24-2.14-8.09-3.01-.02.21-.03.42-.03.64"/>
        <path class="cls-33" d="M374.2,217.71c-1.85.87-4.91,2.18-8.09,3.01.66,2.04,2.15,3.47,3.88,3.47,2.34,0,4.24-2.62,4.24-5.84,0-.22-.01-.43-.03-.64"/>
        <path class="cls-45" d="M430.08,160.95c.26.36.52.73.76,1.1l3.79-2.69-.03-1.35,1.41,1.74-4.81,2.86c.05.09.11.17.16.26l5.31-3.03-2.22-3-4.37,4.1Z"/>
        <path class="cls-45" d="M438.8,164.7l-5.61,1.86c.17.42.33.85.48,1.29l4.4-.78.58-1.26.04.19.4,1.92-5.19.6c.03.1.06.2.09.31l5.57-.47-.75-3.65Z"/>
        <path class="cls-47" d="M434.61,158.02l.03,1.35-3.79,2.69c.12.18.24.37.36.56l4.81-2.86-1.41-1.74Z"/>
        <path class="cls-47" d="M438.68,166l-.04-.19-.58,1.26-4.4.78c.08.22.15.45.22.67l5.19-.61-.4-1.91Z"/>
        <path class="cls-33" d="M440.42,161.9l-7.19,2.38,6.6-3.77-5.09-6.89-6.01,5.64c-4.71-5.43-11.66-8.87-19.4-8.87-14.17,0-25.69,11.52-25.69,25.68,0,12.87,9.6,20.55,25.69,20.55s25.69-7.68,25.69-20.55c0-1.76-.18-3.48-.52-5.14l7.62-.64-1.72-8.39ZM429.06,174.86c-5.36,2.08-12.4,3.27-19.73,3.27s-14.84-1.26-20.27-3.48c-.54-.22-1.06-.45-1.56-.69.27-2.76,1.05-5.38,2.25-7.75.56.23,1.14.46,1.75.66,4.92,1.7,11.21,2.65,17.83,2.65s13.35-1.02,18.33-2.83c.43-.16.84-.32,1.24-.48,1.2,2.37,1.98,4.98,2.25,7.74-.67.32-1.37.62-2.1.9M431.36,162.87c-.05-.09-.11-.17-.16-.26-.12-.19-.24-.37-.36-.56-.25-.38-.5-.74-.76-1.11l4.37-4.1,2.22,3-5.31,3.03ZM427.55,163.88c-4.76,1.89-11.26,2.96-18.21,2.96-6.15,0-11.95-.84-16.51-2.35-.59-.2-1.16-.4-1.7-.62,3.94-5.86,10.63-9.72,18.21-9.72.63,0,1.25.03,1.86.09,6.81.57,12.74,4.26,16.35,9.64M391.91,187.44c-2.53-2.37-4.3-5.75-4.47-10.56.46.2.94.4,1.42.58,5.65,2.16,12.89,3.36,20.48,3.36,7.11,0,13.83-1.04,19.27-2.92.92-.32,1.8-.66,2.64-1.02-.18,4.72-1.89,8.07-4.34,10.43-5.05,4.85-13.21,5.56-17.56,5.56s-12.38-.7-17.43-5.44M433.89,168.52c-.07-.23-.15-.45-.22-.67-.15-.43-.31-.86-.48-1.29l5.61-1.86.75,3.65-5.57.47c-.03-.1-.06-.21-.09-.31"/>
        <path class="cls-45" d="M411.2,154.24c-7.68.55-14.36,4.49-18.37,10.25,4.56,1.51,10.36,2.35,16.51,2.35,6.95,0,13.45-1.07,18.21-2.96-3.61-5.38-9.55-9.07-16.35-9.64"/>
        <path class="cls-45" d="M426.9,187.31c-3.73,2.8-9.02,4.08-14.87,4.08-.92,0-1.83-.04-2.72-.1,9.66-.66,17.42-4.78,19.3-13.39-5.44,1.88-12.15,2.92-19.27,2.92-7.59,0-14.83-1.21-20.48-3.36.06,3.9,1.16,7.23,3.05,9.98,5.05,4.73,13.11,5.43,17.43,5.43s12.52-.72,17.56-5.56"/>
        <path class="cls-40" d="M387.43,176.88c.18,4.8,1.95,8.19,4.48,10.56-1.89-2.75-2.99-6.08-3.05-9.98-.49-.19-.96-.38-1.42-.58"/>
        <path class="cls-40" d="M411.2,154.24c-.61-.05-1.23-.08-1.86-.08-7.58,0-14.27,3.86-18.21,9.72.55.22,1.11.42,1.71.62,4.01-5.76,10.69-9.7,18.37-10.25"/>
        <path class="cls-47" d="M409.3,191.29c.89.06,1.8.1,2.72.1,5.86,0,11.14-1.28,14.87-4.08,2.46-2.36,4.17-5.71,4.34-10.43-.84.36-1.72.71-2.64,1.02-1.88,8.6-9.64,12.73-19.3,13.39"/>
        <path class="cls-27" d="M427.67,166.7c-4.98,1.81-11.47,2.83-18.33,2.83s-12.91-.95-17.83-2.65c-.76,1.33-1.88,3.87-2.44,7.77,5.43,2.23,12.64,3.48,20.27,3.48s14.37-1.2,19.73-3.27c.1-1.71-.03-4.61-1.39-8.16M400.82,175.88c-2.34,0-4.24-2.62-4.24-5.84,0-.22.01-.43.03-.64,1.85.87,4.91,2.18,8.1,3.01-.66,2.04-2.15,3.47-3.88,3.47M417.86,175.88c-1.73,0-3.22-1.43-3.88-3.47,3.18-.83,6.24-2.14,8.09-3.01.02.21.03.42.03.64,0,3.23-1.9,5.84-4.24,5.84"/>
        <path class="cls-62" d="M389.76,166.22c-1.2,2.37-1.98,4.98-2.25,7.75.5.24,1.02.47,1.56.69.56-3.9,1.68-6.44,2.44-7.77-.61-.21-1.19-.43-1.75-.66"/>
        <path class="cls-32" d="M428.91,166.22c-.4.17-.82.33-1.24.48,1.36,3.55,1.49,6.45,1.39,8.16.73-.28,1.43-.59,2.1-.9-.27-2.76-1.05-5.37-2.25-7.74"/>
        <path class="cls-33" d="M396.57,170.04c0,3.23,1.9,5.84,4.24,5.84,1.73,0,3.21-1.43,3.88-3.47-3.18-.83-6.24-2.14-8.09-3.01-.02.21-.03.42-.03.64"/>
        <path class="cls-33" d="M422.07,169.4c-1.85.87-4.91,2.18-8.09,3.01.66,2.04,2.15,3.47,3.88,3.47,2.34,0,4.24-2.62,4.24-5.84,0-.22-.01-.43-.03-.64"/>
        <path class="cls-38" d="M136.2,160.95c.26.36.52.73.76,1.1l3.79-2.69-.03-1.35,1.41,1.74-4.81,2.86c.05.09.11.17.16.26l5.3-3.03-2.22-3-4.37,4.1Z"/>
        <path class="cls-38" d="M144.92,164.7l-5.61,1.86c.17.42.33.85.48,1.29l4.4-.78.58-1.26.04.19.4,1.92-5.19.6c.03.1.06.2.09.31l5.57-.47-.75-3.65Z"/>
        <path class="cls-26" d="M140.73,158.02l.03,1.35-3.79,2.69c.12.18.24.37.36.56l4.81-2.86-1.41-1.74Z"/>
        <path class="cls-26" d="M144.81,166l-.04-.19-.58,1.26-4.4.78c.08.22.15.45.22.67l5.19-.61-.4-1.91Z"/>
        <path class="cls-33" d="M146.54,161.9l-7.19,2.38,6.6-3.77-5.09-6.89-6.01,5.64c-4.71-5.43-11.66-8.87-19.4-8.87-14.17,0-25.69,11.52-25.69,25.68,0,12.87,9.6,20.55,25.69,20.55s25.69-7.68,25.69-20.55c0-1.76-.18-3.48-.52-5.14l7.63-.64-1.72-8.39ZM135.19,174.86c-5.36,2.08-12.41,3.27-19.73,3.27s-14.84-1.26-20.27-3.48c-.54-.22-1.06-.45-1.56-.69.27-2.76,1.05-5.38,2.25-7.75.56.23,1.14.46,1.75.66,4.92,1.7,11.21,2.65,17.83,2.65s13.35-1.02,18.33-2.83c.43-.16.84-.32,1.24-.48,1.2,2.37,1.98,4.98,2.25,7.74-.67.32-1.37.62-2.1.9M137.49,162.87c-.05-.09-.11-.17-.16-.26-.12-.19-.24-.37-.36-.56-.24-.38-.5-.74-.76-1.11l4.37-4.1,2.22,3-5.31,3.03ZM133.67,163.88c-4.76,1.89-11.26,2.96-18.21,2.96-6.15,0-11.95-.84-16.51-2.35-.59-.2-1.16-.4-1.7-.62,3.94-5.86,10.63-9.72,18.21-9.72.63,0,1.25.03,1.86.09,6.81.57,12.74,4.26,16.35,9.64M98.03,187.44c-2.53-2.37-4.3-5.75-4.48-10.56.46.2.94.4,1.42.58,5.65,2.16,12.89,3.36,20.48,3.36,7.11,0,13.83-1.04,19.27-2.92.92-.32,1.8-.66,2.64-1.02-.18,4.72-1.89,8.07-4.35,10.43-5.05,4.85-13.21,5.56-17.56,5.56s-12.38-.7-17.43-5.44M140.01,168.52c-.07-.23-.15-.45-.22-.67-.15-.43-.31-.86-.48-1.29l5.61-1.86.75,3.65-5.57.47c-.03-.1-.06-.21-.09-.31"/>
        <path class="cls-38" d="M117.32,154.24c-7.68.55-14.36,4.49-18.37,10.25,4.56,1.51,10.36,2.35,16.51,2.35,6.95,0,13.45-1.07,18.21-2.96-3.62-5.38-9.55-9.07-16.35-9.64"/>
        <path class="cls-38" d="M133.02,187.31c-3.73,2.8-9.02,4.08-14.87,4.08-.92,0-1.83-.04-2.72-.1,9.66-.66,17.42-4.78,19.3-13.39-5.44,1.88-12.15,2.92-19.27,2.92-7.6,0-14.83-1.21-20.48-3.36.07,3.9,1.16,7.23,3.05,9.98,5.05,4.73,13.11,5.43,17.43,5.43s12.51-.72,17.56-5.56"/>
        <path class="cls-23" d="M93.56,176.88c.18,4.8,1.95,8.19,4.48,10.56-1.89-2.75-2.99-6.08-3.05-9.98-.49-.19-.96-.38-1.42-.58"/>
        <path class="cls-23" d="M117.32,154.24c-.61-.05-1.23-.08-1.86-.08-7.58,0-14.27,3.86-18.21,9.72.55.22,1.12.42,1.71.62,4.01-5.76,10.69-9.7,18.37-10.25"/>
        <path class="cls-26" d="M115.43,191.29c.89.06,1.8.1,2.72.1,5.86,0,11.14-1.28,14.87-4.08,2.46-2.36,4.17-5.71,4.34-10.43-.84.36-1.72.71-2.64,1.02-1.88,8.6-9.64,12.73-19.3,13.39"/>
        <path class="cls-27" d="M133.8,166.7c-4.98,1.81-11.47,2.83-18.34,2.83s-12.91-.95-17.83-2.65c-.76,1.33-1.88,3.87-2.44,7.77,5.43,2.23,12.64,3.48,20.27,3.48s14.37-1.2,19.73-3.27c.1-1.71-.03-4.61-1.39-8.16M106.94,175.88c-2.34,0-4.24-2.62-4.24-5.84,0-.22,0-.43.03-.64,1.85.87,4.91,2.18,8.09,3.01-.66,2.04-2.15,3.47-3.88,3.47M123.98,175.88c-1.73,0-3.22-1.43-3.88-3.47,3.18-.83,6.24-2.14,8.1-3.01.02.21.03.42.03.64,0,3.23-1.9,5.84-4.24,5.84"/>
        <path class="cls-62" d="M95.88,166.22c-1.2,2.37-1.98,4.98-2.25,7.75.5.24,1.02.47,1.56.69.56-3.9,1.68-6.44,2.44-7.77-.61-.21-1.19-.43-1.75-.66"/>
        <path class="cls-32" d="M135.04,166.22c-.4.17-.82.33-1.24.48,1.36,3.55,1.5,6.45,1.39,8.16.73-.28,1.43-.59,2.1-.9-.27-2.76-1.05-5.37-2.25-7.74"/>
        <path class="cls-33" d="M102.7,170.04c0,3.23,1.9,5.84,4.24,5.84,1.73,0,3.22-1.43,3.88-3.47-3.18-.83-6.24-2.14-8.09-3.01-.02.21-.03.42-.03.64"/>
        <path class="cls-33" d="M128.2,169.4c-1.85.87-4.91,2.18-8.09,3.01.66,2.04,2.15,3.47,3.88,3.47,2.34,0,4.24-2.62,4.24-5.84,0-.22,0-.43-.03-.64"/>
        <path class="cls-31" d="M237.46,161.48c.26.36.51.72.75,1.09l3.73-2.65-.03-1.33,1.39,1.71-4.74,2.82c.05.09.11.17.16.26l5.23-2.98-2.18-2.96-4.31,4.04Z"/>
        <path class="cls-31" d="M246.04,165.17l-5.52,1.83c.17.42.32.84.47,1.27l4.34-.77.57-1.24.04.19.4,1.89-5.12.6c.03.1.06.2.09.3l5.48-.46-.74-3.6Z"/>
        <path class="cls-37" d="M241.92,158.59l.03,1.33-3.73,2.65c.12.18.24.36.35.55l4.74-2.82-1.39-1.71Z"/>
        <path class="cls-37" d="M245.93,166.45l-.04-.18-.57,1.24-4.34.77c.08.22.15.44.22.66l5.12-.59-.4-1.89Z"/>
        <path class="cls-33" d="M247.64,162.41l-7.08,2.35,6.51-3.71-5.01-6.79-5.92,5.56c-4.64-5.35-11.49-8.74-19.11-8.74-13.96,0-25.31,11.35-25.31,25.3,0,12.68,9.46,20.25,25.31,20.25s25.31-7.57,25.31-20.25c0-1.73-.18-3.43-.51-5.07l7.51-.63-1.69-8.27ZM236.45,175.18c-5.28,2.05-12.22,3.22-19.43,3.22s-14.62-1.24-19.97-3.43c-.53-.22-1.04-.44-1.54-.68.26-2.72,1.03-5.3,2.22-7.63.55.23,1.12.45,1.72.65,4.84,1.67,11.04,2.61,17.57,2.61s13.15-1,18.06-2.78c.42-.15.83-.31,1.22-.48,1.18,2.33,1.95,4.91,2.22,7.63-.66.31-1.35.61-2.07.89M238.72,163.37c-.05-.08-.1-.17-.16-.26-.11-.18-.23-.37-.35-.55-.24-.37-.49-.73-.75-1.09l4.31-4.04,2.18,2.96-5.23,2.98ZM234.96,164.36c-4.69,1.87-11.09,2.92-17.94,2.92-6.05,0-11.77-.83-16.26-2.31-.58-.19-1.14-.39-1.68-.61,3.88-5.77,10.48-9.58,17.94-9.58.62,0,1.23.03,1.83.08,6.71.57,12.55,4.2,16.11,9.5M199.85,187.57c-2.49-2.33-4.23-5.67-4.41-10.4.46.2.92.39,1.4.57,5.57,2.13,12.7,3.32,20.18,3.32,7.01,0,13.62-1.03,18.98-2.88.9-.31,1.77-.65,2.6-1.01-.17,4.65-1.86,7.95-4.28,10.28-4.97,4.77-13.01,5.48-17.3,5.48s-12.19-.69-17.17-5.35M241.21,168.93c-.07-.22-.15-.44-.22-.66-.15-.43-.3-.85-.47-1.27l5.52-1.83.74,3.6-5.49.46c-.03-.1-.05-.2-.09-.3"/>
        <path class="cls-21" d="M218.85,154.87c-7.57.54-14.15,4.43-18.1,10.1,4.49,1.48,10.21,2.31,16.26,2.31,6.85,0,13.25-1.05,17.94-2.92-3.56-5.3-9.41-8.93-16.11-9.5"/>
        <path class="cls-21" d="M234.32,187.45c-3.68,2.76-8.88,4.02-14.65,4.02-.91,0-1.8-.04-2.68-.1,9.52-.65,17.16-4.71,19.01-13.19-5.36,1.85-11.97,2.88-18.98,2.88-7.48,0-14.61-1.19-20.18-3.31.06,3.84,1.15,7.13,3.01,9.83,4.98,4.66,12.92,5.35,17.17,5.35s12.33-.71,17.3-5.48"/>
        <path class="cls-39" d="M195.44,177.17c.18,4.73,1.92,8.07,4.41,10.4-1.86-2.71-2.94-5.99-3.01-9.83-.48-.18-.95-.38-1.4-.57"/>
        <path class="cls-39" d="M218.85,154.87c-.6-.05-1.22-.08-1.83-.08-7.47,0-14.06,3.81-17.94,9.58.54.21,1.1.41,1.68.61,3.95-5.67,10.53-9.56,18.1-10.1"/>
        <path class="cls-37" d="M216.99,191.37c.88.06,1.77.1,2.68.1,5.77,0,10.97-1.26,14.65-4.02,2.42-2.33,4.11-5.63,4.28-10.28-.83.36-1.7.7-2.6,1.01-1.85,8.48-9.49,12.54-19.01,13.19"/>
        <path class="cls-27" d="M235.08,167.14c-4.91,1.78-11.3,2.79-18.07,2.79s-12.72-.93-17.57-2.61c-.75,1.32-1.85,3.81-2.4,7.66,5.35,2.2,12.45,3.43,19.97,3.43s14.16-1.18,19.44-3.22c.1-1.68-.03-4.54-1.37-8.04M208.62,176.19c-2.31,0-4.18-2.58-4.18-5.76,0-.21,0-.42.03-.63,1.83.86,4.84,2.15,7.98,2.97-.65,2.01-2.11,3.42-3.82,3.42M225.41,176.19c-1.71,0-3.17-1.41-3.82-3.42,3.14-.82,6.15-2.11,7.97-2.97.02.21.03.42.03.63,0,3.18-1.87,5.76-4.18,5.76"/>
        <path class="cls-62" d="M197.73,166.67c-1.18,2.34-1.95,4.91-2.22,7.63.49.24,1.01.46,1.54.68.55-3.85,1.66-6.34,2.4-7.66-.6-.21-1.17-.43-1.72-.65"/>
        <path class="cls-32" d="M236.31,166.67c-.4.16-.8.32-1.22.47,1.34,3.5,1.47,6.36,1.37,8.04.72-.28,1.41-.58,2.07-.89-.26-2.72-1.03-5.29-2.22-7.63"/>
        <path class="cls-33" d="M204.44,170.43c0,3.18,1.87,5.76,4.18,5.76,1.7,0,3.17-1.41,3.82-3.42-3.14-.82-6.15-2.11-7.97-2.97-.02.21-.03.42-.03.63"/>
        <path class="cls-33" d="M229.57,169.8c-1.83.86-4.84,2.15-7.97,2.97.65,2.01,2.11,3.42,3.82,3.42,2.31,0,4.18-2.58,4.18-5.76,0-.21-.01-.42-.03-.63"/>
        <path class="cls-31" d="M195.12,118.85c.26.36.51.72.75,1.09l3.73-2.65-.03-1.33,1.39,1.71-4.74,2.82c.05.09.11.17.16.26l5.23-2.98-2.18-2.96-4.31,4.04Z"/>
        <path class="cls-31" d="M203.71,122.55l-5.52,1.83c.17.42.32.84.47,1.27l4.34-.77.57-1.24.04.19.4,1.89-5.12.6c.03.1.06.2.09.3l5.48-.46-.74-3.6Z"/>
        <path class="cls-37" d="M199.58,115.96l.03,1.33-3.73,2.65c.12.18.24.36.35.55l4.74-2.82-1.39-1.71Z"/>
        <path class="cls-37" d="M203.59,123.82l-.04-.18-.57,1.24-4.34.77c.07.22.15.44.22.66l5.12-.59-.4-1.89Z"/>
        <path class="cls-33" d="M205.3,119.79l-7.08,2.35,6.51-3.71-5.01-6.79-5.92,5.56c-4.64-5.35-11.49-8.74-19.11-8.74-13.96,0-25.31,11.35-25.31,25.3,0,12.68,9.46,20.25,25.31,20.25s25.31-7.57,25.31-20.25c0-1.73-.18-3.43-.51-5.07l7.51-.63-1.69-8.27ZM194.12,132.56c-5.28,2.05-12.22,3.23-19.43,3.23s-14.62-1.24-19.97-3.43c-.53-.22-1.04-.44-1.54-.68.26-2.72,1.03-5.3,2.22-7.63.55.23,1.13.45,1.72.65,4.84,1.67,11.04,2.61,17.57,2.61s13.15-1,18.06-2.78c.42-.15.83-.31,1.22-.48,1.18,2.33,1.95,4.91,2.22,7.63-.66.31-1.35.61-2.07.89M196.38,120.75c-.05-.09-.1-.17-.16-.26-.11-.18-.23-.37-.35-.55-.24-.37-.49-.73-.75-1.09l4.31-4.04,2.18,2.96-5.23,2.98ZM192.63,121.74c-4.69,1.87-11.09,2.92-17.94,2.92-6.05,0-11.77-.83-16.26-2.31-.58-.19-1.14-.39-1.68-.61,3.88-5.77,10.48-9.58,17.94-9.58.62,0,1.23.03,1.83.08,6.71.57,12.55,4.2,16.11,9.5M157.51,144.95c-2.49-2.33-4.23-5.67-4.41-10.4.46.2.92.39,1.4.57,5.57,2.13,12.7,3.32,20.18,3.32,7.01,0,13.62-1.03,18.98-2.88.9-.31,1.77-.65,2.6-1.01-.17,4.65-1.86,7.95-4.28,10.28-4.97,4.77-13.01,5.48-17.3,5.48s-12.19-.69-17.17-5.35M198.87,126.31c-.07-.22-.15-.44-.22-.66-.15-.43-.3-.85-.47-1.27l5.52-1.83.74,3.6-5.49.46c-.03-.1-.05-.2-.09-.3"/>
        <path class="cls-21" d="M176.51,112.24c-7.57.54-14.15,4.43-18.1,10.1,4.49,1.48,10.21,2.31,16.26,2.31,6.85,0,13.25-1.05,17.95-2.92-3.56-5.3-9.41-8.93-16.11-9.5"/>
        <path class="cls-21" d="M191.98,144.82c-3.68,2.76-8.88,4.02-14.65,4.02-.91,0-1.8-.04-2.68-.1,9.52-.65,17.16-4.71,19.01-13.19-5.36,1.85-11.97,2.88-18.98,2.88-7.48,0-14.61-1.19-20.18-3.31.06,3.84,1.15,7.13,3.01,9.83,4.98,4.66,12.92,5.35,17.17,5.35s12.33-.71,17.3-5.48"/>
        <path class="cls-39" d="M153.1,134.54c.18,4.73,1.92,8.07,4.41,10.4-1.86-2.71-2.94-5.99-3.01-9.83-.48-.18-.95-.38-1.4-.57"/>
        <path class="cls-39" d="M176.51,112.24c-.6-.05-1.22-.08-1.83-.08-7.47,0-14.06,3.81-17.94,9.58.54.21,1.1.41,1.68.61,3.95-5.67,10.53-9.56,18.1-10.1"/>
        <path class="cls-37" d="M174.65,148.74c.88.06,1.77.1,2.68.1,5.77,0,10.97-1.26,14.65-4.02,2.42-2.33,4.11-5.63,4.28-10.28-.83.36-1.7.7-2.6,1.01-1.85,8.48-9.49,12.54-19.01,13.19"/>
        <path class="cls-27" d="M192.75,124.52c-4.91,1.78-11.3,2.79-18.07,2.79s-12.72-.93-17.57-2.61c-.74,1.32-1.85,3.81-2.4,7.66,5.35,2.2,12.45,3.43,19.97,3.43s14.16-1.18,19.44-3.22c.1-1.68-.03-4.54-1.37-8.04M166.29,133.56c-2.31,0-4.18-2.58-4.18-5.76,0-.21.01-.42.03-.63,1.83.86,4.84,2.15,7.98,2.97-.65,2.01-2.11,3.42-3.82,3.42M183.08,133.56c-1.71,0-3.17-1.41-3.82-3.42,3.14-.82,6.15-2.11,7.97-2.97.02.21.03.42.03.63,0,3.18-1.87,5.76-4.18,5.76"/>
        <path class="cls-62" d="M155.39,124.04c-1.18,2.34-1.95,4.91-2.22,7.63.49.24,1.01.46,1.54.68.55-3.85,1.66-6.34,2.4-7.66-.6-.21-1.17-.43-1.72-.65"/>
        <path class="cls-32" d="M193.97,124.04c-.4.16-.8.32-1.22.47,1.34,3.5,1.47,6.36,1.37,8.04.72-.28,1.41-.58,2.07-.89-.26-2.72-1.03-5.29-2.22-7.63"/>
        <path class="cls-33" d="M162.11,127.81c0,3.18,1.87,5.76,4.18,5.76,1.7,0,3.17-1.41,3.82-3.42-3.14-.82-6.15-2.11-7.97-2.97-.02.21-.03.42-.03.63"/>
        <path class="cls-33" d="M187.23,127.18c-1.83.86-4.84,2.15-7.97,2.97.65,2.01,2.11,3.42,3.82,3.42,2.31,0,4.18-2.58,4.18-5.76,0-.21-.01-.42-.03-.63"/>
        <path class="cls-31" d="M178.03,209.78c.26.36.51.72.75,1.09l3.73-2.65-.03-1.33,1.39,1.71-4.74,2.82c.05.09.11.17.16.26l5.23-2.98-2.18-2.96-4.31,4.04Z"/>
        <path class="cls-31" d="M186.62,213.48l-5.52,1.83c.17.42.32.84.47,1.27l4.34-.77.57-1.24.04.19.4,1.89-5.12.6c.03.1.06.2.09.3l5.48-.46-.74-3.6Z"/>
        <path class="cls-37" d="M182.49,206.89l.03,1.33-3.73,2.65c.12.18.24.36.35.55l4.74-2.82-1.39-1.71Z"/>
        <path class="cls-37" d="M186.51,214.76l-.04-.18-.57,1.24-4.34.77c.08.22.15.44.22.66l5.12-.59-.4-1.89Z"/>
        <path class="cls-33" d="M188.22,210.72l-7.08,2.35,6.51-3.71-5.01-6.79-5.92,5.56c-4.64-5.35-11.49-8.74-19.11-8.74-13.96,0-25.31,11.35-25.31,25.3,0,12.68,9.46,20.25,25.31,20.25s25.31-7.57,25.31-20.25c0-1.73-.18-3.43-.51-5.07l7.51-.63-1.69-8.27ZM177.03,223.49c-5.28,2.05-12.22,3.23-19.43,3.23s-14.62-1.24-19.97-3.43c-.53-.22-1.04-.44-1.54-.68.26-2.72,1.03-5.3,2.22-7.63.55.23,1.12.45,1.72.65,4.84,1.67,11.04,2.61,17.57,2.61s13.15-1,18.06-2.78c.42-.15.83-.31,1.22-.48,1.18,2.33,1.95,4.91,2.22,7.63-.66.31-1.35.61-2.07.89M179.3,211.68c-.05-.09-.1-.17-.16-.26-.11-.18-.23-.37-.35-.55-.24-.37-.49-.73-.75-1.09l4.31-4.04,2.18,2.96-5.23,2.98ZM175.54,212.67c-4.69,1.87-11.09,2.92-17.94,2.92-6.05,0-11.77-.83-16.26-2.31-.58-.19-1.14-.39-1.68-.61,3.88-5.77,10.48-9.58,17.94-9.58.62,0,1.23.03,1.83.08,6.71.57,12.55,4.2,16.11,9.5M140.42,235.88c-2.49-2.33-4.23-5.67-4.41-10.4.46.2.92.39,1.4.57,5.57,2.13,12.7,3.32,20.18,3.32,7.01,0,13.62-1.03,18.98-2.88.9-.31,1.77-.65,2.6-1.01-.17,4.65-1.86,7.95-4.28,10.28-4.97,4.77-13.01,5.48-17.3,5.48s-12.19-.69-17.17-5.35M181.79,217.24c-.07-.22-.15-.44-.22-.66-.15-.43-.3-.85-.47-1.27l5.52-1.83.74,3.6-5.49.46c-.03-.1-.05-.2-.09-.3"/>
        <path class="cls-21" d="M159.43,203.17c-7.57.54-14.15,4.43-18.1,10.1,4.49,1.48,10.21,2.31,16.26,2.31,6.85,0,13.25-1.05,17.94-2.92-3.56-5.3-9.41-8.93-16.11-9.5"/>
        <path class="cls-21" d="M174.9,235.75c-3.68,2.76-8.88,4.02-14.65,4.02-.91,0-1.8-.04-2.68-.1,9.52-.65,17.16-4.71,19.01-13.19-5.36,1.85-11.97,2.88-18.98,2.88-7.48,0-14.61-1.19-20.18-3.31.06,3.84,1.15,7.13,3.01,9.83,4.98,4.66,12.92,5.35,17.17,5.35s12.33-.71,17.3-5.48"/>
        <path class="cls-39" d="M136.01,225.47c.18,4.73,1.92,8.07,4.41,10.4-1.86-2.71-2.94-5.99-3.01-9.83-.48-.18-.95-.38-1.4-.57"/>
        <path class="cls-39" d="M159.43,203.17c-.6-.05-1.22-.08-1.83-.08-7.47,0-14.06,3.81-17.94,9.58.54.21,1.1.41,1.68.61,3.95-5.67,10.53-9.56,18.1-10.1"/>
        <path class="cls-37" d="M157.57,239.67c.88.06,1.77.1,2.68.1,5.77,0,10.97-1.26,14.65-4.02,2.42-2.33,4.11-5.63,4.28-10.28-.83.36-1.7.7-2.6,1.01-1.85,8.48-9.49,12.54-19.01,13.19"/>
        <path class="cls-27" d="M175.66,215.45c-4.91,1.78-11.3,2.79-18.07,2.79s-12.72-.93-17.57-2.61c-.75,1.32-1.85,3.81-2.4,7.66,5.35,2.2,12.45,3.43,19.97,3.43s14.16-1.18,19.44-3.22c.1-1.68-.03-4.54-1.37-8.04M149.2,224.5c-2.31,0-4.18-2.58-4.18-5.76,0-.21,0-.42.03-.63,1.83.86,4.84,2.15,7.97,2.97-.65,2.01-2.11,3.42-3.82,3.42M165.99,224.5c-1.71,0-3.17-1.41-3.82-3.42,3.14-.82,6.15-2.11,7.97-2.97.02.21.03.42.03.63,0,3.18-1.87,5.76-4.18,5.76"/>
        <path class="cls-62" d="M138.31,214.97c-1.18,2.34-1.95,4.91-2.22,7.63.49.24,1.01.46,1.54.68.55-3.85,1.66-6.34,2.4-7.66-.6-.21-1.17-.43-1.72-.65"/>
        <path class="cls-32" d="M176.89,214.97c-.4.16-.8.32-1.22.47,1.34,3.5,1.47,6.36,1.37,8.04.72-.28,1.41-.58,2.07-.89-.26-2.72-1.03-5.29-2.22-7.63"/>
        <path class="cls-33" d="M145.02,218.74c0,3.18,1.87,5.76,4.18,5.76,1.7,0,3.17-1.41,3.82-3.42-3.14-.82-6.15-2.11-7.97-2.97-.02.21-.03.42-.03.63"/>
        <path class="cls-33" d="M170.15,218.11c-1.83.86-4.84,2.15-7.97,2.97.65,2.01,2.11,3.42,3.82,3.42,2.31,0,4.18-2.58,4.18-5.76,0-.21-.01-.42-.03-.63"/>
      </g>
      <g>
        <path class="cls-22" d="M329.05,160.95c.26.36.52.73.76,1.1l3.79-2.69-.03-1.35,1.41,1.74-4.81,2.86c.05.09.11.17.16.26l5.31-3.03-2.22-3-4.37,4.1Z"/>
        <path class="cls-22" d="M337.76,164.7l-5.61,1.86c.17.42.33.85.48,1.29l4.4-.78.58-1.26.04.19.4,1.92-5.19.6c.03.1.06.2.09.31l5.57-.47-.75-3.65Z"/>
        <path class="cls-43" d="M333.57,158.02l.03,1.35-3.79,2.69c.12.18.24.37.36.56l4.81-2.86-1.41-1.74Z"/>
        <path class="cls-43" d="M337.65,166l-.04-.19-.58,1.26-4.4.78c.07.22.15.45.22.67l5.19-.61-.4-1.91Z"/>
        <path class="cls-33" d="M339.38,161.9l-7.19,2.38,6.6-3.77-5.09-6.89-6.01,5.64c-4.71-5.43-11.66-8.87-19.4-8.87-14.17,0-25.69,11.52-25.69,25.68,0,12.87,9.6,20.55,25.69,20.55s25.69-7.68,25.69-20.55c0-1.76-.18-3.48-.52-5.14l7.63-.64-1.72-8.39ZM328.03,174.86c-5.36,2.08-12.4,3.27-19.73,3.27s-14.84-1.26-20.27-3.48c-.54-.22-1.06-.45-1.56-.69.27-2.76,1.05-5.38,2.25-7.75.56.23,1.14.46,1.75.66,4.92,1.7,11.21,2.65,17.83,2.65s13.35-1.02,18.33-2.83c.43-.16.84-.32,1.24-.48,1.2,2.37,1.98,4.98,2.25,7.74-.67.32-1.37.62-2.1.9M330.33,162.87c-.05-.09-.11-.17-.16-.26-.12-.19-.24-.37-.36-.56-.24-.38-.5-.74-.76-1.11l4.37-4.1,2.22,3-5.31,3.03ZM326.52,163.88c-4.76,1.89-11.26,2.96-18.21,2.96-6.15,0-11.95-.84-16.51-2.35-.59-.2-1.16-.4-1.7-.62,3.94-5.86,10.63-9.72,18.21-9.72.63,0,1.25.03,1.86.09,6.81.57,12.74,4.26,16.35,9.64M290.87,187.44c-2.53-2.37-4.3-5.75-4.48-10.56.46.2.94.4,1.42.58,5.65,2.16,12.89,3.36,20.48,3.36,7.11,0,13.83-1.04,19.27-2.92.92-.32,1.8-.66,2.64-1.02-.18,4.72-1.89,8.07-4.34,10.43-5.05,4.85-13.21,5.56-17.56,5.56s-12.38-.7-17.43-5.44M332.86,168.52c-.07-.23-.15-.45-.22-.67-.15-.43-.31-.86-.48-1.29l5.61-1.86.75,3.65-5.57.47c-.03-.1-.06-.21-.09-.31"/>
        <path class="cls-22" d="M310.16,154.24c-7.68.55-14.36,4.49-18.37,10.25,4.56,1.51,10.36,2.35,16.51,2.35,6.95,0,13.45-1.07,18.21-2.96-3.61-5.38-9.55-9.07-16.35-9.64"/>
        <path class="cls-22" d="M325.86,187.31c-3.73,2.8-9.02,4.08-14.87,4.08-.92,0-1.83-.04-2.72-.1,9.66-.66,17.42-4.78,19.3-13.39-5.44,1.88-12.15,2.92-19.27,2.92-7.59,0-14.83-1.21-20.48-3.36.06,3.9,1.16,7.23,3.05,9.98,5.05,4.73,13.11,5.43,17.43,5.43s12.52-.72,17.56-5.56"/>
        <path class="cls-35" d="M286.4,176.88c.18,4.8,1.95,8.19,4.48,10.56-1.89-2.75-2.99-6.08-3.05-9.98-.49-.19-.96-.38-1.42-.58"/>
        <path class="cls-35" d="M310.16,154.24c-.61-.05-1.23-.08-1.86-.08-7.58,0-14.27,3.86-18.21,9.72.55.22,1.11.42,1.71.62,4.01-5.76,10.69-9.7,18.37-10.25"/>
        <path class="cls-43" d="M308.27,191.29c.89.06,1.8.1,2.72.1,5.86,0,11.14-1.28,14.87-4.08,2.46-2.36,4.17-5.71,4.34-10.43-.84.36-1.72.71-2.64,1.02-1.88,8.6-9.64,12.73-19.3,13.39"/>
        <path class="cls-27" d="M326.64,166.7c-4.98,1.81-11.47,2.83-18.34,2.83s-12.91-.95-17.83-2.65c-.76,1.33-1.88,3.87-2.44,7.77,5.43,2.23,12.64,3.48,20.27,3.48s14.37-1.2,19.73-3.27c.1-1.71-.03-4.61-1.39-8.16M299.78,175.88c-2.34,0-4.24-2.62-4.24-5.84,0-.22.01-.43.03-.64,1.85.87,4.91,2.18,8.1,3.01-.66,2.04-2.15,3.47-3.88,3.47M316.82,175.88c-1.73,0-3.22-1.43-3.88-3.47,3.18-.83,6.24-2.14,8.09-3.01.02.21.03.42.03.64,0,3.23-1.9,5.84-4.24,5.84"/>
        <path class="cls-62" d="M288.73,166.22c-1.2,2.37-1.98,4.98-2.25,7.75.5.24,1.02.47,1.56.69.56-3.9,1.68-6.44,2.44-7.77-.61-.21-1.19-.43-1.75-.66"/>
        <path class="cls-32" d="M327.88,166.22c-.4.17-.82.33-1.24.48,1.36,3.55,1.5,6.45,1.39,8.16.73-.28,1.43-.59,2.1-.9-.27-2.76-1.05-5.37-2.25-7.74"/>
        <path class="cls-33" d="M295.54,170.04c0,3.23,1.9,5.84,4.24,5.84,1.73,0,3.21-1.43,3.88-3.47-3.18-.83-6.24-2.14-8.09-3.01-.02.21-.03.42-.03.64"/>
        <path class="cls-33" d="M321.04,169.4c-1.85.87-4.91,2.18-8.09,3.01.66,2.04,2.15,3.47,3.88,3.47,2.34,0,4.24-2.62,4.24-5.84,0-.22-.01-.43-.03-.64"/>
      </g>
    </g>
  </g>
</svg>