<?xml version="1.0" encoding="UTF-8"?>
<svg id="_レイヤー_2" data-name="レイヤー 2" xmlns="http://www.w3.org/2000/svg" viewBox="0 0 532.87 755.39">
  <defs>
    <style>
      .cls-1 {
        letter-spacing: 0em;
      }

      .cls-2, .cls-3, .cls-4, .cls-5, .cls-6, .cls-7, .cls-8, .cls-9, .cls-10, .cls-11 {
        fill: none;
        stroke-miterlimit: 10;
      }

      .cls-2, .cls-6, .cls-7, .cls-9, .cls-10 {
        stroke: #2e2e2e;
      }

      .cls-12 {
        fill: #727171;
      }

      .cls-13 {
        font-size: 26px;
      }

      .cls-13, .cls-14, .cls-15, .cls-16, .cls-17, .cls-18, .cls-19, .cls-20, .cls-21, .cls-22, .cls-23, .cls-24, .cls-25, .cls-26, .cls-27, .cls-28, .cls-29, .cls-30, .cls-31, .cls-32, .cls-33 {
        font-family: MOBO-Bold-83pv-RKSJ-H, MOBO-Bold;
        font-weight: 700;
      }

      .cls-13, .cls-34, .cls-22, .cls-24, .cls-27, .cls-29 {
        fill: #d03f26;
      }

      .cls-14 {
        font-size: 24px;
      }

      .cls-14, .cls-15, .cls-17, .cls-20, .cls-21, .cls-25, .cls-28, .cls-30, .cls-31, .cls-35, .cls-32 {
        fill: #2e2e2e;
      }

      .cls-36 {
        fill: #faee00;
      }

      .cls-15 {
        font-size: 11.73px;
      }

      .cls-16, .cls-18 {
        font-size: 14px;
      }

      .cls-16, .cls-23, .cls-33 {
        fill: #fefdfa;
      }

      .cls-3 {
        stroke-dasharray: 1.84 2.76;
      }

      .cls-3, .cls-4, .cls-5 {
        stroke: #000;
        stroke-linecap: round;
      }

      .cls-37 {
        fill: #efefef;
      }

      .cls-17 {
        font-size: 10px;
      }

      .cls-4 {
        stroke-dasharray: 1.88 2.82;
      }

      .cls-38 {
        fill: #956134;
      }

      .cls-19 {
        font-size: 14px;
      }

      .cls-39 {
        fill: #facfa8;
      }

      .cls-40 {
        letter-spacing: .25em;
      }

      .cls-41 {
        letter-spacing: .25em;
      }

      .cls-42 {
        letter-spacing: .25em;
      }

      .cls-43 {
        letter-spacing: .25em;
      }

      .cls-44 {
        letter-spacing: .25em;
      }

      .cls-45 {
        letter-spacing: .25em;
      }

      .cls-6 {
        stroke-width: .75px;
      }

      .cls-46 {
        fill: #f7f8f8;
      }

      .cls-20 {
        font-size: 13.78px;
      }

      .cls-7 {
        stroke-width: 2px;
      }

      .cls-21, .cls-26 {
        font-size: 12px;
      }

      .cls-47 {
        fill: #898989;
      }

      .cls-48 {
        fill: #e18073;
      }

      .cls-49 {
        fill: #3e3a39;
      }

      .cls-22 {
        font-size: 90px;
      }

      .cls-50 {
        fill: #c9caca;
      }

      .cls-23 {
        font-size: 11px;
      }

      .cls-8 {
        stroke: #040000;
      }

      .cls-51 {
        fill: #fff;
      }

      .cls-52 {
        fill: #dcdddd;
      }

      .cls-24 {
        font-size: 47.96px;
      }

      .cls-25 {
        font-size: 15px;
      }

      .cls-53 {
        fill: #595757;
      }

      .cls-27 {
        font-size: 18.77px;
      }

      .cls-28 {
        font-size: 16px;
      }

      .cls-29, .cls-31 {
        font-size: 39px;
      }

      .cls-54 {
        fill: #040000;
      }

      .cls-55 {
        fill: #b5b5b6;
      }

      .cls-9 {
        stroke-width: 3px;
      }

      .cls-56 {
        fill: #c9a063;
      }

      .cls-30 {
        font-size: 19.08px;
      }

      .cls-10 {
        stroke-width: 6px;
      }

      .cls-57 {
        letter-spacing: -.05em;
      }

      .cls-58 {
        letter-spacing: 0em;
      }

      .cls-11 {
        stroke: gray;
        stroke-width: .5px;
      }

      .cls-59 {
        letter-spacing: .1em;
      }

      .cls-60 {
        letter-spacing: .1em;
      }

      .cls-32 {
        font-size: 40px;
      }

      .cls-61 {
        fill: #eee9e8;
      }

      .cls-62 {
        fill: #fde6c7;
      }

      .cls-33 {
        font-size: 23px;
      }

      .cls-63 {
        fill: #bcbeae;
      }
    </style>
  </defs>
  <g id="_レイヤー_1-2" data-name="レイヤー 1">
    <g>
      <path class="cls-61" d="M248.27,3.03c-18.48,0-18.48-1.75-36.96-1.75s-18.48-.59-36.96-.59-18.48-.69-36.96-.69-18.48,2.9-36.96,2.9S81.95.33,63.47.33s-18.48,1-36.96,1c-7.78,0-12.74,8.92-12.74,16.7,0,15.88-1.56,15.88-1.56,31.77s3.41,15.89,3.41,31.77c0,7.78,3.11,12.37,10.89,12.37,18.48,0,18.48,4.69,36.96,4.69s18.48,1.75,36.96,1.75,18.48.06,36.96.06,18.48-6.11,36.96-6.11,18.48-2.74,36.96-2.74,18.48,5.68,36.96,5.68c7.78,0,15.85-7.92,15.85-15.7,0-15.88-.5-15.88-.5-31.77s.43-15.89.43-31.77c0-7.78-7.99-15-15.77-15"/>
      <text class="cls-30" transform="translate(16.07 37.32) rotate(-2.88)"><tspan x="0" y="0">＼ 電動車椅子サッカー ／</tspan></text>
      <text class="cls-25" transform="translate(337.07 706.65)"><tspan x="0" y="0">（直</tspan><tspan class="cls-42" x="30" y="0">径</tspan><tspan x="48.75" y="0">1</tspan><tspan class="cls-41" x="57.88" y="0">3</tspan><tspan x="70.75" y="0">インチ）</tspan></text>
      <text class="cls-14" transform="translate(64.85 744.37)"><tspan x="0" y="0">ボールの大きさは</tspan></text>
      <rect class="cls-61" x="305.44" y="735.07" width="90.11" height="12.74"/>
      <text class="cls-29" transform="translate(307.94 744.78)"><tspan x="0" y="0">32.5</tspan></text>
      <text class="cls-31" transform="translate(399.4 744.78)"><tspan x="0" y="0">cm</tspan></text>
      <text class="cls-31" transform="translate(263.72 744.78)"><tspan x="0" y="0">約</tspan></text>
      <rect class="cls-61" x="78.44" y="345.16" width="375.21" height="29.11"/>
      <text class="cls-28" transform="translate(94.52 366.02)"><tspan class="cls-60" x="0" y="0">今大会</tspan><tspan x="52.8" y="0">は</tspan></text>
      <text class="cls-28" transform="translate(352.04 366.02)"><tspan class="cls-60" x="0" y="0">の最大幅</tspan><tspan x="70.4" y="0">！</tspan></text>
      <text class="cls-13" transform="translate(179.91 368.25)"><tspan class="cls-59" x="0" y="0">18ｍ×30</tspan><tspan x="130.94" y="0">ｍ</tspan></text>
      <g>
        <polygon class="cls-61" points="159.47 644 167.67 622.59 145.82 644 6.03 644 6.03 689.73 189.15 689.73 189.15 644 159.47 644"/>
        <polygon class="cls-11" points="159.47 644 167.67 622.59 145.82 644 6.03 644 6.03 689.73 189.15 689.73 189.15 644 159.47 644"/>
        <polygon class="cls-61" points="440.09 513.92 357.77 513.92 357.77 549.16 371.59 549.16 380.51 558.36 380.51 549.16 440.09 549.16 440.09 513.92"/>
        <polygon class="cls-11" points="440.09 513.92 357.77 513.92 357.77 549.16 371.59 549.16 380.51 558.36 380.51 549.16 440.09 549.16 440.09 513.92"/>
        <polygon class="cls-61" points="524.08 538.58 454.67 538.58 454.67 574.37 480.95 574.37 480.95 585.43 490.41 574.37 524.08 574.37 524.08 538.58"/>
        <polygon class="cls-11" points="524.08 538.58 454.67 538.58 454.67 574.37 480.95 574.37 480.95 585.43 490.41 574.37 524.08 574.37 524.08 538.58"/>
        <polygon class="cls-61" points="502.99 639.54 505.57 630.56 494.01 639.54 451.45 639.54 451.45 674.59 529.65 674.59 529.65 639.54 502.99 639.54"/>
        <polygon class="cls-11" points="502.99 639.54 505.57 630.56 494.01 639.54 451.45 639.54 451.45 674.59 529.65 674.59 529.65 639.54 502.99 639.54"/>
        <polygon class="cls-61" points="284.35 638.96 284.12 629.32 274.7 638.96 257.53 638.96 257.53 674.02 368.17 674.02 368.17 638.96 284.35 638.96"/>
        <polygon class="cls-11" points="284.35 638.96 284.12 629.32 274.7 638.96 257.53 638.96 257.53 674.02 368.17 674.02 368.17 638.96 284.35 638.96"/>
        <polygon class="cls-61" points="127.7 503.21 23.48 503.21 23.48 538.84 90.34 538.84 99.14 548.43 99.93 538.84 127.7 538.84 127.7 503.21"/>
        <polygon class="cls-11" points="127.7 503.21 23.48 503.21 23.48 538.84 90.34 538.84 99.14 548.43 99.93 538.84 127.7 538.84 127.7 503.21"/>
      </g>
      <text class="cls-26" transform="translate(454.21 652.63)"><tspan x="0" y="0">ゴルフボール</tspan></text>
      <text class="cls-26" transform="translate(464.17 668.63)"><tspan class="cls-42" x="0" y="0">約</tspan><tspan x="15" y="0">4.3cm</tspan></text>
      <text class="cls-24" transform="translate(3.35 94.28) rotate(-4.56) scale(1.04 1)"><tspan class="cls-58" x="0" y="0">はやわか</tspan><tspan x="190.12" y="0">り</tspan></text>
      <text class="cls-24" transform="translate(239.96 73.45) rotate(-4.56) scale(1.04 1)"><tspan x="0" y="0">！</tspan></text>
      <rect class="cls-61" x="239.26" y="445.85" width="110.33" height="25.48"/>
      <text class="cls-14" transform="translate(113.08 419.12)"><tspan x="0" y="0">試合時間は</tspan></text>
      <text class="cls-32" transform="translate(112.67 464.17)"><tspan x="0" y="0">前後半</tspan></text>
      <text class="cls-32" transform="translate(350.71 463.98)"><tspan x="0" y="0">分ハーフ</tspan></text>
      <text class="cls-22" transform="translate(241.38 466.62)"><tspan class="cls-57" x="0" y="0">2</tspan><tspan class="cls-1" x="50.31" y="0">0</tspan></text>
      <g>
        <path class="cls-50" d="M38.42,417.6c0-3.1,2.54-5.63,5.63-5.63h45.2c.45,0,.89.06,1.3.16-1.17-1.69-3.13-2.8-5.33-2.8h-43.52c-3.58,0-6.49,2.91-6.49,6.49v37.88c0,2.49,1.41,4.66,3.48,5.75-.18-.54-.27-1.12-.27-1.72v-40.13Z"/>
        <path class="cls-51" d="M64.07,430c-.18-1.35-.39-2.89-.6-4.41-.21,1.52-.42,3.07-.6,4.41h1.21Z"/>
        <path class="cls-51" d="M91.72,453.7v-37.88c0-1.37-.43-2.65-1.16-3.7-.42-.1-.85-.16-1.3-.16h-45.2c-3.1,0-5.63,2.54-5.63,5.63v40.13c0,.6.1,1.18.27,1.72.9.47,1.93.74,3.01.74h43.52c3.58,0,6.49-2.91,6.49-6.49M87.51,435.24l-4.83.21v-1.39l4.83.21v.96ZM62.99,412.69h.96l.21,4.83h-1.38l.21-4.83ZM43.03,422.66l2.53,1.31-.41.71-2.4-1.53.28-.49ZM39.43,435.24v-.96l4.83-.21v1.39l-4.83-.21ZM43.71,447.94l-.31-.48,2.32-1.66.45.68-2.45,1.45ZM50.43,414.9l1.69,2.29-.68.45-1.49-2.43.47-.32ZM51.84,455.47l-.49-.28,1.31-2.53.71.41-1.53,2.4ZM63.95,456.83h-.96l-.21-4.83h1.38l-.21,4.83ZM63.47,437.69c-1.62,0-2.93-1.31-2.93-2.93,0-.82.34-1.56.88-2.09.36-3.08,1.37-10.14,1.51-11.1.04-.27.27-.47.55-.47s.51.2.54.47c.14.96,1.15,8.02,1.51,11.1.54.53.88,1.27.88,2.09,0,1.62-1.31,2.93-2.93,2.93M73.57,416.45l1.53-2.4.49.28-1.31,2.53-.71-.41ZM76.51,454.62l-1.69-2.29.68-.46,1.49,2.43-.47.32ZM80.78,423.02l2.45-1.45.31.47-2.32,1.66-.45-.68ZM83.91,446.86l-2.53-1.31.41-.71,2.4,1.53-.28.49Z"/>
        <path class="cls-49" d="M85.23,402.99h-13.2v-3.62c0-.31-.26-.57-.57-.57h-15.98c-.31,0-.57.26-.57.57v3.62h-13.2c-7.07,0-12.83,5.75-12.83,12.83v37.88c0,7.07,5.75,12.83,12.83,12.83h2.07l.77,1.95c.05.12.16.22.26.22h4.91c.1,0,.21-.1.26-.22l.77-1.95h25.43l.77,1.95c.05.12.16.22.26.22h4.91c.1,0,.21-.1.26-.22l.77-1.95h2.07c7.07,0,12.83-5.76,12.83-12.83v-37.88c0-7.07-5.76-12.83-12.83-12.83M41.71,460.19c-1.09,0-2.11-.27-3.01-.74-2.07-1.09-3.48-3.26-3.48-5.75v-37.88c0-3.58,2.91-6.49,6.49-6.49h43.52c2.21,0,4.16,1.11,5.33,2.79.73,1.05,1.16,2.33,1.16,3.7v37.88c0,3.58-2.91,6.49-6.49,6.49h-43.52Z"/>
        <polygon class="cls-49" points="44.27 434.07 39.43 434.28 39.43 435.24 44.27 435.45 44.27 434.07"/>
        <polygon class="cls-49" points="82.67 435.45 87.5 435.24 87.5 434.28 82.67 434.07 82.67 435.45"/>
        <polygon class="cls-49" points="52.12 417.19 50.43 414.9 49.96 415.22 51.45 417.65 52.12 417.19"/>
        <polygon class="cls-49" points="74.81 452.33 76.51 454.62 76.98 454.3 75.49 451.87 74.81 452.33"/>
        <polygon class="cls-49" points="45.56 423.97 43.03 422.66 42.75 423.15 45.15 424.67 45.56 423.97"/>
        <polygon class="cls-49" points="81.38 445.55 83.91 446.86 84.19 446.37 81.79 444.84 81.38 445.55"/>
        <polygon class="cls-49" points="75.1 414.05 73.57 416.45 74.27 416.86 75.59 414.33 75.1 414.05"/>
        <polygon class="cls-49" points="51.35 455.19 51.84 455.47 53.37 453.07 52.66 452.66 51.35 455.19"/>
        <polygon class="cls-49" points="63.95 412.69 62.99 412.69 62.78 417.52 64.16 417.52 63.95 412.69"/>
        <polygon class="cls-49" points="62.99 456.83 63.95 456.83 64.16 452 62.78 452 62.99 456.83"/>
        <polygon class="cls-49" points="83.23 421.57 80.78 423.02 81.22 423.7 83.54 422.05 83.23 421.57"/>
        <polygon class="cls-49" points="43.4 447.47 43.71 447.94 46.16 446.5 45.72 445.81 43.4 447.47"/>
        <path class="cls-49" d="M65.52,432.67c-.36-3.08-1.37-10.14-1.51-11.1-.04-.27-.27-.47-.54-.47s-.51.2-.54.47c-.14.95-1.15,8.02-1.51,11.1-.54.53-.88,1.27-.88,2.09,0,1.62,1.31,2.93,2.93,2.93s2.93-1.31,2.93-2.93c0-.82-.34-1.56-.88-2.09M63.47,425.59c.21,1.52.42,3.07.6,4.41h-1.21c.18-1.35.39-2.89.6-4.41"/>
        <path class="cls-49" d="M495.21,423.59h-132.69c-5.96,0-10.79-4.83-10.79-10.79s4.83-10.79,10.79-10.79h132.69c5.96,0,10.78,4.83,10.78,10.79s-4.83,10.79-10.78,10.79"/>
      </g>
      <text class="cls-16" transform="translate(367.83 417.64)"><tspan x="0" y="0">ハーフタイ</tspan><tspan class="cls-42" x="70" y="0">ム</tspan><tspan x="87.5" y="0">1</tspan><tspan class="cls-42" x="96.03" y="0">0</tspan><tspan x="108.05" y="0">分</tspan></text>
      <g>
        <polygon class="cls-49" points="219.03 656.75 235.56 710.87 238.94 710.05 227.94 654.59 237.25 652.34 220.01 641.29 209.72 659 219.03 656.75"/>
        <polygon class="cls-49" points="358.21 139.83 363.01 109.94 359.45 109 348.83 137.34 339.02 134.74 349.51 153.73 368.01 142.42 358.21 139.83"/>
      </g>
      <text class="cls-20" transform="translate(15.88 661.83)"><tspan x="0" y="0">通常のサッカーボールより</tspan></text>
      <text class="cls-20" transform="translate(15.88 680.83)"><tspan class="cls-40" x="0" y="0">約</tspan><tspan x="17.21" y="0">10c</tspan><tspan class="cls-45" x="41.39" y="0">m</tspan><tspan x="58.41" y="0">大きいでござる！</tspan></text>
      <text class="cls-26" transform="translate(460.21 552.91)"><tspan x="0" y="0">野球ボール</tspan></text>
      <text class="cls-26" transform="translate(464.17 568.9)"><tspan class="cls-42" x="0" y="0">約</tspan><tspan x="15" y="0">7.5cm</tspan></text>
      <text class="cls-26" transform="translate(362.94 528.5)"><tspan x="0" y="0">バレーボール</tspan></text>
      <text class="cls-26" transform="translate(382.5 544.49)"><tspan x="0" y="0">21cm</tspan></text>
      <text class="cls-26" transform="translate(263.43 652.61)"><tspan x="0" y="0">バスケットボール</tspan></text>
      <text class="cls-26" transform="translate(281.73 668.61)"><tspan class="cls-42" x="0" y="0">約</tspan><tspan x="15" y="0">24.5cm</tspan></text>
      <text class="cls-26" transform="translate(33.76 516.86)"><tspan x="0" y="0">サッカーボール</tspan></text>
      <text class="cls-26" transform="translate(51.82 532.85)"><tspan class="cls-42" x="0" y="0">約</tspan><tspan x="15" y="0">22cm</tspan></text>
      <g>
        <path class="cls-37" d="M110.56,579.82l7.82,13.37h12.17c.38-2.01.59-4.08.59-6.2,0-5.21-1.2-10.15-3.34-14.54,3.47,4.32,5.83,9.58,6.62,15.33l1.55-2.41c-1.58-7.63-5.8-14.62-12.11-19.55l-8.71,1.78-4.58,12.22Z"/>
        <path class="cls-37" d="M91.19,561.03c-1.43.56-2.8,1.21-4.12,1.94l-2.75,9.55,8.71,9.56,15.87-3.47,4.36-11.62-4.89-7.88c-1.67-.26-3.36-.39-5.04-.39-4.1,0-8.21.77-12.14,2.3"/>
        <path class="cls-37" d="M74.96,574.53c-.82,1.33-1.56,2.73-2.2,4.18-2.84,6.47-3.53,13.51-2.09,20.29l8.93,5.4,10.6-5.08,1.56-15.69-9-9.88-7.81.77Z"/>
        <path class="cls-37" d="M135.38,601.29l-1.46-2.12c-2.05,8.92-7.89,16.39-15.74,20.61l2.66.7c5.58-3.43,10.21-8.53,13.03-14.97.61-1.39,1.1-2.79,1.51-4.21"/>
        <path class="cls-37" d="M130.13,595.16h-11.99l-10.8,12.13,2.23,10.23.95.25c9.64-3.97,17.01-12.34,19.61-22.61"/>
        <path class="cls-37" d="M89.92,622.66c4.28,1.88,8.74,2.78,13.14,2.8l1.27-1.97c-.34.01-.67.03-1.01.03-6.72,0-12.94-2.12-18.05-5.71,3.88,1.59,8.13,2.47,12.59,2.47,3.27,0,6.42-.48,9.4-1.36l.44-.68-2.4-11.04-14.06-6.17-10.63,5.09-2.16,8.23c3.14,3.52,7.03,6.36,11.48,8.31"/>
        <path class="cls-55" d="M133.92,599.17l-2.76-4.01h-1.03c-2.59,10.27-9.96,18.64-19.61,22.61l7.66,2.01c7.85-4.22,13.69-11.69,15.74-20.61"/>
        <path class="cls-55" d="M85.27,617.8c5.11,3.59,11.33,5.71,18.05,5.71.34,0,.67-.01,1.01-.03l2.93-4.57c-2.98.88-6.14,1.36-9.4,1.36-4.46,0-8.7-.88-12.59-2.47"/>
        <path class="cls-55" d="M131.14,586.99c0,2.12-.21,4.19-.58,6.2h.4l3.47-5.41c-.8-5.76-3.15-11.01-6.62-15.33,2.14,4.39,3.34,9.33,3.34,14.54"/>
        <path class="cls-49" d="M118.62,557.21c-19.24-8.44-41.76.35-50.2,19.59s.35,41.76,19.59,50.2c4.96,2.18,10.15,3.21,15.25,3.21,14.67,0,28.69-8.52,34.95-22.8,8.44-19.24-.35-41.76-19.59-50.2M135.97,585.37l-1.55,2.41-3.47,5.41h-12.57l-7.82-13.37,4.58-12.22,8.72-1.78c6.3,4.93,10.52,11.92,12.11,19.55M113.26,567l-4.36,11.62-15.87,3.47-8.71-9.56,2.75-9.55c1.32-.73,2.69-1.38,4.11-1.94,3.93-1.54,8.04-2.3,12.14-2.3,1.69,0,3.37.13,5.04.39l4.89,7.88ZM90.21,599.32l-10.6,5.07-8.93-5.4c-1.44-6.78-.75-13.81,2.09-20.28.64-1.46,1.38-2.85,2.2-4.18l7.81-.77,9,9.88-1.56,15.69ZM80.6,606.11l10.63-5.09,14.06,6.17,2.4,11.04-.44.68-2.93,4.57-1.27,1.97c-4.4-.03-8.86-.93-13.14-2.8-4.45-1.95-8.33-4.79-11.48-8.31l2.16-8.23ZM120.83,620.48l-2.66-.7-7.66-2.01-.95-.25-2.23-10.23,10.8-12.13h13.02l2.76,4,1.46,2.13c-.41,1.42-.9,2.82-1.51,4.21-2.83,6.44-7.45,11.54-13.03,14.97"/>
        <path class="cls-37" d="M426.88,586.73c.48-1.02.82-1.89,1.06-2.55-1.71-4.83-4.6-9.12-8.32-12.5-1.86,6.36-7.03,18.79-19.9,24.12.39,4.77,1.57,8.9,3.09,12.39,12.28-4.58,18.92-12.41,22.34-18.17-.14-5.05-1.49-9.8-3.78-13.96,2.53,3.09,4.43,6.72,5.52,10.68"/>
        <path class="cls-37" d="M410.54,581.52c3.31-4.93,4.91-10,5.57-12.6-4.91-3.32-10.82-5.25-17.17-5.25-6.88,0-13.23,2.27-18.36,6.1,7.59-.14,19.82,1.55,29.97,11.76"/>
        <path class="cls-37" d="M388.16,623.25c-.52-.76-1.06-1.58-1.59-2.49-.32-.15-.63-.29-.94-.45.27.08.54.15.81.23-3.71-6.37-7.27-16.29-5.61-29.68-5.46-.25-10.17.82-12.58,1.51-.04.68-.08,1.37-.08,2.06,0,13.17,8.33,24.44,19.99,28.81"/>
        <path class="cls-37" d="M424.26,598.24c-4.22,4.96-10.46,10.13-19.6,13.62,1.4,2.43,2.91,4.45,4.33,6.07,7.53-4.06,13.17-11.18,15.27-19.69"/>
        <path class="cls-37" d="M408.73,623.59c-.44-.4-.91-.86-1.39-1.36-2.68.82-5.53,1.26-8.49,1.26-2,0-3.95-.21-5.84-.6.67.85,1.27,1.52,1.73,2.01,1.37.19,2.77.29,4.19.29,3.42,0,6.72-.57,9.8-1.61"/>
        <path class="cls-37" d="M405.06,619.7c-4.14-5.01-8.71-12.96-9.47-24.16-3.47-2.35-7.16-3.62-10.7-4.23-1.81,14.68,3.26,24.84,7.07,30.19.81.06,1.63.1,2.46.1,3.74,0,7.33-.67,10.64-1.89"/>
        <path class="cls-37" d="M408.02,584.8c-11.91-12.31-27.53-11.23-32.29-10.55-3.35,3.85-5.77,8.54-6.88,13.7,6.05-1.5,18.23-3.09,28.98,4.18,4.27-1.71,7.6-4.37,10.18-7.33"/>
        <path class="cls-37" d="M427.91,594.43c0,11.5-6.68,21.44-16.37,26.15.52.49.99.9,1.39,1.23,9.94-5.11,16.76-15.46,16.76-27.38,0-1.28-.09-2.53-.24-3.77-.46.85-.97,1.74-1.57,2.67.01.36.02.73.02,1.1"/>
        <path class="cls-55" d="M407.34,622.23c-.72-.74-1.49-1.58-2.28-2.54-3.32,1.22-6.9,1.89-10.64,1.89-.83,0-1.65-.04-2.46-.1.36.51.72.98,1.05,1.4,1.89.39,3.84.6,5.84.6,2.95,0,5.8-.44,8.49-1.26"/>
        <path class="cls-55" d="M421.36,576.05c2.29,4.16,3.65,8.91,3.78,13.96.71-1.2,1.28-2.31,1.73-3.28-1.09-3.96-2.99-7.58-5.52-10.68"/>
        <path class="cls-55" d="M427.91,594.43c0-.37-.01-.73-.02-1.1-.99,1.56-2.2,3.22-3.63,4.9-2.1,8.51-7.74,15.62-15.27,19.69.92,1.05,1.79,1.94,2.56,2.66,9.69-4.71,16.37-14.65,16.37-26.15"/>
        <path class="cls-55" d="M386.56,620.75c-.04-.07-.08-.15-.13-.22-.27-.07-.54-.15-.81-.23.31.16.62.3.94.45"/>
        <path class="cls-49" d="M398.93,558.56c-19.78,0-35.88,16.09-35.88,35.88s16.09,35.88,35.88,35.88,35.88-16.09,35.88-35.88-16.09-35.88-35.88-35.88M429.7,594.43c0,11.92-6.82,22.27-16.76,27.38-.4-.33-.87-.74-1.39-1.23-.76-.71-1.64-1.6-2.56-2.66-1.41-1.62-2.93-3.63-4.33-6.07,9.13-3.49,15.38-8.66,19.6-13.62,1.43-1.68,2.64-3.34,3.63-4.9.59-.93,1.11-1.83,1.57-2.67.15,1.24.24,2.49.24,3.77M425.14,590.01c-3.41,5.76-10.05,13.6-22.34,18.17-1.53-3.49-2.7-7.61-3.09-12.39,12.87-5.33,18.04-17.76,19.9-24.12,3.72,3.39,6.6,7.67,8.32,12.5-.24.66-.58,1.53-1.06,2.55-.45.97-1.02,2.08-1.73,3.28M368.86,587.95c1.11-5.17,3.53-9.85,6.88-13.7,4.76-.68,20.38-1.76,32.29,10.55-2.59,2.96-5.92,5.62-10.19,7.33-10.75-7.27-22.93-5.68-28.98-4.18M416.11,568.92c-.66,2.6-2.26,7.68-5.57,12.6-10.14-10.21-22.37-11.9-29.96-11.76,5.13-3.83,11.48-6.09,18.36-6.09,6.36,0,12.27,1.94,17.17,5.25M368.24,592.37c2.41-.7,7.12-1.77,12.58-1.51-1.65,13.39,1.91,23.31,5.61,29.68.04.07.08.15.12.22.54.91,1.07,1.73,1.6,2.49-11.67-4.38-19.99-15.64-19.99-28.81,0-.69.03-1.38.08-2.06M394.74,624.9c-.46-.49-1.06-1.16-1.73-2.01-.33-.42-.69-.89-1.05-1.4-3.81-5.35-8.89-15.51-7.07-30.19,3.55.61,7.23,1.89,10.7,4.24.77,11.2,5.34,19.15,9.47,24.16.78.95,1.55,1.8,2.28,2.54.49.5.96.95,1.39,1.36-3.08,1.04-6.37,1.61-9.8,1.61-1.42,0-2.82-.1-4.19-.29"/>
        <path class="cls-56" d="M326.92,618.74c-4.62,2.45-9.89,3.85-15.49,3.85-.99,0-1.96-.05-2.93-.13-.11.76-.21,1.54-.32,2.33,1.07.1,2.15.15,3.25.15,5.58,0,10.86-1.3,15.56-3.61-.01-.88-.04-1.74-.07-2.6"/>
        <path class="cls-56" d="M340.5,590.97c-4.4-2.48-10.12-4.59-15.24-3,2.46,6.2,4.46,13.44,5.52,21.76,5.01-4.99,8.49-11.49,9.72-18.77"/>
        <path class="cls-56" d="M291.44,588.55c4.46-5.62,10.91-11.72,19.87-16.13-1.21-1.61-2.43-3.09-3.63-4.43-7.65,3.76-22.32,4.77-27.64,5.02-2.6,4.93-4.07,10.53-4.07,16.47,0,6.53,1.78,12.65,4.88,17.91,1.73-4.67,4.98-11.79,10.59-18.84"/>
        <path class="cls-56" d="M304.31,564.47c-3.59-3.49-6.68-5.72-8.42-6.85-5.07,2.48-9.47,6.14-12.83,10.61,6.47-.46,15.73-1.55,21.25-3.76"/>
        <path class="cls-56" d="M303.63,624.07c.11-.79.21-1.57.32-2.34-3.56-.82-6.9-2.21-9.92-4.08,3.2,1.2,6.63,1.95,10.2,2.15,3.31-21.81,8.04-29.62,15.06-34.02-1.65-3.56-3.47-6.76-5.35-9.61-7.21,3.42-13.49,8.46-18.81,15.1-6.77,8.47-9.93,17.23-11.03,20.8,4.92,5.94,11.74,10.24,19.51,11.99"/>
        <path class="cls-56" d="M321.13,590.06c-4.81,3.22-9.06,9.33-12.23,29.7,6.56-.49,12.61-2.81,17.65-6.44-.84-8.93-2.83-16.65-5.42-23.26"/>
        <path class="cls-56" d="M338.72,570.79c3.39,4.93,5.48,10.82,5.76,17.17.87.54,1.67,1.07,2.39,1.58,0-.02,0-.04,0-.06,0-6.85-1.96-13.25-5.34-18.68-.95-.02-1.89-.02-2.82-.01"/>
        <path class="cls-56" d="M344.29,593.37c-1.07,9.19-5.9,17.22-12.92,22.53.06.92.11,1.84.14,2.78,7.84-5.41,13.4-13.89,14.93-23.69-.57-.45-1.3-1.01-2.16-1.62"/>
        <path class="cls-56" d="M317.79,554.61c-.64,2.94-2.25,7.25-6.23,10.76.9,1.03,1.82,2.13,2.73,3.3.46.58.92,1.2,1.38,1.83,6.34-2.49,13.78-4.12,22.46-4.3-5.18-5.93-12.29-10.12-20.34-11.59"/>
        <path class="cls-56" d="M337.91,570.8c-7.1.16-13.64,1.35-19.61,3.55,1.77,2.76,3.51,5.88,5.14,9.38,6.05-2.09,12.44-.27,17.54,2.27,0-.29.02-.59.02-.88,0-5.11-1.11-9.95-3.09-14.32"/>
        <path class="cls-56" d="M301.03,555.59c2.03,1.51,4.59,3.62,7.38,6.42,2.96-2.56,4.24-5.7,4.79-7.93-.59-.03-1.18-.05-1.78-.05-3.61,0-7.1.55-10.39,1.56"/>
        <path class="cls-38" d="M326.92,618.74c-.07-1.86-.2-3.66-.36-5.42-5.04,3.63-11.09,5.95-17.65,6.44-.14.87-.27,1.77-.4,2.7.97.08,1.94.13,2.93.13,5.6,0,10.87-1.4,15.49-3.85"/>
        <path class="cls-38" d="M344.29,593.37c-1.08-.76-2.36-1.6-3.79-2.4-1.23,7.27-4.72,13.78-9.72,18.77.25,1.99.45,4.04.59,6.16,7.01-5.31,11.84-13.34,12.92-22.53"/>
        <path class="cls-38" d="M303.95,621.73c.09-.66.19-1.3.29-1.93-3.57-.21-7-.95-10.2-2.15,3.02,1.87,6.36,3.26,9.92,4.08"/>
        <path class="cls-38" d="M337.91,570.8c1.98,4.37,3.09,9.21,3.09,14.32,0,.3-.01.59-.02.88,1.26.63,2.43,1.3,3.51,1.96-.29-6.36-2.38-12.24-5.76-17.17-.27,0-.54,0-.81.01"/>
        <path class="cls-49" d="M311.42,548.41c-22.65,0-41.08,18.43-41.08,41.08s18.43,41.08,41.08,41.08,41.08-18.43,41.08-41.08-18.43-41.08-41.08-41.08M314.28,568.67c-.91-1.17-1.83-2.27-2.73-3.3,3.99-3.51,5.59-7.82,6.23-10.76,8.05,1.47,15.16,5.66,20.34,11.59-8.68.18-16.12,1.81-22.46,4.3-.46-.63-.93-1.25-1.38-1.83M308.41,562.01c-2.79-2.8-5.35-4.92-7.38-6.42,3.29-1.01,6.78-1.56,10.39-1.56.6,0,1.19.02,1.78.05-.55,2.24-1.83,5.37-4.79,7.93M295.89,557.62c1.73,1.13,4.83,3.36,8.42,6.85-5.52,2.21-14.78,3.3-21.25,3.76,3.36-4.48,7.76-8.13,12.83-10.61M280.04,573.01c5.31-.25,19.98-1.26,27.64-5.02,1.2,1.34,2.42,2.82,3.63,4.43-8.96,4.41-15.41,10.51-19.87,16.13-5.61,7.06-8.86,14.18-10.59,18.84-3.09-5.26-4.88-11.38-4.88-17.91,0-5.94,1.48-11.55,4.07-16.47M295.15,591.28c5.31-6.65,11.6-11.68,18.81-15.11,1.88,2.85,3.69,6.05,5.35,9.61-7.03,4.41-11.75,12.21-15.06,34.02-.1.63-.19,1.27-.29,1.93-.11.76-.22,1.54-.32,2.33-7.77-1.75-14.59-6.05-19.51-11.99,1.09-3.57,4.26-12.33,11.03-20.8M308.17,624.79c.11-.8.21-1.57.32-2.33.13-.92.27-1.83.4-2.7,3.17-20.37,7.42-26.48,12.23-29.7,2.6,6.61,4.58,14.33,5.42,23.26.17,1.76.29,3.57.36,5.42.03.86.06,1.72.07,2.6-4.7,2.31-9.98,3.61-15.56,3.61-1.1,0-2.18-.06-3.25-.15M331.51,618.68c-.04-.94-.08-1.87-.14-2.78-.14-2.12-.34-4.17-.59-6.16-1.06-8.32-3.06-15.56-5.52-21.76,5.12-1.59,10.84.52,15.24,3,1.42.8,2.7,1.64,3.78,2.4.86.61,1.59,1.16,2.16,1.62-1.53,9.8-7.1,18.28-14.93,23.69M346.88,589.54c-.72-.51-1.52-1.04-2.39-1.58-1.07-.67-2.25-1.34-3.51-1.96-5.1-2.54-11.49-4.37-17.54-2.27-1.62-3.5-3.37-6.62-5.14-9.38,5.97-2.2,12.52-3.39,19.61-3.55.27,0,.54,0,.81-.01.93-.01,1.87-.01,2.81.01,3.38,5.43,5.34,11.83,5.34,18.68,0,.02,0,.04,0,.06"/>
        <path class="cls-37" d="M480.64,597.87l-1.13-1.7c.19-.13.39-.25.59-.36-3.04-2.8-7.1-4.52-11.56-4.52s-8.23,1.6-11.24,4.23c.38.19.76.41,1.11.65l-1.13,1.7c-.49-.32-1-.59-1.53-.81-2.67,3.01-4.29,6.97-4.29,11.31,0,3.73,1.21,7.19,3.25,10.01.5-.13.99-.3,1.47-.53l.88,1.85c-.31.15-.62.27-.93.39,3.12,3.3,7.53,5.37,12.42,5.37s9.52-2.17,12.65-5.62c-.1-.04-.2-.09-.31-.13l.88-1.85c.25.12.5.22.76.31,1.95-2.78,3.1-6.15,3.1-9.79,0-4.2-1.53-8.05-4.05-11.03-.32.16-.62.33-.92.53M478.59,596.85l1.29,1.58c-.48.39-.93.84-1.34,1.32l-1.56-1.32c.49-.58,1.03-1.12,1.61-1.59M476.44,611.51c.2.61.45,1.2.73,1.76l-1.82.94c-.34-.66-.63-1.35-.86-2.07l1.94-.63ZM474.19,611.07c-.17-.72-.3-1.46-.36-2.2l2.04-.18c.06.64.16,1.28.31,1.89l-1.99.48ZM477.64,614.1c.34.54.72,1.05,1.14,1.51l-1.52,1.37c-.5-.55-.95-1.16-1.35-1.8l1.73-1.09ZM476.3,599.33l1.67,1.17c-.36.51-.68,1.07-.96,1.64l-1.84-.88c.32-.68.7-1.33,1.13-1.94M474.73,602.3l1.91.73c-.23.59-.41,1.21-.54,1.84l-2-.42c.16-.73.37-1.45.63-2.14M473.9,605.54l2.03.27c-.08.57-.11,1.15-.11,1.74v.18s-2.04.03-2.04.03v-.21c0-.67.04-1.35.13-2.01M464.14,607.55v.2s-2.05-.03-2.05-.03v-.18c0-.58-.04-1.17-.11-1.74l2.03-.27c.09.66.14,1.34.14,2.02M460.75,613.26c.29-.56.54-1.15.73-1.76l1.94.63c-.23.71-.52,1.41-.86,2.06l-1.82-.94ZM462.01,615.17c-.4.64-.86,1.25-1.35,1.8l-1.52-1.37c.42-.46.8-.97,1.14-1.51l1.73,1.08ZM461.74,610.58c.15-.62.25-1.25.31-1.89l2.04.18c-.07.74-.19,1.48-.36,2.2l-1.99-.48ZM463.82,604.44l-2,.42c-.13-.63-.32-1.24-.54-1.84l1.91-.73c.26.69.48,1.41.63,2.14M462.75,601.27l-1.85.88c-.28-.58-.6-1.13-.96-1.64l1.67-1.17c.42.61.8,1.26,1.13,1.94M459.32,596.85c.58.47,1.12,1.01,1.61,1.59l-1.56,1.32c-.41-.49-.86-.93-1.34-1.32l1.29-1.58ZM456.99,617.41c.52-.32,1.03-.7,1.49-1.13l1.39,1.5c-.56.52-1.17.98-1.81,1.37l-1.07-1.74ZM468.43,624.33c-3.21,0-6.19-.96-8.68-2.6,1.87.73,3.89,1.13,6.01,1.13,9.17,0,16.61-7.43,16.61-16.61,0-3.14-.87-6.07-2.39-8.58,2.65,2.83,4.28,6.63,4.28,10.82,0,8.74-7.09,15.83-15.83,15.83"/>
        <path class="cls-63" d="M482.37,606.26c0,9.17-7.43,16.61-16.61,16.61-2.12,0-4.15-.4-6.01-1.13,2.49,1.64,5.48,2.6,8.68,2.6,8.74,0,15.83-7.09,15.83-15.83,0-4.19-1.63-7.99-4.28-10.82,1.51,2.5,2.39,5.44,2.39,8.58M479.87,619.16c-.64-.39-1.25-.85-1.81-1.37l1.39-1.5c.47.43.97.81,1.49,1.13l-1.06,1.74Z"/>
        <path class="cls-49" d="M468.53,586.69c-11.95,0-21.68,9.73-21.68,21.68s9.73,21.68,21.68,21.68,21.68-9.72,21.68-21.68-9.73-21.68-21.68-21.68M482.52,618.17c-.26-.09-.51-.19-.76-.31l-.88,1.85c.1.05.2.09.3.13-3.13,3.45-7.64,5.62-12.65,5.62s-9.3-2.07-12.42-5.37c.32-.11.63-.24.93-.39l-.88-1.85c-.47.23-.97.4-1.47.53-2.04-2.81-3.25-6.27-3.25-10.01,0-4.33,1.62-8.29,4.29-11.31.53.22,1.04.49,1.53.81l1.13-1.7c-.36-.24-.73-.45-1.11-.65,3.01-2.63,6.94-4.24,11.24-4.24s8.52,1.72,11.56,4.52c-.2.11-.39.23-.58.36l1.13,1.7c.3-.2.61-.37.92-.53,2.53,2.98,4.05,6.83,4.05,11.03,0,3.64-1.15,7.02-3.1,9.79"/>
        <path class="cls-49" d="M459.37,599.75l1.56-1.32c-.49-.58-1.03-1.12-1.61-1.59l-1.29,1.58c.48.39.93.84,1.34,1.32"/>
        <path class="cls-49" d="M460.9,602.15l1.84-.88c-.32-.68-.7-1.33-1.13-1.94l-1.67,1.17c.36.51.68,1.07.96,1.64"/>
        <path class="cls-49" d="M461.82,604.86l2-.42c-.16-.73-.37-1.45-.63-2.14l-1.91.73c.23.59.41,1.21.54,1.84"/>
        <path class="cls-49" d="M458.48,616.28c-.47.43-.97.81-1.49,1.13l1.07,1.74c.64-.39,1.25-.85,1.81-1.37l-1.39-1.5Z"/>
        <path class="cls-49" d="M459.14,615.6l1.52,1.37c.5-.55.95-1.16,1.35-1.8l-1.73-1.08c-.34.54-.72,1.05-1.14,1.51"/>
        <path class="cls-49" d="M464.09,608.86l-2.04-.18c-.06.64-.16,1.28-.31,1.89l1.99.48c.17-.72.29-1.45.36-2.2"/>
        <path class="cls-49" d="M463.42,612.13l-1.94-.63c-.2.61-.45,1.2-.73,1.76l1.82.93c.34-.66.63-1.35.86-2.06"/>
        <path class="cls-49" d="M462.1,607.55v.18s2.04.03,2.04.03v-.2c0-.67-.04-1.35-.13-2.01l-2.03.27c.08.57.12,1.16.12,1.74"/>
        <path class="cls-49" d="M473.83,608.87c.07.74.19,1.48.36,2.2l1.99-.48c-.15-.62-.25-1.25-.31-1.89l-2.04.18Z"/>
        <path class="cls-49" d="M479.89,598.43l-1.29-1.58c-.58.47-1.12,1.01-1.61,1.59l1.57,1.32c.41-.49.86-.93,1.34-1.32"/>
        <path class="cls-49" d="M477.97,600.51l-1.67-1.17c-.43.61-.81,1.26-1.13,1.94l1.84.88c.28-.58.6-1.13.96-1.64"/>
        <path class="cls-49" d="M476.64,603.03l-1.91-.73c-.26.69-.48,1.41-.63,2.14l2,.42c.13-.63.32-1.25.54-1.84"/>
        <path class="cls-49" d="M478.78,615.61c-.42-.46-.8-.97-1.14-1.51l-1.73,1.08c.4.64.86,1.25,1.35,1.8l1.52-1.37Z"/>
        <path class="cls-49" d="M477.17,613.27c-.29-.56-.54-1.15-.73-1.76l-1.94.64c.23.71.52,1.41.86,2.07l1.82-.94Z"/>
        <path class="cls-49" d="M475.82,607.73v-.18c0-.58.04-1.17.11-1.74l-2.03-.27c-.09.66-.13,1.34-.13,2.01v.21s2.04-.03,2.04-.03Z"/>
        <path class="cls-49" d="M478.06,617.79c.56.52,1.17.98,1.81,1.37l1.06-1.75c-.52-.32-1.03-.7-1.49-1.13l-1.39,1.5Z"/>
        <path class="cls-46" d="M527.54,609.54c.09.04.19.06.29.06-1.78-3.7-5.48-6.3-9.8-6.5.13.17.22.38.22.61,0,.54-.44.98-.98.98-.4,0-.74-.24-.9-.58.11.05.23.07.36.07.54,0,.98-.44.98-.98,0-.04,0-.07-.01-.1-.07,0-.14,0-.21,0-4.48,0-8.36,2.58-10.25,6.32-.03.11-.08.21-.15.3-.48,1.02-.81,2.13-.97,3.28.37-.14.62-.5.62-.91,0-.14-.03-.28-.09-.4.36.14.62.5.62.91,0,.54-.44.98-.98.98-.08,0-.16-.02-.24-.04-.03.34-.05.68-.05,1.02,0,.64.06,1.27.16,1.88.34-.15.58-.49.58-.89,0-.14-.03-.28-.09-.4.36.14.62.5.62.91,0,.54-.44.98-.98.98,0,0,0,0-.01,0,.13.58.3,1.15.52,1.69.24.18.41.46.41.79,0,.04,0,.08-.01.11.76,1.54,1.87,2.89,3.21,3.95.14.06.26.15.35.27,1.89,1.38,4.22,2.19,6.73,2.19,4.33,0,8.11-2.42,10.07-5.97-.03-.05-.07-.09-.09-.15.05.02.1.03.15.04.49-.92.86-1.91,1.09-2.96-.09.02-.17.04-.27.04-.25,0-.48-.1-.65-.26-.36,1.57-1.06,3.01-2.03,4.23,0,0,0,0,0,0,0,.51-.39.92-.89.97-1.74,1.7-4.06,2.81-6.63,2.99-.17.29-.48.48-.84.48s-.67-.2-.84-.49c-1.79-.15-3.46-.76-4.89-1.69.43.15.87.27,1.32.37-.07-.08-.13-.16-.17-.26.11.04.23.07.36.07.54,0,.98-.44.98-.98,0-.14-.03-.28-.09-.4.36.14.62.5.62.91,0,.37-.21.69-.51.86.41.05.82.08,1.24.08.82,0,1.61-.09,2.37-.25-.01-.03-.02-.07-.03-.1.05.02.09.05.13.07,1.29-.29,2.5-.8,3.59-1.49,0-.03-.02-.05-.03-.08.03.01.05.03.08.04,1.45-.94,2.67-2.19,3.56-3.67-.13.06-.27.1-.42.1-.4,0-.74-.24-.9-.58.11.04.23.07.36.07.54,0,.98-.44.98-.98,0-.14-.03-.28-.09-.4.32.13.55.42.6.78.68-1.45,1.07-3.07,1.07-4.79s-.41-3.43-1.13-4.92c-.18.27-.48.44-.82.44-.4,0-.74-.24-.9-.58.11.04.23.07.36.07.54,0,.98-.44.98-.98,0-.14-.03-.28-.09-.4.36.14.62.5.62.91,0,.18-.05.35-.14.5,1.26,1.5,2.09,3.36,2.36,5.39.36-.02.68-.23.83-.54-.16-.87-.41-1.71-.76-2.5-.21-.1-.39-.27-.48-.48M509.46,607.64c.54,0,.98-.44.98-.98,0-.14-.03-.28-.09-.4.36.14.62.5.62.91,0,.54-.44.98-.98.98-.4,0-.74-.24-.9-.58.11.04.23.07.36.07M509.46,611.1c.54,0,.98-.44.98-.98,0-.14-.03-.28-.09-.4.36.14.62.5.62.91,0,.54-.44.98-.98.98-.4,0-.74-.24-.9-.58.11.05.23.07.36.07M509.46,614.56c.54,0,.98-.44.98-.98,0-.14-.03-.28-.09-.4.36.14.62.5.62.91,0,.54-.44.98-.98.98-.4,0-.74-.24-.9-.58.11.04.23.07.36.07M509.39,618.03c.54,0,.98-.44.98-.98,0-.14-.03-.28-.09-.4.36.14.62.5.62.91,0,.54-.44.98-.98.98-.4,0-.74-.24-.9-.58.11.04.23.07.36.07M510.02,622c-.4,0-.74-.24-.9-.58.11.04.23.07.36.07.54,0,.98-.44.98-.98,0-.14-.03-.28-.09-.4.36.14.62.5.62.91,0,.54-.44.98-.98.98M513.05,606.15c.54,0,.98-.44.98-.98,0-.14-.03-.28-.09-.4.36.14.62.5.62.91,0,.54-.44.98-.98.98-.4,0-.74-.24-.9-.58.11.04.23.07.36.07M513.61,620.5c-.4,0-.74-.24-.9-.58.11.04.23.07.36.07.54,0,.98-.44.98-.98,0-.14-.03-.28-.09-.4.36.14.62.5.62.91,0,.54-.44.98-.98.98M513.68,617.04c-.4,0-.74-.24-.9-.58.11.04.23.07.36.07.54,0,.98-.44.98-.98,0-.14-.03-.28-.09-.4.36.14.62.5.62.91,0,.54-.44.98-.98.98M513.68,613.58c-.4,0-.74-.24-.9-.58.11.04.23.07.36.07.54,0,.98-.44.98-.98,0-.14-.03-.28-.09-.4.36.14.62.5.62.91,0,.54-.44.98-.98.98M513.68,610.12c-.4,0-.74-.24-.9-.58.11.04.23.07.36.07.54,0,.98-.44.98-.98,0-.14-.03-.28-.09-.4.36.14.62.5.62.91,0,.54-.44.98-.98.98M516.84,607.64c.54,0,.98-.44.98-.98,0-.14-.03-.28-.09-.4.36.14.62.5.62.91,0,.54-.44.98-.98.98-.4,0-.74-.24-.9-.58.11.04.23.07.36.07M516.84,611.1c.54,0,.98-.44.98-.98,0-.14-.03-.28-.09-.4.36.14.62.5.62.91,0,.54-.44.98-.98.98-.4,0-.74-.24-.9-.58.11.05.23.07.36.07M516.84,614.56c.54,0,.98-.44.98-.98,0-.14-.03-.28-.09-.4.36.14.62.5.62.91,0,.54-.44.98-.98.98-.4,0-.74-.24-.9-.58.11.04.23.07.36.07M516.76,618.03c.54,0,.98-.44.98-.98,0-.14-.03-.28-.09-.4.36.14.62.5.62.91,0,.54-.44.98-.98.98-.4,0-.74-.24-.9-.58.11.04.23.07.36.07M517.4,622c-.4,0-.74-.24-.9-.58.11.04.23.07.36.07.54,0,.98-.44.98-.98,0-.14-.03-.28-.09-.4.36.14.62.5.62.91,0,.54-.44.98-.98.98M520.42,606.15c.54,0,.98-.44.98-.98,0-.14-.03-.28-.09-.4.36.14.62.5.62.91,0,.54-.44.98-.98.98-.4,0-.74-.24-.9-.58.11.04.23.07.36.07M520.99,620.5c-.4,0-.74-.24-.9-.58.11.04.23.07.36.07.54,0,.98-.44.98-.98,0-.14-.03-.28-.09-.4.36.14.62.5.62.91,0,.54-.44.98-.98.98M521.06,617.04c-.4,0-.74-.24-.9-.58.11.04.23.07.36.07.54,0,.98-.44.98-.98,0-.14-.03-.28-.09-.4.36.14.62.5.62.91,0,.54-.44.98-.98.98M521.06,613.58c-.4,0-.74-.24-.9-.58.11.04.23.07.36.07.54,0,.98-.44.98-.98,0-.14-.03-.28-.09-.4.36.14.62.5.62.91,0,.54-.44.98-.98.98M521.06,610.12c-.4,0-.74-.24-.9-.58.11.04.23.07.36.07.54,0,.98-.44.98-.98,0-.14-.03-.28-.09-.4.36.14.62.5.62.91,0,.54-.44.98-.98.98M524.75,615.08c-.4,0-.74-.24-.9-.58.11.04.23.07.36.07.54,0,.98-.44.98-.98,0-.14-.03-.28-.09-.4.36.14.62.5.62.91,0,.54-.44.98-.98.98M524.22,611.1c.54,0,.98-.44.98-.98,0-.14-.03-.28-.09-.4.36.14.62.5.62.91,0,.54-.44.98-.98.98-.4,0-.74-.24-.9-.58.11.05.23.07.36.07"/>
        <path class="cls-46" d="M528.01,613.47c.03.32.04.64.04.97,0,.71-.07,1.41-.21,2.09.02,0,.04,0,.06,0,.54,0,.98-.44.98-.98,0-.14-.03-.28-.09-.4.05.02.1.05.15.08.01-.22.02-.44.02-.67,0-.37-.02-.74-.05-1.11-.14.08-.3.13-.47.13-.16,0-.3-.04-.43-.11"/>
        <path class="cls-50" d="M516.87,624.95c.54,0,.98-.44.98-.98,0-.11-.02-.21-.05-.3-.76.16-1.56.25-2.37.25-.42,0-.83-.03-1.24-.08-.14.08-.3.13-.47.13-.29,0-.54-.13-.72-.33-.45-.1-.89-.21-1.32-.36,1.43.94,3.09,1.54,4.89,1.69-.02-.03-.04-.06-.06-.09.11.05.23.07.36.07"/>
        <path class="cls-50" d="M527.54,616.46c.09.04.2.06.3.07.14-.67.21-1.37.21-2.09,0-.33-.01-.65-.04-.97-.2-.1-.37-.26-.47-.47.11.04.23.07.36.07.02,0,.03,0,.05,0-.26-2.04-1.1-3.89-2.36-5.39,0,.02-.02.03-.03.05.72,1.49,1.13,3.15,1.13,4.92s-.38,3.33-1.07,4.79c0,.05.02.09.02.14,0,.39-.23.73-.57.89-.89,1.48-2.11,2.74-3.56,3.67.32.16.54.48.54.87,0,.54-.44.98-.98.98-.4,0-.74-.24-.9-.58.11.05.23.07.36.07.54,0,.98-.44.98-.98,0-.11-.02-.22-.06-.32-1.08.69-2.29,1.2-3.59,1.49.29.17.49.48.49.84,0,.18-.05.35-.14.5,2.58-.18,4.9-1.29,6.63-2.99-.03,0-.06,0-.1,0-.4,0-.74-.24-.9-.58.11.04.23.07.36.07.54,0,.98-.44.98-.98,0-.14-.03-.28-.09-.4.36.14.62.49.62.9.97-1.22,1.67-2.66,2.03-4.23-.1-.09-.19-.2-.24-.32"/>
        <path class="cls-49" d="M517.49,599.33c-8.4,0-15.23,6.83-15.23,15.23s6.83,15.23,15.23,15.23,15.23-6.83,15.23-15.23-6.83-15.23-15.23-15.23M521.94,602.22c0,.54-.44.98-.98.98-.4,0-.74-.24-.9-.58.11.04.23.07.36.07.54,0,.98-.44.98-.98,0-.14-.03-.28-.09-.4.36.14.62.5.62.91M514.57,602.22c0,.54-.44.98-.98.98-.4,0-.74-.24-.9-.58.11.04.23.07.36.07.54,0,.98-.44.98-.98,0-.14-.03-.28-.09-.4.36.14.62.5.62.91M506.34,623.96c-.4,0-.74-.24-.9-.58.11.04.23.07.36.07.54,0,.98-.44.98-.98,0-.14-.03-.28-.09-.4.36.14.62.5.62.91,0,.54-.44.98-.98.98M514.07,625.53c.36.14.62.5.62.91,0,.54-.44.98-.98.98-.4,0-.74-.24-.9-.58.11.04.23.07.36.07.54,0,.98-.44.98-.98,0-.14-.03-.28-.09-.4M517.4,628.92c-.4,0-.74-.24-.9-.58.11.04.23.07.36.07.54,0,.98-.44.98-.98,0-.14-.03-.28-.09-.4.36.14.62.5.62.91,0,.54-.44.98-.98.98M521.45,625.53c.36.14.62.5.62.91,0,.54-.44.98-.98.98-.4,0-.74-.24-.9-.58.11.04.23.07.36.07.54,0,.98-.44.98-.98,0-.14-.03-.28-.09-.4M525.14,623.57c.36.14.62.5.62.91,0,.54-.44.98-.98.98-.4,0-.74-.24-.9-.58.11.04.23.07.36.07.54,0,.98-.44.98-.98,0-.14-.03-.28-.09-.4M529.42,609.14c0,.54-.44.98-.98.98-.15,0-.29-.04-.41-.1.34.79.6,1.63.76,2.5.07-.13.11-.28.11-.43,0-.14-.03-.28-.09-.4.36.14.62.5.62.91,0,.37-.21.69-.51.86.03.37.05.74.05,1.11,0,.22,0,.45-.02.67.28.17.47.47.47.83,0,.45-.3.83-.72.94-.23,1.05-.6,2.04-1.09,2.96.07.02.14.03.22.03.54,0,.98-.44.98-.98,0-.14-.03-.28-.09-.4.36.14.62.5.62.91,0,.54-.44.98-.98.98-.34,0-.63-.18-.8-.44-1.95,3.56-5.73,5.97-10.07,5.97-2.51,0-4.84-.81-6.73-2.19.15.17.24.39.24.63,0,.54-.44.98-.98.98-.4,0-.74-.24-.9-.58.11.04.23.07.36.07.54,0,.98-.44.98-.98,0-.14-.03-.28-.09-.4.01,0,.02.01.03.02-1.34-1.06-2.44-2.4-3.21-3.95-.06.49-.47.87-.97.87-.4,0-.74-.24-.9-.58.11.04.23.07.36.07.54,0,.98-.44.98-.98,0-.14-.03-.28-.09-.4.08.03.15.08.21.12-.21-.55-.39-1.11-.51-1.69-.39,0-.73-.24-.88-.58.11.04.23.07.36.07.14,0,.28-.03.4-.09-.1-.61-.16-1.24-.16-1.88,0-.34.02-.68.05-1.02-.29-.07-.54-.28-.66-.55.11.05.23.07.36.07s.25-.03.36-.07c.16-1.16.49-2.26.97-3.28-.18.24-.47.4-.79.4-.4,0-.74-.24-.9-.58.11.05.23.07.36.07.54,0,.98-.44.98-.98,0-.14-.03-.28-.09-.4.36.14.62.5.62.91,0,.1-.02.19-.05.28,1.89-3.75,5.77-6.33,10.25-6.33.07,0,.14,0,.21,0-.01-.11-.03-.21-.08-.3.16.06.29.17.4.31,4.32.2,8.02,2.8,9.8,6.5.02,0,.04,0,.07,0,.54,0,.98-.44.98-.98,0-.14-.03-.28-.09-.4.36.14.62.5.62.91"/>
        <path class="cls-49" d="M520.96,606.66c.54,0,.98-.44.98-.98,0-.41-.26-.77-.62-.91.05.12.09.26.09.4,0,.54-.44.98-.98.98-.13,0-.25-.03-.36-.07.15.34.5.58.9.58"/>
        <path class="cls-49" d="M520.42,602.69c-.13,0-.25-.03-.36-.07.15.34.5.58.9.58.54,0,.98-.44.98-.98,0-.42-.26-.77-.62-.91.05.12.09.26.09.4,0,.54-.44.98-.98.98"/>
        <path class="cls-49" d="M521.42,608.23c.05.12.09.26.09.4,0,.54-.44.98-.98.98-.13,0-.25-.03-.36-.07.15.34.5.58.9.58.54,0,.98-.44.98-.98,0-.41-.26-.77-.62-.91"/>
        <path class="cls-49" d="M521.42,611.69c.05.12.09.26.09.4,0,.54-.44.98-.98.98-.13,0-.25-.03-.36-.07.15.34.5.58.9.58.54,0,.98-.44.98-.98,0-.41-.26-.77-.62-.91"/>
        <path class="cls-49" d="M521.42,615.15c.05.12.09.26.09.4,0,.54-.44.98-.98.98-.13,0-.25-.03-.36-.07.15.34.5.58.9.58.54,0,.98-.44.98-.98,0-.41-.26-.77-.62-.91"/>
        <path class="cls-49" d="M521.35,618.61c.05.12.09.26.09.4,0,.54-.44.98-.98.98-.13,0-.25-.03-.36-.07.15.34.5.58.9.58.54,0,.98-.44.98-.98,0-.41-.26-.77-.62-.91"/>
        <path class="cls-49" d="M520.55,623.45c-.13,0-.25-.03-.36-.07.15.34.5.58.9.58.54,0,.98-.44.98-.98,0-.38-.22-.7-.54-.87-.03-.01-.05-.04-.08-.05.01.02.02.05.03.08.04.1.06.21.06.32,0,.54-.44.98-.98.98"/>
        <path class="cls-49" d="M520.55,626.91c-.13,0-.25-.03-.36-.07.15.34.5.58.9.58.54,0,.98-.44.98-.98,0-.42-.26-.77-.62-.91.05.12.09.26.09.4,0,.54-.44.98-.98.98"/>
        <path class="cls-49" d="M516.74,604.18c-.13,0-.25-.03-.36-.07.15.34.5.58.9.58.54,0,.98-.44.98-.98,0-.23-.09-.44-.22-.61-.11-.13-.24-.24-.4-.31.04.09.06.19.08.3,0,.03.01.07.01.1,0,.54-.44.98-.98.98"/>
        <path class="cls-49" d="M517.37,608.15c.54,0,.98-.44.98-.98,0-.41-.26-.77-.62-.91.05.12.09.26.09.4,0,.54-.44.98-.98.98-.13,0-.25-.03-.36-.07.15.34.5.58.9.58"/>
        <path class="cls-49" d="M517.37,611.62c.54,0,.98-.44.98-.98,0-.41-.26-.77-.62-.91.05.12.09.26.09.4,0,.54-.44.98-.98.98-.13,0-.25-.03-.36-.07.15.34.5.58.9.58"/>
        <path class="cls-49" d="M517.37,615.08c.54,0,.98-.44.98-.98,0-.42-.26-.77-.62-.91.05.12.09.26.09.4,0,.54-.44.98-.98.98-.13,0-.25-.03-.36-.07.15.34.5.58.9.58"/>
        <path class="cls-49" d="M517.3,618.54c.54,0,.98-.44.98-.98,0-.41-.26-.77-.62-.91.05.12.09.26.09.4,0,.54-.44.98-.98.98-.13,0-.25-.03-.36-.07.15.34.5.58.9.58"/>
        <path class="cls-49" d="M517.76,620.1c.05.12.09.26.09.4,0,.54-.44.98-.98.98-.13,0-.25-.03-.36-.07.15.34.5.58.9.58.54,0,.98-.44.98-.98,0-.41-.26-.77-.62-.91"/>
        <path class="cls-49" d="M517.89,623.64s-.08-.06-.13-.07c.01.03.02.06.03.1.03.1.05.2.05.3,0,.54-.44.98-.98.98-.13,0-.25-.03-.36-.07.01.03.04.06.06.09.17.29.48.49.84.49s.67-.19.84-.48c.09-.15.14-.32.14-.5,0-.36-.2-.67-.49-.84"/>
        <path class="cls-49" d="M518.38,627.94c0-.42-.26-.77-.62-.91.05.12.09.26.09.4,0,.54-.44.98-.98.98-.13,0-.25-.03-.36-.07.15.34.5.58.9.58.54,0,.98-.44.98-.98"/>
        <path class="cls-49" d="M513.58,606.66c.54,0,.98-.44.98-.98,0-.41-.26-.77-.62-.91.05.12.09.26.09.4,0,.54-.44.98-.98.98-.13,0-.25-.03-.36-.07.15.34.5.58.9.58"/>
        <path class="cls-49" d="M513.05,602.69c-.13,0-.25-.03-.36-.07.15.34.5.58.9.58.54,0,.98-.44.98-.98,0-.42-.26-.77-.62-.91.05.12.09.26.09.4,0,.54-.44.98-.98.98"/>
        <path class="cls-49" d="M514.05,608.23c.05.12.09.26.09.4,0,.54-.44.98-.98.98-.13,0-.25-.03-.36-.07.15.34.5.58.9.58.54,0,.98-.44.98-.98,0-.41-.26-.77-.62-.91"/>
        <path class="cls-49" d="M514.05,611.69c.05.12.09.26.09.4,0,.54-.44.98-.98.98-.13,0-.25-.03-.36-.07.15.34.5.58.9.58.54,0,.98-.44.98-.98,0-.41-.26-.77-.62-.91"/>
        <path class="cls-49" d="M514.05,615.15c.05.12.09.26.09.4,0,.54-.44.98-.98.98-.13,0-.25-.03-.36-.07.15.34.5.58.9.58.54,0,.98-.44.98-.98,0-.41-.26-.77-.62-.91"/>
        <path class="cls-49" d="M513.97,618.61c.05.12.09.26.09.4,0,.54-.44.98-.98.98-.13,0-.25-.03-.36-.07.15.34.5.58.9.58.54,0,.98-.44.98-.98,0-.41-.26-.77-.62-.91"/>
        <path class="cls-49" d="M514.18,623.84c.3-.17.51-.49.51-.86,0-.41-.26-.77-.62-.91.05.12.09.26.09.4,0,.54-.44.98-.98.98-.13,0-.25-.03-.36-.07.04.1.1.18.17.26.18.2.43.33.72.33.17,0,.33-.05.47-.13"/>
        <path class="cls-49" d="M513.18,626.91c-.13,0-.25-.03-.36-.07.15.34.5.58.9.58.54,0,.98-.44.98-.98,0-.42-.26-.77-.62-.91.05.12.09.26.09.4,0,.54-.44.98-.98.98"/>
        <path class="cls-49" d="M507.29,609.14c0-.42-.26-.77-.62-.91.05.12.09.26.09.4,0,.54-.44.98-.98.98-.13,0-.25-.03-.36-.07.15.34.5.58.9.58.33,0,.61-.16.79-.4.07-.09.11-.19.15-.3.03-.09.04-.18.04-.28"/>
        <path class="cls-49" d="M507.29,612.6c0-.42-.26-.77-.62-.91.05.12.09.26.09.4,0,.42-.26.77-.62.91-.11.04-.23.07-.36.07s-.25-.03-.36-.07c.12.27.36.47.66.55.08.02.16.04.24.04.54,0,.98-.44.98-.98"/>
        <path class="cls-49" d="M507.29,616.06c0-.42-.26-.77-.62-.91.05.12.09.26.09.4,0,.4-.24.74-.58.89-.12.06-.26.09-.4.09-.13,0-.25-.03-.36-.07.15.34.49.58.88.58,0,0,.01,0,.02,0,.54,0,.98-.44.98-.98"/>
        <path class="cls-49" d="M506.81,618.73c-.07-.05-.14-.09-.21-.12.05.12.09.26.09.4,0,.54-.44.98-.98.98-.13,0-.25-.03-.36-.07.15.34.5.58.9.58.51,0,.92-.38.97-.87,0-.04.01-.07.01-.11,0-.33-.16-.61-.41-.79"/>
        <path class="cls-49" d="M507.32,622.98c0-.42-.26-.77-.62-.91.05.12.09.26.09.4,0,.54-.44.98-.98.98-.13,0-.25-.03-.36-.07.15.34.5.58.9.58.54,0,.98-.44.98-.98"/>
        <path class="cls-49" d="M510,608.15c.54,0,.98-.44.98-.98,0-.41-.26-.77-.62-.91.05.12.09.26.09.4,0,.54-.44.98-.98.98-.13,0-.25-.03-.36-.07.15.34.5.58.9.58"/>
        <path class="cls-49" d="M510,611.62c.54,0,.98-.44.98-.98,0-.41-.26-.77-.62-.91.05.12.09.26.09.4,0,.54-.44.98-.98.98-.13,0-.25-.03-.36-.07.15.34.5.58.9.58"/>
        <path class="cls-49" d="M510,615.08c.54,0,.98-.44.98-.98,0-.42-.26-.77-.62-.91.05.12.09.26.09.4,0,.54-.44.98-.98.98-.13,0-.25-.03-.36-.07.15.34.5.58.9.58"/>
        <path class="cls-49" d="M509.92,618.54c.54,0,.98-.44.98-.98,0-.41-.26-.77-.62-.91.05.12.09.26.09.4,0,.54-.44.98-.98.98-.13,0-.25-.03-.36-.07.15.34.5.58.9.58"/>
        <path class="cls-49" d="M510.39,620.1c.05.12.09.26.09.4,0,.54-.44.98-.98.98-.13,0-.25-.03-.36-.07.15.34.5.58.9.58.54,0,.98-.44.98-.98,0-.41-.26-.77-.62-.91"/>
        <path class="cls-49" d="M510.41,623.58s-.02-.01-.03-.02c.05.12.09.26.09.4,0,.54-.44.98-.98.98-.13,0-.25-.03-.36-.07.15.34.5.58.9.58.54,0,.98-.44.98-.98,0-.24-.09-.46-.24-.63-.1-.11-.22-.21-.35-.27"/>
        <path class="cls-49" d="M527.9,609.61s-.04,0-.07,0c-.1,0-.2-.03-.3-.06.1.22.27.38.48.48.13.06.26.1.41.1.54,0,.98-.44.98-.98,0-.42-.26-.77-.62-.91.05.12.09.26.09.4,0,.54-.44.98-.98.98"/>
        <path class="cls-49" d="M527.95,613.06s-.03,0-.05,0c-.13,0-.25-.03-.36-.07.09.21.26.37.46.47.13.07.27.11.43.11.17,0,.33-.05.47-.13.3-.17.51-.49.51-.86,0-.42-.26-.77-.62-.91.05.12.09.26.09.4,0,.16-.04.3-.1.43-.15.31-.47.53-.83.54"/>
        <path class="cls-49" d="M528.89,615.55c0,.54-.44.98-.98.98-.02,0-.04,0-.06,0-.11,0-.21-.03-.3-.07.06.13.14.23.24.32.17.16.4.26.65.26.09,0,.18-.02.27-.04.41-.12.72-.49.72-.94,0-.35-.19-.65-.47-.83-.05-.03-.09-.06-.15-.08.05.12.09.26.09.4"/>
        <path class="cls-49" d="M527.56,620.07c.18.26.47.44.8.44.54,0,.98-.44.98-.98,0-.41-.26-.77-.62-.91.05.12.09.26.09.4,0,.54-.44.98-.98.98-.08,0-.15-.01-.22-.03-.05-.01-.1-.02-.15-.04.02.05.06.1.09.15"/>
        <path class="cls-49" d="M525.73,607.17c0-.42-.26-.77-.62-.91.05.12.09.26.09.4,0,.54-.44.98-.98.98-.13,0-.25-.03-.36-.07.15.34.5.58.9.58.34,0,.64-.17.82-.44,0-.01.02-.03.02-.05.09-.15.14-.31.14-.5"/>
        <path class="cls-49" d="M524.75,611.62c.54,0,.98-.44.98-.98,0-.41-.26-.77-.62-.91.05.12.09.26.09.4,0,.54-.44.98-.98.98-.13,0-.25-.03-.36-.07.15.34.5.58.9.58"/>
        <path class="cls-49" d="M525.11,613.18c.05.12.09.26.09.4,0,.54-.44.98-.98.98-.13,0-.25-.03-.36-.07.15.34.5.58.9.58.54,0,.98-.44.98-.98,0-.41-.26-.77-.62-.91"/>
        <path class="cls-49" d="M525.66,617.56s-.01-.09-.02-.14c-.05-.35-.28-.65-.6-.78.05.12.09.26.09.4,0,.54-.44.98-.98.98-.13,0-.25-.03-.36-.07.15.34.5.58.9.58.15,0,.29-.04.42-.1.33-.16.57-.49.57-.89"/>
        <path class="cls-49" d="M525.14,620.1c.05.12.09.26.09.4,0,.54-.44.98-.98.98-.13,0-.25-.03-.36-.07.15.34.5.58.9.58.03,0,.07,0,.1,0,.5-.05.89-.46.89-.97,0,0,0,0,0,0,0-.41-.26-.76-.62-.9"/>
        <path class="cls-49" d="M524.24,624.95c-.13,0-.25-.03-.36-.07.15.34.5.58.9.58.54,0,.98-.44.98-.98,0-.42-.26-.77-.62-.91.05.12.09.26.09.4,0,.54-.44.98-.98.98"/>
        <path class="cls-46" d="M221.55,544.19l-17.48,6.35-17.48-6.35,2.74-4.22c4.6-1.68,9.56-2.59,14.73-2.59s10.14.92,14.74,2.59l2.74,4.22Z"/>
        <polygon class="cls-46" points="231.63 571.11 222.31 575.87 204.55 562.96 204.55 551.38 222.2 544.97 232.28 552.29 231.63 571.11"/>
        <polygon class="cls-46" points="203.6 562.96 185.83 575.87 176.51 571.11 175.87 552.29 185.95 544.97 203.6 551.38 203.6 562.96"/>
        <path class="cls-46" d="M243.91,585.78c.23-1.73.36-3.49.36-5.28,0-3.14-.37-6.2-1.06-9.14-.13,3.88-.75,7.64-1.8,11.21l-8.84-11.33.64-18.58,4.83,1.3c5.74,7.32,9.16,16.54,9.16,26.55,0,.5-.01,1-.03,1.49l-3.16,3.9-.1-.12Z"/>
        <path class="cls-46" d="M168.59,599.62l17.87,5.14,6.89,10.21c-5.95-.59-11.56-2.32-16.61-4.98,5.48,5.09,12.38,8.66,20.04,10.06l.08.12-4.7,1.8c-9.83-2.83-18.23-9.07-23.84-17.35l.26-5Z"/>
        <path class="cls-46" d="M221.69,604.75l7.56-2.17c-3.38,3.24-7.26,5.96-11.52,8.03l3.96-5.86Z"/>
        <path class="cls-46" d="M194.56,615.06l-7.21-10.67,5.67-6.1h22.08l5.67,6.1-4.72,6.99c-5.57,2.44-11.73,3.8-18.2,3.8-1.11,0-2.21-.04-3.3-.12"/>
        <path class="cls-46" d="M239.43,599.65l.13-.04.26,5c-5.6,8.28-14.01,14.52-23.84,17.35l-4.7-1.8.08-.13c12.14-2.23,22.37-9.89,28.06-20.38"/>
        <path class="cls-46" d="M160.95,580.51c0-10,3.42-19.22,9.16-26.55l4.83-1.29.64,18.58-11.44,14.66-3.16-3.9c-.02-.5-.03-.99-.03-1.49"/>
        <path class="cls-46" d="M232.96,551.62l-10.35-7.52-2.3-3.54c6.51,2.66,12.22,6.86,16.7,12.14l-4.05-1.09Z"/>
        <path class="cls-46" d="M240.48,599.06l3.95-12.16,2.66-3.29c-.51,7.17-2.79,13.86-6.39,19.65l-.22-4.2Z"/>
        <path class="cls-46" d="M187.83,540.56l-2.3,3.54-10.35,7.52-4.05,1.09c4.47-5.29,10.19-9.49,16.69-12.14"/>
        <path class="cls-46" d="M163.72,586.9l3.95,12.16-.22,4.2c-3.61-5.78-5.88-12.47-6.39-19.65l2.66,3.29Z"/>
        <path class="cls-46" d="M193.73,622.38l3.95-1.52h12.79l3.95,1.52c-3.32.82-6.78,1.26-10.34,1.26s-7.03-.44-10.35-1.26"/>
        <polygon class="cls-46" points="204.07 563.79 221.71 576.6 214.98 597.34 193.17 597.34 186.43 576.6 204.07 563.79"/>
        <path class="cls-46" d="M215.86,597.7l6.8-20.94,9.3-4.75,9.11,11.68c-2.13,6.63-5.74,12.6-10.45,17.51l-9.09,2.61-5.68-6.11Z"/>
        <polygon class="cls-46" points="176.18 572 185.48 576.76 192.29 597.7 186.61 603.81 168.52 598.61 164.67 586.76 176.18 572"/>
        <path class="cls-55" d="M229.25,602.58l10.18-2.93c-5.7,10.49-15.93,18.16-28.06,20.38l6.36-9.42c4.26-2.07,8.14-4.79,11.52-8.03"/>
        <path class="cls-55" d="M244.27,580.51c0,1.79-.13,3.55-.36,5.28l-2.5-3.2c1.05-3.57,1.67-7.33,1.8-11.21.68,2.94,1.06,5.99,1.06,9.14"/>
        <path class="cls-55" d="M243.48,586.76l-3.85,11.85-9,2.59c4.71-4.91,8.32-10.88,10.45-17.51l2.4,3.08Z"/>
        <path class="cls-55" d="M197.86,615.18c6.47,0,12.63-1.36,18.2-3.8l-5.76,8.53h-12.46l-3.28-4.85c1.09.08,2.19.12,3.3.12"/>
        <path class="cls-55" d="M193.35,614.96l3.43,5.08c-7.66-1.4-14.56-4.98-20.04-10.06,5.05,2.66,10.66,4.4,16.61,4.98"/>
        <path class="cls-49" d="M155.26,580.51c0,26.91,21.9,48.81,48.81,48.81s48.81-21.9,48.81-48.81-21.9-48.81-48.81-48.81-48.81,21.9-48.81,48.81M168.33,604.62l.26-5,17.87,5.14,6.89,10.21,3.43,5.08.08.12-4.7,1.8c-9.83-2.83-18.24-9.07-23.84-17.35M211.36,620.03l6.36-9.42,3.96-5.86,7.56-2.17,10.18-2.93.13-.04.26,5c-5.6,8.28-14.01,14.52-23.84,17.35l-4.7-1.8.08-.13ZM247.17,582l-3.16,3.9-.1-.12-2.5-3.2-8.84-11.33.64-18.58,4.83,1.3c5.74,7.32,9.16,16.54,9.16,26.55,0,.5-.01,1-.03,1.49M232.27,552.29l-.65,18.82-9.32,4.76-17.77-12.91v-11.58l17.65-6.41,10.08,7.32ZM204.07,537.38c5.17,0,10.13.92,14.73,2.59l2.74,4.22-17.48,6.35-17.48-6.35,2.74-4.22c4.6-1.68,9.56-2.59,14.73-2.59M203.6,551.38v11.58l-17.77,12.91-9.32-4.76-.65-18.82,10.08-7.32,17.65,6.41ZM194.56,615.06l-7.21-10.67,5.67-6.1h22.08l5.67,6.1-4.72,6.99-5.76,8.53h-12.46l-3.28-4.85ZM221.54,603.81l-5.68-6.11,6.8-20.94,9.3-4.75,9.12,11.68,2.4,3.08-3.85,11.85-9,2.59-9.09,2.61ZM186.43,576.6l17.64-12.82,17.64,12.82-6.74,20.74h-21.81l-6.74-20.74ZM164.67,586.76l11.52-14.76,9.3,4.75,6.8,20.94-5.68,6.11-18.09-5.2-3.85-11.85ZM160.97,582c-.02-.5-.03-.99-.03-1.49,0-10,3.43-19.22,9.16-26.55l4.83-1.3.64,18.58-11.44,14.66-3.16-3.9ZM171.13,552.71c4.47-5.29,10.19-9.49,16.69-12.14l-2.3,3.54-10.35,7.52-4.05,1.09ZM237.01,552.71l-4.05-1.09-10.35-7.52-2.3-3.54c6.51,2.66,12.23,6.86,16.7,12.14M247.09,583.61c-.51,7.17-2.79,13.86-6.39,19.65l-.22-4.2,3.95-12.16,2.66-3.29ZM214.42,622.38c-3.32.82-6.78,1.26-10.35,1.26s-7.03-.44-10.34-1.26l3.95-1.51h12.79l3.95,1.51ZM167.45,603.26c-3.61-5.78-5.88-12.47-6.39-19.65l2.66,3.29,3.95,12.16-.22,4.2Z"/>
        <polygon class="cls-34" points="236.15 528.67 233.1 527.95 235.02 514.61 240.38 515.87 236.15 528.67"/>
        <polygon class="cls-34" points="246.94 534.45 244.35 532.68 250.94 520.92 255.49 524.03 246.94 534.45"/>
        <polygon class="cls-34" points="255.9 543.84 254.34 541.12 265.38 533.39 268.13 538.17 255.9 543.84"/>
      </g>
      <g>
        <path class="cls-49" d="M10.71,169c0,19.19,15.56,34.75,34.75,34.75s34.75-15.56,34.75-34.75-15.56-34.75-34.75-34.75-34.75,15.56-34.75,34.75"/>
        <polygon class="cls-49" points="73.34 183.82 78.05 199.27 62.99 194.97 73.34 183.82"/>
        <polygon class="cls-52" points="153.11 215.77 103.6 215.25 55.77 284.23 120.26 284.23 153.11 215.77"/>
        <polygon class="cls-52" points="389.15 284.23 451.66 284.23 403.85 215.27 356.31 215.77 389.15 284.23"/>
        <polygon class="cls-37" points="451.66 284.23 389.15 284.23 356.31 215.77 403.85 215.27 386.16 189.75 299.63 189.75 207.8 189.75 121.27 189.75 103.6 215.25 153.11 215.77 120.26 284.23 55.77 284.23 23.89 330.21 207.8 330.21 299.63 330.21 483.54 330.21 451.66 284.23"/>
      </g>
      <text class="cls-25" transform="translate(145.45 262.82)"><tspan x="0" y="0">幅６ｍ</tspan></text>
      <text class="cls-21" transform="translate(152.17 243.49)"><tspan x="0" y="0">ゴール</tspan></text>
      <g>
        <polygon class="cls-10" points="386.16 189.75 299.63 189.75 207.8 189.75 121.27 189.75 23.9 330.21 207.8 330.21 299.63 330.21 483.54 330.21 386.16 189.75"/>
        <polyline class="cls-9" points="105.56 215.01 153.11 215.01 120.77 284.23 55.77 284.23"/>
        <polyline class="cls-9" points="403.85 215.01 356.31 215.01 388.65 284.23 453.65 284.23"/>
        <line class="cls-9" x1="253.72" y1="189.75" x2="253.72" y2="330.21"/>
        <path class="cls-35" d="M263.82,246.1c0,4.31-4.52,7.8-10.11,7.8s-10.11-3.49-10.11-7.8,4.52-7.8,10.11-7.8,10.11,3.49,10.11,7.8"/>
        <line class="cls-7" x1="35.37" y1="313.88" x2="44.73" y2="330.43"/>
        <line class="cls-7" x1="114.79" y1="199.1" x2="134.92" y2="191.05"/>
        <line class="cls-7" x1="472.37" y1="313.88" x2="463.01" y2="330.43"/>
        <line class="cls-7" x1="392.95" y1="199.1" x2="372.82" y2="191.05"/>
      </g>
      <text class="cls-18" transform="translate(223.31 158.47)"><tspan x="0" y="0">2</tspan><tspan class="cls-42" x="8.53" y="0">5～</tspan><tspan x="38.05" y="0">30ｍ</tspan></text>
      <text class="cls-19" transform="translate(295.3 222.49) rotate(80.27)"><tspan x="0" y="0">1</tspan><tspan class="cls-43" x="8.53" y="0">4</tspan><tspan class="cls-44" x="20.54" y="0">～</tspan><tspan x="38.04" y="0">18ｍ</tspan></text>
      <g>
        <line class="cls-8" x1="378.29" y1="167.84" x2="128.47" y2="167.84"/>
        <polygon class="cls-54" points="382.88 167.84 376.41 165.2 377.95 167.84 376.41 170.48 382.88 167.84"/>
        <path class="cls-54" d="M124.55,167.84c1.85-.68,4.14-1.85,5.56-3.09l-1.12,3.09,1.12,3.09c-1.42-1.24-3.71-2.41-5.56-3.09"/>
        <line class="cls-8" x1="302.85" y1="319.53" x2="285.35" y2="199.77"/>
        <polygon class="cls-54" points="303.51 324.07 305.19 317.29 302.8 319.19 299.96 318.05 303.51 324.07"/>
        <path class="cls-54" d="M284.78,195.89c.95,1.73,2.43,3.83,3.86,5.05l-3.22-.66-2.9,1.55c1.02-1.58,1.85-4.02,2.26-5.94"/>
        <line class="cls-8" x1="110.52" y1="264.46" x2="126.84" y2="232.32"/>
        <polygon class="cls-54" points="108.44 268.55 113.73 263.98 110.68 264.15 109.02 261.59 108.44 268.55"/>
        <path class="cls-54" d="M128.62,228.83c-.23,1.96-.22,4.53.24,6.35l-2.25-2.4-3.26-.4c1.75-.71,3.82-2.22,5.27-3.55"/>
        <path class="cls-36" d="M74.52,269.49c0,3.1-3.43,5.62-7.66,5.62s-7.66-2.52-7.66-5.62,3.43-5.62,7.66-5.62,7.66,2.52,7.66,5.62"/>
        <path class="cls-7" d="M74.52,269.49c0,3.1-3.43,5.62-7.66,5.62s-7.66-2.52-7.66-5.62,3.43-5.62,7.66-5.62,7.66,2.52,7.66,5.62Z"/>
        <path class="cls-36" d="M73.44,268.55c0,2.28-2.95,4.14-6.59,4.14s-6.59-1.85-6.59-4.14,2.95-4.14,6.59-4.14,6.59,1.85,6.59,4.14"/>
        <path class="cls-6" d="M73.44,268.55c0,2.28-2.95,4.14-6.59,4.14s-6.59-1.85-6.59-4.14,2.95-4.14,6.59-4.14,6.59,1.85,6.59,4.14Z"/>
        <path class="cls-36" d="M66.86,215.09c-1.55,0-2.8.98-2.8,2.18v50.33c0,1.21,1.26,2.18,2.8,2.18s2.8-.98,2.8-2.18v-50.33c0-1.21-1.26-2.18-2.8-2.18"/>
        <path class="cls-7" d="M66.86,215.09c-1.55,0-2.8.98-2.8,2.18v50.33c0,1.21,1.26,2.18,2.8,2.18s2.8-.98,2.8-2.18v-50.33c0-1.21-1.26-2.18-2.8-2.18Z"/>
        <path class="cls-36" d="M69.27,216.67c0,.87-1.08,1.58-2.41,1.58s-2.41-.71-2.41-1.58,1.08-1.58,2.41-1.58,2.41.71,2.41,1.58"/>
        <path class="cls-2" d="M69.27,216.67c0,.87-1.08,1.58-2.41,1.58s-2.41-.71-2.41-1.58,1.08-1.58,2.41-1.58,2.41.71,2.41,1.58Z"/>
        <path class="cls-36" d="M105.69,223.4c0,3.1-3.43,5.62-7.66,5.62s-7.66-2.52-7.66-5.62,3.43-5.62,7.66-5.62,7.66,2.52,7.66,5.62"/>
        <path class="cls-7" d="M105.69,223.4c0,3.1-3.43,5.62-7.66,5.62s-7.66-2.52-7.66-5.62,3.43-5.62,7.66-5.62,7.66,2.52,7.66,5.62Z"/>
        <path class="cls-36" d="M104.62,222.46c0,2.28-2.95,4.14-6.59,4.14s-6.59-1.85-6.59-4.14,2.95-4.14,6.59-4.14,6.59,1.85,6.59,4.14"/>
        <path class="cls-6" d="M104.62,222.46c0,2.28-2.95,4.14-6.59,4.14s-6.59-1.85-6.59-4.14,2.95-4.14,6.59-4.14,6.59,1.85,6.59,4.14Z"/>
        <path class="cls-36" d="M98.03,169c-1.55,0-2.8.98-2.8,2.18v50.33c0,1.21,1.26,2.18,2.8,2.18s2.8-.98,2.8-2.18v-50.33c0-1.21-1.26-2.18-2.8-2.18"/>
        <path class="cls-7" d="M98.03,169c-1.55,0-2.8.98-2.8,2.18v50.33c0,1.21,1.26,2.18,2.8,2.18s2.8-.98,2.8-2.18v-50.33c0-1.21-1.26-2.18-2.8-2.18Z"/>
        <path class="cls-36" d="M100.44,170.58c0,.87-1.08,1.58-2.41,1.58s-2.41-.71-2.41-1.58,1.08-1.58,2.41-1.58,2.41.71,2.41,1.58"/>
        <path class="cls-2" d="M100.44,170.58c0,.87-1.08,1.58-2.41,1.58s-2.41-.71-2.41-1.58,1.08-1.58,2.41-1.58,2.41.71,2.41,1.58Z"/>
        <line class="cls-5" x1="136.23" y1="226.6" x2="135.23" y2="226.6"/>
        <line class="cls-3" x1="132.47" y1="226.6" x2="110.83" y2="226.6"/>
        <line class="cls-5" x1="109.44" y1="226.6" x2="108.44" y2="226.6"/>
        <line class="cls-5" x1="77.12" y1="271.81" x2="78.12" y2="271.81"/>
        <line class="cls-4" x1="80.93" y1="271.81" x2="112.38" y2="271.81"/>
        <line class="cls-5" x1="113.79" y1="271.81" x2="114.79" y2="271.81"/>
        <path class="cls-36" d="M433.86,269.49c0,3.1,3.43,5.62,7.66,5.62s7.66-2.52,7.66-5.62-3.43-5.62-7.66-5.62-7.66,2.52-7.66,5.62"/>
        <ellipse class="cls-7" cx="441.52" cy="269.49" rx="7.66" ry="5.62"/>
        <path class="cls-36" d="M434.93,268.55c0,2.28,2.95,4.14,6.59,4.14s6.59-1.85,6.59-4.14-2.95-4.14-6.59-4.14-6.59,1.85-6.59,4.14"/>
        <path class="cls-6" d="M434.93,268.55c0,2.28,2.95,4.14,6.59,4.14s6.59-1.85,6.59-4.14-2.95-4.14-6.59-4.14-6.59,1.85-6.59,4.14Z"/>
        <path class="cls-36" d="M441.52,215.09c1.55,0,2.8.98,2.8,2.18v50.33c0,1.21-1.26,2.18-2.8,2.18s-2.8-.98-2.8-2.18v-50.33c0-1.21,1.26-2.18,2.8-2.18"/>
        <path class="cls-7" d="M441.52,215.09c1.55,0,2.8.98,2.8,2.18v50.33c0,1.21-1.26,2.18-2.8,2.18s-2.8-.98-2.8-2.18v-50.33c0-1.21,1.26-2.18,2.8-2.18Z"/>
        <path class="cls-36" d="M439.11,216.67c0,.87,1.08,1.58,2.41,1.58s2.41-.71,2.41-1.58-1.08-1.58-2.41-1.58-2.41.71-2.41,1.58"/>
        <path class="cls-2" d="M439.11,216.67c0,.87,1.08,1.58,2.41,1.58s2.41-.71,2.41-1.58-1.08-1.58-2.41-1.58-2.41.71-2.41,1.58Z"/>
        <path class="cls-36" d="M400.68,223.4c0,3.1,3.43,5.62,7.66,5.62s7.66-2.52,7.66-5.62-3.43-5.62-7.66-5.62-7.66,2.52-7.66,5.62"/>
        <ellipse class="cls-7" cx="408.34" cy="223.4" rx="7.66" ry="5.62"/>
        <path class="cls-36" d="M401.76,222.46c0,2.28,2.95,4.14,6.59,4.14s6.59-1.85,6.59-4.14-2.95-4.14-6.59-4.14-6.59,1.85-6.59,4.14"/>
        <path class="cls-6" d="M401.76,222.46c0,2.28,2.95,4.14,6.59,4.14s6.59-1.85,6.59-4.14-2.95-4.14-6.59-4.14-6.59,1.85-6.59,4.14Z"/>
        <path class="cls-36" d="M408.34,169c1.55,0,2.8.98,2.8,2.18v50.33c0,1.21-1.26,2.18-2.8,2.18s-2.8-.98-2.8-2.18v-50.33c0-1.21,1.26-2.18,2.8-2.18"/>
        <path class="cls-7" d="M408.34,169c1.55,0,2.8.98,2.8,2.18v50.33c0,1.21-1.26,2.18-2.8,2.18s-2.8-.98-2.8-2.18v-50.33c0-1.21,1.26-2.18,2.8-2.18Z"/>
        <path class="cls-36" d="M405.93,170.58c0,.87,1.08,1.58,2.41,1.58s2.41-.71,2.41-1.58-1.08-1.58-2.41-1.58-2.41.71-2.41,1.58"/>
        <path class="cls-2" d="M405.93,170.58c0,.87,1.08,1.58,2.41,1.58s2.41-.71,2.41-1.58-1.08-1.58-2.41-1.58-2.41.71-2.41,1.58Z"/>
        <path class="cls-35" d="M529.07,194.89c-9.8,21.92-35.52,31.75-57.44,21.95-21.92-9.8-31.75-35.52-21.95-57.44,9.8-21.92,35.52-31.75,57.44-21.95,21.92,9.8,31.75,35.52,21.95,57.44"/>
      </g>
      <text class="cls-23" transform="translate(467.38 164.45)"><tspan x="0" y="0">この間を</tspan></text>
      <text class="cls-23" transform="translate(450.88 180.45)"><tspan x="0" y="0">ボールが通れば</tspan></text>
      <text class="cls-23" transform="translate(467.38 196.46)"><tspan x="0" y="0">ゴール！</tspan></text>
      <text class="cls-23" transform="translate(23.46 158.33)"><tspan x="0" y="0">ゴールは</tspan></text>
      <text class="cls-33" transform="translate(20.99 186.08)"><tspan x="0" y="0">１点</tspan></text>
      <polygon class="cls-49" points="449.97 179.85 436.71 195.09 456.1 197.87 449.97 179.85"/>
      <rect class="cls-61" x="355.01" y="77.07" width="148.22" height="6.38"/>
      <text class="cls-15" transform="translate(353.28 60.21)"><tspan x="0" y="0">コートサイズは主に</tspan></text>
      <text class="cls-27" transform="translate(352.88 81.28)"><tspan x="0" y="0">バスケットコート</tspan></text>
      <g>
        <path class="cls-46" d="M328.7,84.92c-4.19,0-7.65-3.15-8.15-7.21h-6.81v21.76h6.68v-8.75h16.58v8.75h6.68v-21.76h-6.81c-.5,4.06-3.96,7.21-8.15,7.21"/>
        <rect class="cls-46" x="322.44" y="92.75" width="12.52" height="6.72"/>
        <path class="cls-46" d="M328.7,82.89c3.07,0,5.62-2.25,6.1-5.18h-12.21c.49,2.93,3.04,5.18,6.1,5.18"/>
        <path class="cls-46" d="M336.99,62.67h-16.58v-8.75h-6.68v21.76h6.81c.5-4.06,3.96-7.21,8.15-7.21s7.65,3.15,8.15,7.21h6.81v-21.76h-6.68v8.75Z"/>
        <path class="cls-46" d="M328.7,70.5c-3.07,0-5.62,2.24-6.1,5.18h12.21c-.49-2.93-3.04-5.18-6.1-5.18"/>
        <rect class="cls-46" x="322.44" y="53.92" width="12.52" height="6.72"/>
        <path class="cls-49" d="M311.02,102.18h35.35v-50.96h-35.35v50.96ZM322.44,53.92h12.52v6.72h-12.52v-6.72ZM334.96,99.47h-12.52v-6.72h12.52v6.72ZM343.67,99.47h-6.68v-8.75h-16.58v8.75h-6.68v-21.76h6.81c.5,4.06,3.96,7.21,8.15,7.21s7.65-3.15,8.16-7.21h6.81v21.76ZM334.8,77.71c-.49,2.93-3.03,5.18-6.1,5.18s-5.62-2.24-6.1-5.18h12.21ZM322.6,75.68c.49-2.93,3.04-5.18,6.1-5.18s5.62,2.24,6.1,5.18h-12.21ZM343.67,75.68h-6.81c-.5-4.06-3.97-7.21-8.16-7.21s-7.65,3.15-8.15,7.21h-6.81v-21.76h6.68v8.75h16.58v-8.75h6.68v21.76Z"/>
      </g>
      <text class="cls-15" transform="translate(353.28 99.47)"><tspan x="0" y="0">とほぼ同じ広さでござる！</tspan></text>
      <text class="cls-17" transform="translate(65.27 112.92) rotate(-4.88)"><tspan x="0" y="0">合戦を楽しく観戦してもらうために</tspan></text>
      <text class="cls-17" transform="translate(76.43 126.02) rotate(-4.88)"><tspan x="0" y="0">ポイントを紹介するでござる！</tspan></text>
      <g>
        <path class="cls-47" d="M265.53,93.52c.2.27.38.54.56.82l2.8-1.98-.02-1,1.04,1.28-3.55,2.11c.04.06.08.13.12.19l3.92-2.23-1.64-2.22-3.23,3.03Z"/>
        <path class="cls-47" d="M271.96,96.29l-4.14,1.37c.13.31.24.63.35.95l3.25-.58.42-.93.03.14.3,1.41-3.83.45c.02.08.04.15.07.23l4.11-.35-.55-2.7Z"/>
        <path class="cls-53" d="M268.87,91.35l.02,1-2.8,1.99c.09.14.18.27.27.41l3.55-2.11-1.04-1.28Z"/>
        <path class="cls-53" d="M271.88,97.24l-.03-.14-.43.93-3.25.58c.06.16.11.33.17.49l3.83-.45-.3-1.41Z"/>
        <path class="cls-49" d="M273.16,94.22l-5.31,1.76,4.87-2.78-3.76-5.09-4.43,4.16c-3.48-4.01-8.61-6.55-14.32-6.55-10.46,0-18.96,8.5-18.96,18.96,0,9.5,7.09,15.17,18.96,15.17s18.96-5.67,18.96-15.17c0-1.3-.13-2.57-.38-3.8l5.63-.47-1.27-6.19ZM264.78,103.79c-3.95,1.53-9.16,2.42-14.56,2.42s-10.95-.93-14.96-2.57c-.4-.16-.78-.33-1.15-.51.2-2.04.77-3.97,1.66-5.72.41.17.84.34,1.29.49,3.63,1.25,8.27,1.95,13.16,1.95s9.85-.75,13.53-2.09c.32-.11.62-.23.92-.36.89,1.75,1.46,3.68,1.66,5.72-.49.23-1.01.46-1.55.67M266.47,94.94c-.04-.06-.08-.13-.12-.19-.09-.14-.18-.28-.26-.41-.18-.28-.37-.55-.56-.82l3.23-3.03,1.64,2.21-3.92,2.23ZM263.66,95.68c-3.52,1.4-8.31,2.19-13.44,2.19-4.54,0-8.82-.62-12.18-1.73-.43-.14-.86-.3-1.26-.46,2.91-4.33,7.85-7.18,13.44-7.18.46,0,.92.02,1.37.06,5.02.42,9.4,3.15,12.07,7.12M237.35,113.07c-1.87-1.75-3.17-4.25-3.3-7.8.34.15.69.29,1.05.43,4.17,1.59,9.51,2.48,15.12,2.48,5.25,0,10.21-.77,14.22-2.16.68-.24,1.33-.49,1.95-.76-.13,3.49-1.39,5.96-3.21,7.7-3.72,3.58-9.75,4.11-12.96,4.11s-9.14-.52-12.87-4.01M268.34,99.1c-.05-.17-.11-.33-.17-.49-.11-.32-.23-.64-.35-.95l4.14-1.37.55,2.7-4.11.35c-.02-.08-.04-.15-.06-.23"/>
        <path class="cls-12" d="M251.59,88.57c-5.67.41-10.6,3.32-13.56,7.57,3.37,1.11,7.65,1.73,12.18,1.73,5.13,0,9.93-.79,13.44-2.19-2.67-3.97-7.05-6.69-12.07-7.11"/>
        <path class="cls-12" d="M263.18,112.98c-2.76,2.07-6.65,3.01-10.98,3.01-.68,0-1.35-.03-2.01-.07,7.13-.49,12.86-3.53,14.24-9.88-4.02,1.39-8.97,2.16-14.22,2.16-5.61,0-10.95-.89-15.12-2.48.05,2.88.86,5.34,2.25,7.37,3.73,3.49,9.68,4.01,12.87,4.01s9.24-.53,12.96-4.11"/>
        <path class="cls-55" d="M234.04,105.27c.13,3.55,1.44,6.05,3.3,7.79-1.39-2.03-2.2-4.49-2.25-7.37-.36-.14-.71-.28-1.05-.43"/>
        <path class="cls-55" d="M251.59,88.57c-.45-.04-.91-.06-1.37-.06-5.59,0-10.53,2.85-13.44,7.18.4.16.82.31,1.26.45,2.96-4.25,7.89-7.16,13.56-7.57"/>
        <path class="cls-53" d="M250.19,115.91c.66.05,1.33.07,2.01.07,4.32,0,8.22-.94,10.98-3.01,1.82-1.74,3.08-4.22,3.21-7.7-.62.27-1.27.52-1.95.76-1.39,6.35-7.11,9.4-14.24,9.88"/>
        <path class="cls-39" d="M263.75,97.76c-3.68,1.34-8.47,2.09-13.53,2.09s-9.53-.7-13.16-1.95c-.56.98-1.39,2.85-1.8,5.74,4.01,1.64,9.33,2.57,14.96,2.57s10.61-.88,14.56-2.42c.08-1.26-.02-3.4-1.03-6.02M243.89,104.1c-1.22,0-2.22-.99-2.22-2.22s.99-2.22,2.22-2.22,2.21.99,2.21,2.22-.99,2.22-2.21,2.22M256.54,104.1c-1.22,0-2.22-.99-2.22-2.22s.99-2.22,2.22-2.22,2.22.99,2.22,2.22-.99,2.22-2.22,2.22"/>
        <path class="cls-62" d="M235.76,97.41c-.89,1.75-1.46,3.68-1.66,5.72.37.18.76.35,1.15.51.41-2.88,1.24-4.75,1.8-5.74-.45-.15-.88-.32-1.29-.49"/>
        <path class="cls-48" d="M264.67,97.41c-.3.12-.6.24-.92.36,1.01,2.62,1.1,4.76,1.03,6.03.54-.21,1.06-.43,1.55-.67-.2-2.04-.77-3.97-1.66-5.72"/>
        <path class="cls-49" d="M243.89,99.66c-1.22,0-2.22.99-2.22,2.22s.99,2.22,2.22,2.22,2.22-.99,2.22-2.22-.99-2.22-2.22-2.22"/>
        <path class="cls-49" d="M256.54,99.66c-1.22,0-2.22.99-2.22,2.22s.99,2.22,2.22,2.22,2.22-.99,2.22-2.22-.99-2.22-2.22-2.22"/>
      </g>
    </g>
  </g>
</svg>