<?xml version="1.0" encoding="UTF-8"?>
<svg id="_レイヤー_2" data-name="レイヤー 2" xmlns="http://www.w3.org/2000/svg" viewBox="0 0 523.28 312.48">
  <defs>
    <style>
      .cls-1 {
        fill: #727171;
      }

      .cls-2 {
        fill: #f6dbb7;
      }

      .cls-3 {
        fill: #faee00;
      }

      .cls-4 {
        font-size: 11px;
      }

      .cls-4, .cls-5, .cls-6, .cls-7, .cls-8, .cls-9, .cls-10, .cls-11, .cls-12 {
        font-family: MOBO-Bold-83pv-RKSJ-H, MOBO-Bold;
        font-weight: 700;
      }

      .cls-4, .cls-5, .cls-6, .cls-7, .cls-8, .cls-9, .cls-13 {
        fill: #2e2e2e;
      }

      .cls-5 {
        font-size: 9px;
      }

      .cls-14 {
        fill: #efefef;
      }

      .cls-15, .cls-10, .cls-12 {
        fill: #d03f26;
      }

      .cls-16 {
        fill: #e83828;
      }

      .cls-6 {
        font-size: 10px;
      }

      .cls-17 {
        fill: #facfa8;
      }

      .cls-18 {
        fill: #231815;
      }

      .cls-19 {
        letter-spacing: .5em;
      }

      .cls-20 {
        letter-spacing: .5em;
      }

      .cls-21 {
        fill: #f7f8f8;
      }

      .cls-7 {
        font-size: 12px;
      }

      .cls-22 {
        fill: #898989;
      }

      .cls-23 {
        fill: #e18073;
      }

      .cls-24 {
        fill: #3e3a39;
      }

      .cls-8 {
        font-size: 15px;
      }

      .cls-25 {
        fill: #595757;
      }

      .cls-9 {
        font-size: 16px;
      }

      .cls-10 {
        font-size: 48.72px;
      }

      .cls-26 {
        fill: #f39800;
      }

      .cls-27 {
        fill: #b5b5b6;
      }

      .cls-11 {
        fill: #fefdfa;
        font-size: 11.21px;
      }

      .cls-28 {
        fill: #f5f5f5;
      }

      .cls-29 {
        letter-spacing: -.39em;
      }

      .cls-30 {
        fill: none;
        stroke: gray;
        stroke-miterlimit: 10;
        stroke-width: .5px;
      }

      .cls-31 {
        letter-spacing: .06em;
      }

      .cls-32 {
        letter-spacing: .06em;
      }

      .cls-33 {
        letter-spacing: .06em;
      }

      .cls-34 {
        letter-spacing: .01em;
      }

      .cls-35 {
        fill: #eee9e8;
      }

      .cls-36 {
        letter-spacing: .03em;
      }

      .cls-37 {
        fill: #fde6c7;
      }

      .cls-38 {
        letter-spacing: .03em;
      }

      .cls-39 {
        letter-spacing: .03em;
      }

      .cls-40 {
        fill: #dc8879;
      }

      .cls-12 {
        font-size: 18.93px;
      }
    </style>
  </defs>
  <g id="_レイヤー_1-2" data-name="レイヤー 1">
    <g>
      <text class="cls-4" transform="translate(427.67 269.21)"><tspan x="0" y="0">ここの中には</tspan></text>
      <g>
        <polygon class="cls-14" points="370.32 249.92 511.48 249.92 433.23 137.05 321.87 137.05 370.32 249.92"/>
        <polygon class="cls-24" points="428.42 124.41 523.28 261.25 515.39 261.25 420.52 124.41 428.42 124.41"/>
        <polygon class="cls-24" points="368.8 252.23 511.48 252.23 511.48 247.6 371.85 247.6 325.39 139.37 433.23 139.37 433.23 134.73 318.36 134.73 368.8 252.23"/>
        <path class="cls-3" d="M433.71,146.95c0,3.24,3.58,5.87,8,5.87s8-2.63,8-5.87-3.58-5.87-8-5.87-8,2.63-8,5.87"/>
        <path class="cls-24" d="M432.66,146.95c0-3.81,4.06-6.91,9.04-6.91s9.04,3.1,9.04,6.91-4.06,6.91-9.04,6.91-9.04-3.1-9.04-6.91M434.75,146.95c0,2.66,3.12,4.82,6.95,4.82s6.95-2.16,6.95-4.82-3.12-4.82-6.95-4.82-6.95,2.16-6.95,4.82"/>
        <path class="cls-3" d="M434.83,145.98c0,2.39,3.08,4.32,6.88,4.32s6.88-1.93,6.88-4.32-3.08-4.32-6.88-4.32-6.88,1.93-6.88,4.32"/>
        <path class="cls-24" d="M434.44,145.98c0-2.6,3.26-4.71,7.27-4.71s7.27,2.11,7.27,4.71-3.26,4.71-7.27,4.71-7.27-2.11-7.27-4.71M435.22,145.98c0,2.17,2.91,3.93,6.48,3.93s6.48-1.76,6.48-3.93-2.91-3.93-6.48-3.93-6.48,1.76-6.48,3.93"/>
        <path class="cls-3" d="M441.71,90.17c1.61,0,2.93,1.02,2.93,2.28v52.53c0,1.26-1.31,2.28-2.93,2.28s-2.92-1.02-2.92-2.28v-52.53c0-1.26,1.31-2.28,2.92-2.28"/>
        <path class="cls-24" d="M437.74,144.98v-52.53c0-1.83,1.78-3.32,3.97-3.32s3.97,1.49,3.97,3.32v52.53c0,1.83-1.78,3.33-3.97,3.33s-3.97-1.49-3.97-3.33M439.82,92.45v52.53c0,.66.88,1.24,1.88,1.24s1.88-.58,1.88-1.24v-52.53c0-.66-.88-1.24-1.88-1.24s-1.88.58-1.88,1.24"/>
        <path class="cls-3" d="M439.19,91.82c0,.91,1.13,1.65,2.52,1.65s2.52-.74,2.52-1.65-1.13-1.65-2.52-1.65-2.52.74-2.52,1.65"/>
        <path class="cls-24" d="M438.67,91.82c0-1.22,1.33-2.17,3.04-2.17s3.04.95,3.04,2.17-1.34,2.17-3.04,2.17-3.04-.95-3.04-2.17M439.71,91.82c0,.53.82,1.13,1.99,1.13s1.99-.59,1.99-1.13-.82-1.12-1.99-1.12-1.99.59-1.99,1.12"/>
        <path class="cls-3" d="M491.69,230.8c0,3.24,3.58,5.87,8,5.87s8-2.63,8-5.87-3.58-5.87-8-5.87-8,2.63-8,5.87"/>
        <path class="cls-24" d="M490.65,230.8c0-3.81,4.06-6.91,9.04-6.91s9.04,3.1,9.04,6.91-4.06,6.91-9.04,6.91-9.04-3.1-9.04-6.91M492.73,230.8c0,2.66,3.12,4.82,6.95,4.82s6.95-2.16,6.95-4.82-3.12-4.82-6.95-4.82-6.95,2.16-6.95,4.82"/>
        <path class="cls-3" d="M492.81,229.82c0,2.39,3.08,4.32,6.88,4.32s6.88-1.93,6.88-4.32-3.08-4.32-6.88-4.32-6.88,1.93-6.88,4.32"/>
        <path class="cls-24" d="M492.42,229.82c0-2.6,3.26-4.71,7.27-4.71s7.27,2.11,7.27,4.71-3.26,4.71-7.27,4.71-7.27-2.11-7.27-4.71M493.2,229.82c0,2.17,2.91,3.93,6.48,3.93s6.48-1.76,6.48-3.93-2.91-3.93-6.48-3.93-6.48,1.76-6.48,3.93"/>
        <path class="cls-3" d="M499.69,174.01c1.62,0,2.93,1.02,2.93,2.28v52.53c0,1.26-1.31,2.28-2.93,2.28s-2.92-1.02-2.92-2.28v-52.53c0-1.26,1.31-2.28,2.92-2.28"/>
        <path class="cls-24" d="M495.72,228.82v-52.53c0-1.83,1.78-3.32,3.97-3.32s3.97,1.49,3.97,3.32v52.53c0,1.83-1.78,3.33-3.97,3.33s-3.97-1.49-3.97-3.33M497.81,176.29v52.53c0,.66.88,1.24,1.88,1.24s1.88-.58,1.88-1.24v-52.53c0-.66-.88-1.24-1.88-1.24s-1.88.58-1.88,1.24"/>
        <path class="cls-3" d="M497.17,175.66c0,.91,1.13,1.65,2.52,1.65s2.52-.74,2.52-1.65-1.13-1.65-2.52-1.65-2.52.74-2.52,1.65"/>
        <path class="cls-24" d="M496.65,175.66c0-1.22,1.33-2.17,3.04-2.17s3.04.95,3.04,2.17-1.34,2.17-3.04,2.17-3.04-.95-3.04-2.17M497.69,175.66c0,.53.82,1.13,1.99,1.13s1.99-.59,1.99-1.13-.82-1.13-1.99-1.13-1.99.59-1.99,1.13"/>
        <rect class="cls-35" x="246.45" y="31.83" width="175.43" height="78.82"/>
      </g>
      <text class="cls-10" transform="translate(253.84 42.87)"><tspan x="0" y="0">3</tspan></text>
      <text class="cls-12" transform="translate(285.63 42.41)"><tspan x="0" y="0">パーソン</tspan></text>
      <text class="cls-6" transform="translate(258.69 82.68)"><tspan class="cls-34" x="0" y="0">ペナルティエリアに</tspan><tspan x="91.17" y="0">は、</tspan><tspan class="cls-34" x="111.17" y="0">ディフ</tspan><tspan x="141.56" y="0">ェ</tspan></text>
      <text class="cls-6" transform="translate(258.69 97.68)"><tspan x="0" y="0">ンスが３人以上入ってはいけない</tspan></text>
      <path class="cls-24" d="M354.54,67h-90.04c-3.76,0-6.81-3.05-6.81-6.81v-1.38c0-3.76,3.05-6.81,6.81-6.81h90.04c3.76,0,6.81,3.05,6.81,6.81v1.38c0,3.76-3.05,6.81-6.81,6.81"/>
      <text class="cls-11" transform="translate(263.56 63.56)"><tspan x="0" y="0">スリー・パーソン</tspan></text>
      <g>
        <path class="cls-17" d="M385.61,48.24l5.2-2.24c-.5-.91-.68-2.19-.75-3.11l-7.78-.04c.19,1.9.68,4.38,1.79,5.91l1.54-.52Z"/>
        <path class="cls-17" d="M400.36,52.86l-.54,1.03-.62-.32.29-.55-.69-.42-.36.58c-.59-.37-1.07-.77-1.45-1.19-1.12-1.21-1.48-2.53-1.59-3.39-.35-.17-.68-.37-1-.6-1.23.67-3.18,1.68-5.51,2.68.28,2.23,1.03,3.7,1.57,4.51,3.57,2.19,8.31,2.72,12.01-.71,1.85-1.72,2.97-4.03,3.15-6.5l.04-.55.16-.12c-.54-.22-1.08-.57-1.49-.89-.69,3.85-2.9,5.74-3.95,6.44"/>
        <path class="cls-17" d="M394.6,39.47c-.84,2.58-.62,4.73.65,6.1,0,0,0,0,0,0,1.07,1.15,2.67,2.05,4.18,1.67.69-.18,1.3-.48,1.82-.85-1.18-.02-2.55-.38-3.53-1.61,4.19,1.08,7.42-4.01,7.42-4.01,0,0,.42,3.56,2.1,5.39l.55-.44c-.63-1.32-1.68-3.92-2.27-7.58-1.58.71-6.17,2.44-10.92,1.32"/>
        <path class="cls-17" d="M382.28,42.08h-.06c.01.23.03.48.06.75v-.75Z"/>
        <path class="cls-17" d="M407.85,13.31c-5.75,6.93-7.75,14.08-8.43,17.78l-.24,1.29-1.28-.29c-.82-.19-1.63-.32-2.41-.38l-.92-.08-.2-.91c-.1-.45-2.27-10.67.38-19.75-1.27-.71-4.1-1.81-7.03.36-1.27,5.71.91,13.69,2.99,19.44l.43,1.18-1.18.42c-1.09.39-2.19,1.05-2.2,1.06l-.86.52-.7-.73c-.28-.29-6.63-7.02-8.83-17.07-2.97-.06-4.91,2.33-5.63,3.4,1.13,2.38,5.77,11.49,12.97,16.34l.9.6-.47.98c-.41.86-.56,2.22-.6,2.99l7.33.04c.16-.89.44-1.87.88-2.95l.42-1.02,1.05.33c3.25,1.03,6.51.4,8.53-.23l-.8-1.09.22-.63c1.18-3.33,4.55-11.57,10.9-17.82-.75-1.22-2.51-3.52-5.23-3.81M385.85,35.08c-7.75-5.47-11.31-17.24-11.31-17.24l2.29-1.06c2.45,11.52,9.74,17.69,9.74,17.69,0,0-.53.59-.72.61M393.08,31.83s-4.34-11.94-1.47-21.1c1.46-.04,2.45.46,2.45.46,0,0-2.91,6.88-.02,20.57l-.96.06ZM401.7,35.14c-.95-1.08-1.25-1.32-1.25-1.32,0,0,3.31-12.24,10.54-18.13,1.1.64,1.18,1.41,1.18,1.41,0,0-7.17,7.29-10.47,18.04"/>
        <path class="cls-40" d="M410.99,15.69c-7.23,5.89-10.54,18.13-10.54,18.13,0,0,.3.24,1.25,1.32,3.3-10.74,10.47-18.04,10.47-18.04,0,0-.08-.77-1.18-1.41"/>
        <path class="cls-40" d="M394.07,11.2s-.98-.51-2.45-.46c-2.87,9.16,1.47,21.1,1.47,21.1l.96-.06c-2.88-13.7.02-20.57.02-20.57"/>
        <path class="cls-40" d="M376.83,16.78l-2.29,1.06s3.56,11.78,11.31,17.24c.19-.03.72-.61.72-.61,0,0-7.29-6.17-9.74-17.69"/>
        <path class="cls-40" d="M392.3,45.36c-.29-.67-.51-1.49-.58-2.46h-1.67c.07.91.26,2.19.75,3.1l1.49-.64Z"/>
        <path class="cls-40" d="M394.39,48c-.27-.2-.52-.41-.75-.65l-7.05,3.03c.26.94.89,2.54,2.44,3.8.45.36.92.7,1.42,1-.54-.81-1.29-2.28-1.57-4.51,2.33-.99,4.28-2.01,5.51-2.68"/>
        <path class="cls-40" d="M405.14,40.78s-3.23,5.09-7.42,4.01c.98,1.23,2.35,1.58,3.53,1.61.81-.57,1.42-1.29,1.83-1.89l1.27.59c-.69,1.32-2,3.19-4.11,3.87-.85.27-1.74.35-2.62.26.02.95.3,2.18,1.46,2.9l-.28.46.7.42.27-.52.62.33-.02.04c1.05-.7,3.26-2.59,3.95-6.44.42.32.95.68,1.49.89l1.43-1.15c-1.67-1.82-2.1-5.39-2.1-5.39M404.67,44.43l-1.26-.44c.22-.38.34-.64.34-.65l1.19.39s-.1.31-.28.7"/>
        <polygon class="cls-18" points="399.81 53.89 400.36 52.86 400.38 52.82 399.76 52.5 399.49 53.01 399.2 53.56 399.81 53.89"/>
        <path class="cls-18" d="M403.42,43.98l1.26.44c.17-.39.26-.66.28-.7l-1.19-.39s-.12.27-.34.65"/>
        <path class="cls-18" d="M416.15,17.68l-.37-.82c-.11-.25-2.78-6.06-8.49-6.08h-.58s-.38.44-.38.44c-5.61,6.56-8.07,13.31-9.14,18.18-.18-.03-.36-.06-.54-.08-.47-2.73-1.62-11.28.76-18.48l.28-.83-.68-.54c-1.93-1.54-6.75-3.48-11.21.18l-.32.26-.1.4c-1.53,5.98.45,14.08,2.56,20.2-.21.1-.4.19-.58.28-1.68-2-6.22-8.01-7.74-16.01l-.16-.86-.86-.15c-6.05-1.04-9.27,4.87-9.41,5.12l-.28.53.24.55c.2.47,4.93,11.31,13.33,17.44-.22.75-.34,1.52-.4,2.15l-2.4-.08-.02,1.27c0,.29-.09,7.22,3.12,10.36l.55.54.92-.31c.4,1.31,1.28,3.23,3.19,4.78,2.47,2,5.27,3.09,8.01,3.27,3.17.2,6.27-.82,8.7-3.07,2.18-2.02,3.55-4.7,3.9-7.6l2.96-2.37-.57-.94s-2.03-3.43-2.67-9.22l-.2-1.83-1.63.85c-.17.09-.45.21-.89.36l-.3-.41c1.18-3.15,4.61-11.19,10.73-16.87l.66-.61ZM407.24,46.17l-1.43,1.15-.15.12-.04.55c-.18,2.47-1.3,4.78-3.15,6.5-3.7,3.43-8.44,2.89-12.01.7-.5-.3-.97-.64-1.42-1-1.54-1.25-2.18-2.86-2.43-3.8l7.05-3.03c.23.24.48.45.75.65.32.23.65.43,1,.6.11.86.47,2.18,1.59,3.39.39.42.86.82,1.45,1.19l.36-.58.28-.45c-1.16-.72-1.44-1.95-1.46-2.9.88.09,1.77.01,2.62-.26,2.12-.68,3.42-2.56,4.11-3.87l-1.27-.59c-.41.6-1.02,1.32-1.83,1.89-.52.37-1.12.68-1.82.85-1.5.38-3.11-.53-4.18-1.68,0,0,0,0,0,0-1.27-1.38-1.49-3.52-.65-6.1,4.75,1.11,9.35-.61,10.92-1.32.59,3.66,1.64,6.26,2.27,7.58l-.55.44ZM382.28,42.08v.75c-.03-.26-.05-.51-.07-.75h.07ZM390.05,42.9h1.67c.07.97.29,1.79.58,2.47l-1.49.64-5.2,2.24-1.54.52c-1.11-1.53-1.6-4.02-1.79-5.91l7.78.04ZM402.17,34.94l-.22.62.8,1.09c-2.02.63-5.28,1.26-8.53.23l-1.05-.33-.42,1.02c-.44,1.08-.72,2.05-.88,2.95l-7.33-.04c.04-.77.18-2.12.59-2.99l.47-.98-.9-.61c-7.2-4.85-11.85-13.96-12.98-16.34.72-1.08,2.66-3.47,5.63-3.4,2.2,10.05,8.55,16.78,8.83,17.07l.7.73.86-.52s1.11-.67,2.2-1.06l1.19-.42-.43-1.18c-2.08-5.75-4.25-13.73-2.99-19.44,2.93-2.17,5.76-1.07,7.03-.36-2.65,9.08-.48,19.31-.38,19.75l.2.91.92.08c.78.06,1.59.19,2.41.38l1.27.29.24-1.29c.68-3.7,2.69-10.85,8.43-17.78,2.73.3,4.48,2.6,5.23,3.82-6.35,6.25-9.72,14.48-10.91,17.82"/>
        <path class="cls-21" d="M395.18,203.79l-6.25,2.27-6.25-2.27.98-1.51c1.64-.6,3.42-.93,5.27-.93s3.62.33,5.27.93l.98,1.51Z"/>
        <polygon class="cls-21" points="398.78 213.41 395.45 215.11 389.1 210.5 389.1 206.36 395.41 204.07 399.01 206.68 398.78 213.41"/>
        <polygon class="cls-21" points="388.76 210.5 382.41 215.11 379.08 213.41 378.85 206.68 382.45 204.07 388.76 206.36 388.76 210.5"/>
        <path class="cls-21" d="M403.17,218.66c.08-.62.13-1.25.13-1.89,0-1.12-.13-2.22-.38-3.27-.05,1.39-.27,2.73-.64,4.01l-3.16-4.05.23-6.64,1.73.46c2.05,2.62,3.27,5.91,3.27,9.49,0,.18,0,.36-.01.53l-1.13,1.4-.03-.04Z"/>
        <path class="cls-21" d="M376.24,223.6l6.39,1.84,2.47,3.65c-2.13-.21-4.13-.83-5.94-1.78,1.96,1.82,4.43,3.09,7.17,3.6l.03.04-1.68.65c-3.51-1.01-6.52-3.24-8.52-6.2l.09-1.79Z"/>
        <path class="cls-21" d="M395.23,225.44l2.7-.78c-1.21,1.16-2.6,2.13-4.12,2.87l1.42-2.09Z"/>
        <path class="cls-21" d="M385.53,229.12l-2.58-3.81,2.03-2.18h7.89l2.03,2.18-1.69,2.5c-1.99.87-4.19,1.36-6.51,1.36-.4,0-.79-.02-1.18-.04"/>
        <path class="cls-21" d="M401.57,223.62h.05s.09,1.77.09,1.77c-2,2.96-5.01,5.19-8.52,6.2l-1.68-.65.03-.04c4.34-.79,8-3.54,10.03-7.29"/>
        <path class="cls-21" d="M373.51,216.77c0-3.58,1.22-6.87,3.28-9.49l1.73-.46.23,6.64-4.09,5.24-1.13-1.4c0-.18-.01-.35-.01-.53"/>
        <path class="cls-21" d="M399.26,206.44l-3.7-2.69-.82-1.27c2.33.95,4.37,2.45,5.97,4.34l-1.45-.39Z"/>
        <path class="cls-21" d="M401.94,223.4l1.41-4.35.95-1.17c-.18,2.56-1,4.96-2.29,7.02l-.08-1.5Z"/>
        <path class="cls-21" d="M383.12,202.49l-.82,1.27-3.7,2.69-1.45.39c1.6-1.89,3.64-3.39,5.97-4.34"/>
        <path class="cls-21" d="M374.5,219.06l1.41,4.35-.08,1.5c-1.29-2.07-2.1-4.46-2.29-7.02l.95,1.17Z"/>
        <path class="cls-21" d="M385.23,231.74l1.41-.54h4.57l1.41.54c-1.18.29-2.42.45-3.7.45s-2.51-.16-3.7-.45"/>
        <polygon class="cls-21" points="388.93 210.79 395.24 215.38 392.83 222.79 385.03 222.79 382.62 215.38 388.93 210.79"/>
        <path class="cls-21" d="M393.14,222.92l2.43-7.49,3.32-1.7,3.26,4.18c-.76,2.37-2.05,4.5-3.73,6.26l-3.25.93-2.03-2.18Z"/>
        <polygon class="cls-21" points="378.96 213.73 382.28 215.43 384.72 222.92 382.68 225.1 376.22 223.24 374.84 219.01 378.96 213.73"/>
        <path class="cls-27" d="M397.93,224.66l3.64-1.05c-2.04,3.75-5.69,6.49-10.03,7.29l2.28-3.37c1.52-.74,2.91-1.71,4.12-2.87"/>
        <path class="cls-27" d="M403.3,216.77c0,.64-.05,1.27-.13,1.89l-.89-1.14c.37-1.28.6-2.62.64-4.01.24,1.05.38,2.14.38,3.27"/>
        <path class="cls-27" d="M403.02,219.01l-1.38,4.24-3.22.92c1.68-1.76,2.97-3.89,3.73-6.26l.86,1.1Z"/>
        <path class="cls-27" d="M386.71,229.17c2.31,0,4.52-.48,6.51-1.36l-2.06,3.05h-4.45l-1.17-1.74c.39.03.78.04,1.18.04"/>
        <path class="cls-27" d="M385.1,229.09l1.23,1.82c-2.74-.5-5.21-1.78-7.17-3.6,1.8.95,3.81,1.57,5.94,1.78"/>
        <path class="cls-24" d="M371.48,216.77c0,9.62,7.83,17.45,17.45,17.45s17.45-7.83,17.45-17.45-7.83-17.45-17.45-17.45-17.45,7.83-17.45,17.45M376.15,225.39l.09-1.79,6.39,1.84,2.46,3.65,1.23,1.82.03.04-1.68.65c-3.51-1.01-6.52-3.24-8.52-6.2M391.54,230.9l2.28-3.37,1.42-2.1,2.7-.78,3.64-1.05h.05s.09,1.77.09,1.77c-2,2.96-5.01,5.19-8.52,6.2l-1.68-.65.03-.04ZM404.34,217.31l-1.13,1.4-.04-.04-.89-1.15-3.16-4.05.23-6.64,1.72.46c2.05,2.62,3.28,5.91,3.28,9.49,0,.18,0,.36-.01.53M399.01,206.68l-.23,6.73-3.33,1.7-6.35-4.61v-4.14l6.31-2.29,3.6,2.62ZM388.93,201.36c1.85,0,3.62.33,5.27.93l.98,1.51-6.25,2.27-6.25-2.27.98-1.51c1.64-.6,3.42-.93,5.27-.93M388.76,206.36v4.14l-6.35,4.61-3.33-1.7-.23-6.73,3.6-2.62,6.31,2.29ZM385.53,229.12l-2.58-3.81,2.03-2.18h7.89l2.03,2.18-1.69,2.5-2.06,3.05h-4.45l-1.17-1.74ZM395.17,225.1l-2.03-2.18,2.43-7.49,3.32-1.7,3.26,4.18.86,1.1-1.38,4.24-3.22.92-3.25.93ZM382.62,215.38l6.31-4.58,6.31,4.58-2.41,7.41h-7.8l-2.41-7.41ZM374.84,219.01l4.12-5.28,3.33,1.7,2.43,7.49-2.03,2.18-6.47-1.86-1.38-4.24ZM373.52,217.31c0-.18-.01-.35-.01-.53,0-3.58,1.22-6.87,3.27-9.49l1.73-.46.23,6.64-4.09,5.24-1.13-1.4ZM377.15,206.83c1.6-1.89,3.64-3.39,5.97-4.34l-.82,1.27-3.7,2.69-1.45.39ZM400.7,206.83l-1.45-.39-3.7-2.69-.82-1.27c2.33.95,4.37,2.45,5.97,4.34M404.31,217.88c-.18,2.56-1,4.96-2.29,7.02l-.08-1.5,1.41-4.35.95-1.17ZM392.63,231.74c-1.19.29-2.42.45-3.7.45s-2.51-.16-3.7-.45l1.41-.54h4.57l1.41.54ZM375.84,224.91c-1.29-2.07-2.1-4.46-2.29-7.02l.95,1.17,1.41,4.35-.08,1.5Z"/>
        <polygon class="cls-13" points="416.88 240.36 406.82 268.83 408.15 269.35 420.4 241.75 424.08 243.21 421.74 233.2 413.19 238.9 416.88 240.36"/>
        <polygon class="cls-35" points="295.53 146.44 271.88 144.37 271.58 117.75 218.62 117.75 218.92 189.71 271.88 189.71 271.88 153.67 295.53 146.44"/>
        <polygon class="cls-30" points="295.53 146.44 271.88 144.37 271.58 117.75 218.62 117.75 218.92 189.71 271.88 189.71 271.88 153.67 295.53 146.44"/>
      </g>
      <text class="cls-5" transform="translate(226.45 130.52)"><tspan x="0" y="0">車椅子の</tspan></text>
      <text class="cls-5" transform="translate(226.45 143.51)"><tspan x="0" y="0">一部でも</tspan></text>
      <text class="cls-5" transform="translate(226.45 156.51)"><tspan x="0" y="0">入ったら</tspan></text>
      <text class="cls-5" transform="translate(221.95 169.5)"><tspan x="0" y="0">ダメなので</tspan></text>
      <text class="cls-5" transform="translate(226.45 182.5)"><tspan x="0" y="0">ござる！</tspan></text>
      <g>
        <polygon class="cls-14" points="114.98 185.6 19.88 185.6 72.6 109.56 147.62 109.56 114.98 185.6"/>
        <polygon class="cls-24" points="75.84 101.05 11.93 193.24 17.25 193.24 81.16 101.05 75.84 101.05"/>
        <polygon class="cls-24" points="116.01 187.16 19.88 187.16 19.88 184.04 113.95 184.04 145.25 111.12 72.6 111.12 72.6 108 149.99 108 116.01 187.16"/>
        <path class="cls-3" d="M33.22,172.72c0,2.18-2.41,3.95-5.39,3.95s-5.39-1.77-5.39-3.95,2.41-3.95,5.39-3.95,5.39,1.77,5.39,3.95"/>
        <path class="cls-24" d="M27.83,177.38c-3.36,0-6.09-2.09-6.09-4.66s2.73-4.66,6.09-4.66,6.09,2.09,6.09,4.66-2.73,4.66-6.09,4.66M27.83,169.47c-2.58,0-4.68,1.46-4.68,3.25s2.1,3.25,4.68,3.25,4.69-1.46,4.69-3.25-2.1-3.25-4.69-3.25"/>
        <path class="cls-3" d="M32.46,172.06c0,1.61-2.07,2.91-4.63,2.91s-4.63-1.3-4.63-2.91,2.07-2.91,4.63-2.91,4.63,1.3,4.63,2.91"/>
        <path class="cls-24" d="M27.83,175.24c-2.7,0-4.9-1.42-4.9-3.17s2.2-3.17,4.9-3.17,4.9,1.42,4.9,3.17-2.2,3.17-4.9,3.17M27.83,169.42c-2.41,0-4.37,1.19-4.37,2.65s1.96,2.65,4.37,2.65,4.37-1.19,4.37-2.65-1.96-2.65-4.37-2.65"/>
        <path class="cls-3" d="M27.83,134.46c-1.09,0-1.97.69-1.97,1.54v35.39c0,.85.88,1.54,1.97,1.54s1.97-.69,1.97-1.54v-35.39c0-.85-.88-1.54-1.97-1.54"/>
        <path class="cls-24" d="M27.83,173.63c-1.47,0-2.67-1.01-2.67-2.24v-35.39c0-1.23,1.2-2.24,2.67-2.24s2.67,1.01,2.67,2.24v35.39c0,1.23-1.2,2.24-2.67,2.24M27.83,135.17c-.67,0-1.27.39-1.27.83v35.39c0,.44.59.83,1.27.83s1.27-.39,1.27-.83v-35.39c0-.44-.59-.83-1.27-.83"/>
        <path class="cls-3" d="M29.52,135.57c0,.61-.76,1.11-1.7,1.11s-1.7-.5-1.7-1.11.76-1.11,1.7-1.11,1.7.5,1.7,1.11"/>
        <path class="cls-24" d="M27.83,137.04c-1.15,0-2.05-.64-2.05-1.46s.9-1.46,2.05-1.46,2.05.64,2.05,1.46-.9,1.46-2.05,1.46M27.83,134.82c-.79,0-1.34.4-1.34.76s.55.76,1.34.76,1.34-.4,1.34-.76-.55-.76-1.34-.76"/>
        <path class="cls-21" d="M143.58,149.73l-4.95,1.8-4.95-1.8.78-1.2c1.3-.48,2.71-.74,4.18-.74s2.87.26,4.18.74l.78,1.2Z"/>
        <polygon class="cls-21" points="146.44 157.36 143.8 158.71 138.76 155.05 138.76 151.76 143.77 149.95 146.62 152.02 146.44 157.36"/>
        <polygon class="cls-21" points="138.49 155.05 133.46 158.71 130.81 157.36 130.63 152.02 133.49 149.95 138.49 151.76 138.49 155.05"/>
        <path class="cls-21" d="M149.92,161.52c.06-.49.1-.99.1-1.5,0-.89-.11-1.76-.3-2.59-.04,1.1-.21,2.16-.51,3.18l-2.51-3.21.18-5.27,1.37.37c1.63,2.08,2.6,4.69,2.6,7.53,0,.14,0,.28,0,.42l-.9,1.11-.03-.03Z"/>
        <path class="cls-21" d="M128.57,165.44l5.07,1.46,1.95,2.89c-1.69-.17-3.28-.66-4.71-1.41,1.55,1.44,3.51,2.45,5.68,2.85l.02.03-1.33.51c-2.79-.8-5.17-2.57-6.76-4.92l.07-1.42Z"/>
        <path class="cls-21" d="M143.62,166.9l2.14-.62c-.96.92-2.06,1.69-3.27,2.28l1.12-1.66Z"/>
        <path class="cls-21" d="M135.93,169.82l-2.04-3.03,1.61-1.73h6.26l1.61,1.73-1.34,1.98c-1.58.69-3.32,1.08-5.16,1.08-.32,0-.63-.01-.94-.03"/>
        <path class="cls-21" d="M148.65,165.45h.04s.07,1.41.07,1.41c-1.59,2.35-3.97,4.12-6.76,4.92l-1.33-.51.02-.03c3.44-.63,6.34-2.8,7.96-5.78"/>
        <path class="cls-21" d="M126.4,160.02c0-2.84.97-5.45,2.6-7.53l1.37-.37.18,5.27-3.24,4.16-.9-1.11c0-.14,0-.28,0-.42"/>
        <path class="cls-21" d="M146.82,151.83l-2.93-2.13-.65-1c1.85.75,3.47,1.94,4.73,3.44l-1.15-.31Z"/>
        <path class="cls-21" d="M148.95,165.28l1.12-3.45.76-.93c-.15,2.03-.79,3.93-1.81,5.57l-.06-1.19Z"/>
        <path class="cls-21" d="M134.02,148.7l-.65,1-2.93,2.13-1.15.31c1.27-1.5,2.89-2.69,4.73-3.44"/>
        <path class="cls-21" d="M127.19,161.83l1.12,3.45-.06,1.19c-1.02-1.64-1.67-3.54-1.81-5.57l.75.93Z"/>
        <path class="cls-21" d="M135.69,171.89l1.12-.43h3.62l1.12.43c-.94.23-1.92.36-2.93.36s-1.99-.12-2.93-.36"/>
        <polygon class="cls-21" points="138.63 155.28 143.63 158.92 141.72 164.79 135.54 164.79 133.63 158.92 138.63 155.28"/>
        <path class="cls-21" d="M141.97,164.9l1.93-5.94,2.64-1.35,2.58,3.31c-.6,1.88-1.63,3.57-2.96,4.96l-2.58.74-1.61-1.73Z"/>
        <polygon class="cls-21" points="130.72 157.61 133.36 158.96 135.29 164.9 133.68 166.63 128.55 165.16 127.46 161.8 130.72 157.61"/>
        <path class="cls-27" d="M145.76,166.28l2.89-.83c-1.61,2.98-4.52,5.15-7.95,5.78l1.8-2.67c1.21-.59,2.31-1.36,3.27-2.28"/>
        <path class="cls-27" d="M150.02,160.02c0,.51-.04,1.01-.1,1.5l-.71-.91c.3-1.01.47-2.08.51-3.18.19.83.3,1.7.3,2.59"/>
        <path class="cls-27" d="M149.8,161.8l-1.09,3.36-2.55.73c1.34-1.39,2.36-3.08,2.96-4.97l.68.87Z"/>
        <path class="cls-27" d="M136.87,169.85c1.84,0,3.58-.39,5.16-1.08l-1.63,2.42h-3.53l-.93-1.38c.31.02.62.03.94.03"/>
        <path class="cls-27" d="M135.59,169.79l.97,1.44c-2.17-.4-4.13-1.41-5.68-2.85,1.43.75,3.02,1.25,4.71,1.41"/>
        <path class="cls-24" d="M124.79,160.02c0,7.63,6.21,13.84,13.84,13.84s13.84-6.21,13.84-13.84-6.21-13.84-13.84-13.84-13.84,6.21-13.84,13.84M128.49,166.86l.07-1.42,5.07,1.46,1.95,2.89.97,1.44.02.03-1.33.51c-2.79-.8-5.17-2.57-6.76-4.92M140.69,171.23l1.8-2.67,1.12-1.66,2.14-.62,2.89-.83h.04s.07,1.41.07,1.41c-1.59,2.35-3.97,4.12-6.76,4.92l-1.33-.51.03-.04ZM150.84,160.45l-.89,1.11-.03-.03-.71-.91-2.51-3.21.18-5.27,1.37.37c1.63,2.08,2.6,4.69,2.6,7.53,0,.14,0,.28,0,.42M146.62,152.02l-.18,5.33-2.64,1.35-5.04-3.66v-3.28l5-1.82,2.86,2.08ZM138.63,147.8c1.47,0,2.87.26,4.18.74l.78,1.2-4.95,1.8-4.95-1.8.78-1.2c1.3-.48,2.71-.74,4.18-.74M138.49,151.76v3.28l-5.04,3.66-2.64-1.35-.18-5.33,2.86-2.08,5,1.82ZM135.93,169.82l-2.04-3.03,1.61-1.73h6.26l1.61,1.73-1.34,1.98-1.63,2.42h-3.53l-.93-1.38ZM143.58,166.63l-1.61-1.73,1.93-5.94,2.64-1.35,2.58,3.31.68.87-1.09,3.36-2.55.73-2.58.74ZM133.63,158.92l5-3.63,5,3.63-1.91,5.88h-6.18l-1.91-5.88ZM127.46,161.8l3.26-4.18,2.64,1.35,1.93,5.94-1.61,1.73-5.13-1.47-1.09-3.36ZM126.41,160.45c0-.14,0-.28,0-.42,0-2.84.97-5.45,2.6-7.53l1.37-.37.18,5.27-3.24,4.15-.9-1.11ZM129.29,152.14c1.27-1.5,2.89-2.69,4.73-3.44l-.65,1-2.93,2.13-1.15.31ZM147.96,152.14l-1.15-.31-2.93-2.13-.65-1c1.85.75,3.47,1.94,4.73,3.44M150.82,160.9c-.15,2.03-.79,3.93-1.81,5.57l-.06-1.19,1.12-3.45.76-.93ZM141.56,171.89c-.94.23-1.92.36-2.93.36s-1.99-.12-2.93-.36l1.12-.43h3.62l1.12.43ZM128.24,166.47c-1.02-1.64-1.67-3.54-1.81-5.57l.75.93,1.12,3.45-.06,1.19Z"/>
        <polygon class="cls-35" points="212.2 6.13 .25 6.13 .25 86.33 96.11 86.33 101.09 117.18 108.12 86.33 212.2 86.33 212.2 6.13"/>
        <polygon class="cls-30" points="212.2 6.13 .25 6.13 .25 86.33 96.11 86.33 101.09 117.18 108.12 86.33 212.2 86.33 212.2 6.13"/>
        <path class="cls-3" d="M72.28,116.24c0,2.18-2.41,3.95-5.39,3.95s-5.39-1.77-5.39-3.95,2.41-3.95,5.39-3.95,5.39,1.77,5.39,3.95"/>
        <path class="cls-13" d="M66.89,120.89c-3.36,0-6.09-2.09-6.09-4.66s2.73-4.66,6.09-4.66,6.09,2.09,6.09,4.66-2.73,4.66-6.09,4.66M66.89,112.99c-2.58,0-4.68,1.46-4.68,3.25s2.1,3.25,4.68,3.25,4.69-1.46,4.69-3.25-2.1-3.25-4.69-3.25"/>
        <path class="cls-3" d="M71.52,115.58c0,1.61-2.07,2.91-4.63,2.91s-4.63-1.3-4.63-2.91,2.07-2.91,4.63-2.91,4.63,1.3,4.63,2.91"/>
        <path class="cls-13" d="M66.89,118.75c-2.7,0-4.9-1.42-4.9-3.17s2.2-3.17,4.9-3.17,4.9,1.42,4.9,3.17-2.2,3.17-4.9,3.17M66.89,112.93c-2.41,0-4.37,1.19-4.37,2.65s1.96,2.65,4.37,2.65,4.37-1.19,4.37-2.65-1.96-2.65-4.37-2.65"/>
        <path class="cls-3" d="M66.89,77.98c-1.09,0-1.97.69-1.97,1.54v35.39c0,.85.88,1.54,1.97,1.54s1.97-.69,1.97-1.54v-35.39c0-.85-.88-1.54-1.97-1.54"/>
        <path class="cls-13" d="M66.89,117.15c-1.47,0-2.67-1.01-2.67-2.24v-35.39c0-1.23,1.2-2.24,2.67-2.24s2.67,1,2.67,2.24v35.39c0,1.23-1.2,2.24-2.67,2.24M66.89,78.68c-.67,0-1.27.39-1.27.83v35.39c0,.44.59.83,1.27.83s1.27-.39,1.27-.83v-35.39c0-.44-.59-.83-1.27-.83"/>
        <path class="cls-3" d="M68.59,79.09c0,.61-.76,1.11-1.7,1.11s-1.7-.5-1.7-1.11.76-1.11,1.7-1.11,1.7.5,1.7,1.11"/>
        <path class="cls-13" d="M66.89,80.55c-1.15,0-2.05-.64-2.05-1.46s.9-1.46,2.05-1.46,2.05.64,2.05,1.46-.9,1.46-2.05,1.46M66.89,78.33c-.79,0-1.34.4-1.34.76s.55.76,1.34.76,1.34-.4,1.34-.76-.55-.76-1.34-.76"/>
      </g>
      <text class="cls-5" transform="translate(11.71 48.6)"><tspan class="cls-33" x="0" y="0">ゴー</tspan><tspan class="cls-31" x="19.03" y="0">ル</tspan><tspan class="cls-33" x="28.55" y="0">キー</tspan><tspan class="cls-31" x="47.57" y="0">パ</tspan><tspan class="cls-32" x="57.1" y="0">ー</tspan><tspan x="66.61" y="0">は、</tspan><tspan class="cls-33" x="84.61" y="0">ペナル</tspan><tspan class="cls-31" x="113.15" y="0">テ</tspan><tspan class="cls-33" x="122.67" y="0">ィー</tspan><tspan class="cls-31" x="141.7" y="0">エ</tspan><tspan class="cls-32" x="151.22" y="0">リアか</tspan><tspan x="179.76" y="0">ら</tspan></text>
      <text class="cls-5" transform="translate(11.71 62.6)"><tspan class="cls-39" x="0" y="0">出な</tspan><tspan class="cls-36" x="18.56" y="0">け</tspan><tspan class="cls-39" x="27.85" y="0">れ</tspan><tspan class="cls-19" x="37.12" y="0">ば</tspan><tspan x="50.62" y="0">2on</tspan><tspan class="cls-20" x="67.76" y="0">1</tspan><tspan class="cls-38" x="77.74" y="0">になら</tspan><tspan class="cls-36" x="105.58" y="0">な</tspan><tspan class="cls-38" x="114.87" y="0">い特</tspan><tspan class="cls-36" x="133.42" y="0">権</tspan><tspan class="cls-39" x="142.71" y="0">があるの</tspan><tspan x="179.83" y="0">で</tspan></text>
      <text class="cls-5" transform="translate(11.71 76.6)"><tspan x="0" y="0">ござる！</tspan></text>
      <g>
        <path class="cls-15" d="M24.24,35.51h-3.88c-3.97,0-7.22-3.25-7.22-7.22v-3.88c0-3.97,3.25-7.22,7.22-7.22h3.88c3.97,0,7.22,3.25,7.22,7.22v3.88c0,3.97-3.25,7.22-7.22,7.22"/>
        <polygon class="cls-28" points="20.76 31.02 16.29 26.26 18.34 23.98 20.86 28.04 25.74 20.63 28.23 22.46 20.76 31.02"/>
      </g>
      <text class="cls-9" transform="translate(39.09 32.4)"><tspan x="0" y="0">２on１にならないの？</tspan></text>
      <g>
        <path class="cls-15" d="M291.38,194.74c-4.45-8.12-1.48-18.31,6.64-22.76,8.12-4.45,18.3-1.48,22.76,6.64,4.45,8.12,1.48,18.31-6.64,22.76-8.12,4.45-18.31,1.48-22.76-6.64"/>
        <polygon class="cls-15" points="314.43 173.94 312.84 166.32 307.47 171.63 314.43 173.94"/>
        <path class="cls-28" d="M313.37,192.58l-.98.98c-.25.25-.56.25-.8,0l-4.46-4.43c-.24-.24-.56-.24-.8,0l-4.46,4.43c-.24.25-.56.25-.8,0l-.98-.98c-.24-.24-.24-.56,0-.8l4.43-4.46c.24-.24.24-.56,0-.8l-4.43-4.46c-.24-.24-.24-.56,0-.8l.98-.98c.24-.24.56-.24.8,0l4.46,4.43c.24.24.56.24.8,0l4.46-4.43c.24-.24.56-.24.8,0l.98.98c.24.24.24.56,0,.8l-4.43,4.46c-.24.24-.24.56,0,.8l4.43,4.46c.24.24.24.56,0,.8"/>
        <path class="cls-22" d="M454.5,190.64c.23.31.44.63.66.95l3.26-2.31-.02-1.16,1.21,1.49-4.13,2.45c.05.08.09.15.14.22l4.56-2.6-1.9-2.58-3.76,3.53Z"/>
        <path class="cls-22" d="M461.99,193.87l-4.82,1.59c.15.37.28.73.41,1.11l3.78-.67.49-1.08.03.16.34,1.65-4.46.52c.03.09.05.18.07.26l4.78-.4-.64-3.14Z"/>
        <path class="cls-25" d="M458.39,188.12l.02,1.16-3.26,2.31c.1.16.21.32.31.48l4.13-2.46-1.21-1.49Z"/>
        <path class="cls-25" d="M461.89,194.98l-.03-.16-.49,1.08-3.78.67c.06.19.13.38.19.58l4.46-.52-.34-1.65Z"/>
        <path class="cls-24" d="M463.38,191.46l-6.18,2.05,5.67-3.24-4.37-5.92-5.16,4.85c-4.05-4.66-10.02-7.62-16.66-7.62-12.17,0-22.07,9.9-22.07,22.06,0,11.06,8.25,17.66,22.07,17.66s22.07-6.6,22.07-17.66c0-1.51-.15-2.99-.45-4.42l6.55-.55-1.48-7.21ZM453.63,202.6c-4.6,1.78-10.66,2.81-16.95,2.81s-12.74-1.08-17.41-2.99c-.46-.19-.91-.39-1.34-.59.23-2.37.9-4.62,1.93-6.65.48.2.98.39,1.5.57,4.22,1.46,9.63,2.27,15.32,2.27s11.47-.87,15.75-2.43c.37-.13.72-.27,1.07-.41,1.03,2.03,1.7,4.28,1.93,6.65-.57.27-1.17.53-1.81.78M455.6,192.3c-.05-.08-.09-.15-.14-.22-.1-.16-.2-.32-.31-.48-.21-.32-.43-.64-.66-.95l3.76-3.53,1.9,2.58-4.56,2.6ZM452.33,193.16c-4.09,1.63-9.67,2.54-15.65,2.54-5.28,0-10.26-.72-14.18-2.02-.51-.17-1-.34-1.46-.53,3.39-5.03,9.13-8.35,15.64-8.35.54,0,1.07.03,1.6.07,5.85.49,10.94,3.66,14.05,8.28M421.71,213.4c-2.17-2.03-3.69-4.94-3.85-9.07.4.17.8.34,1.22.5,4.86,1.85,11.07,2.89,17.59,2.89,6.11,0,11.88-.89,16.55-2.51.79-.27,1.55-.57,2.27-.88-.15,4.06-1.62,6.93-3.73,8.96-4.33,4.16-11.35,4.78-15.09,4.78s-10.63-.6-14.97-4.67M457.78,197.14c-.06-.19-.13-.38-.19-.58-.13-.37-.26-.74-.41-1.11l4.82-1.59.64,3.14-4.78.4c-.03-.09-.05-.18-.07-.26"/>
        <path class="cls-1" d="M438.28,184.88c-6.6.47-12.33,3.86-15.78,8.81,3.92,1.29,8.9,2.02,14.18,2.02,5.97,0,11.55-.92,15.65-2.54-3.1-4.62-8.2-7.79-14.05-8.28"/>
        <path class="cls-1" d="M451.77,213.29c-3.21,2.4-7.74,3.5-12.78,3.5-.79,0-1.57-.03-2.34-.09,8.3-.57,14.97-4.11,16.58-11.5-4.67,1.61-10.44,2.51-16.55,2.51-6.52,0-12.74-1.04-17.6-2.89.06,3.35,1,6.21,2.62,8.57,4.34,4.07,11.27,4.67,14.97,4.67s10.75-.62,15.08-4.78"/>
        <path class="cls-27" d="M417.87,204.33c.15,4.13,1.67,7.04,3.84,9.07-1.62-2.36-2.57-5.23-2.62-8.57-.42-.16-.83-.33-1.22-.5"/>
        <path class="cls-27" d="M438.28,184.88c-.53-.04-1.06-.07-1.6-.07-6.51,0-12.26,3.32-15.64,8.35.47.19.96.36,1.46.53,3.44-4.95,9.18-8.34,15.78-8.81"/>
        <path class="cls-25" d="M436.66,216.71c.77.05,1.54.09,2.34.09,5.03,0,9.57-1.1,12.78-3.5,2.11-2.03,3.58-4.91,3.73-8.96-.72.31-1.48.61-2.27.88-1.61,7.39-8.28,10.93-16.58,11.5"/>
        <path class="cls-17" d="M452.44,195.58c-4.28,1.56-9.85,2.43-15.75,2.43s-11.09-.81-15.32-2.27c-.65,1.15-1.61,3.32-2.09,6.68,4.67,1.91,10.85,2.99,17.41,2.99s12.34-1.03,16.94-2.81c.09-1.47-.02-3.96-1.19-7.01M429.36,203.47c-2.01,0-3.65-2.25-3.65-5.02,0-.19,0-.37.02-.55,1.59.75,4.22,1.88,6.95,2.59-.57,1.76-1.84,2.98-3.33,2.98M444,203.47c-1.49,0-2.76-1.23-3.33-2.98,2.73-.71,5.36-1.84,6.95-2.59.01.18.02.36.02.55,0,2.77-1.63,5.02-3.65,5.02"/>
        <path class="cls-37" d="M419.87,195.17c-1.03,2.04-1.7,4.28-1.93,6.66.43.21.88.4,1.34.59.48-3.35,1.44-5.53,2.09-6.68-.52-.18-1.02-.37-1.5-.57"/>
        <path class="cls-23" d="M453.5,195.17c-.35.14-.7.28-1.07.41,1.17,3.05,1.29,5.54,1.19,7.01.63-.24,1.23-.5,1.81-.78-.23-2.37-.9-4.62-1.93-6.65"/>
        <path class="cls-24" d="M425.72,198.45c0,2.77,1.63,5.02,3.65,5.02,1.49,0,2.76-1.23,3.33-2.98-2.73-.71-5.36-1.84-6.95-2.59-.01.18-.02.36-.02.55"/>
        <path class="cls-24" d="M447.63,197.9c-1.59.75-4.22,1.88-6.95,2.59.57,1.76,1.84,2.98,3.33,2.98,2.01,0,3.65-2.25,3.65-5.02,0-.19,0-.37-.02-.55"/>
        <path class="cls-26" d="M392.43,161.91c.23.31.45.63.66.96l3.28-2.33-.02-1.17,1.22,1.51-4.17,2.47c.05.07.09.15.14.22l4.59-2.62-1.92-2.6-3.78,3.55Z"/>
        <path class="cls-26" d="M399.98,165.16l-4.85,1.61c.15.37.29.74.41,1.12l3.81-.68.5-1.09.03.16.35,1.66-4.5.52c.03.09.05.18.08.27l4.82-.41-.65-3.16Z"/>
        <path class="cls-16" d="M396.35,159.37l.02,1.17-3.28,2.33c.1.16.21.32.31.48l4.16-2.47-1.22-1.5Z"/>
        <path class="cls-16" d="M399.88,166.28l-.03-.16-.5,1.09-3.81.68c.07.19.13.39.19.58l4.49-.52-.35-1.66Z"/>
        <path class="cls-24" d="M401.38,162.73l-6.22,2.06,5.72-3.26-4.4-5.96-5.2,4.88c-4.08-4.7-10.09-7.68-16.78-7.68-12.26,0-22.23,9.97-22.23,22.22,0,11.14,8.31,17.79,22.23,17.79s22.23-6.65,22.23-17.79c0-1.52-.16-3.01-.45-4.45l6.6-.56-1.49-7.26ZM391.55,173.95c-4.64,1.8-10.73,2.83-17.07,2.83s-12.84-1.08-17.54-3.01c-.46-.19-.92-.39-1.35-.6.23-2.39.91-4.65,1.95-6.71.49.2.99.39,1.51.58,4.26,1.47,9.7,2.29,15.43,2.29s11.55-.88,15.87-2.45c.37-.13.73-.27,1.07-.42,1.04,2.05,1.72,4.31,1.95,6.7-.58.27-1.18.54-1.82.78M393.54,163.57c-.05-.08-.09-.15-.14-.22-.1-.16-.2-.32-.31-.48-.21-.32-.43-.64-.66-.96l3.78-3.55,1.92,2.6-4.59,2.62ZM390.24,164.45c-4.12,1.64-9.74,2.56-15.76,2.56-5.32,0-10.34-.73-14.29-2.03-.51-.17-1-.35-1.47-.53,3.41-5.07,9.2-8.41,15.76-8.41.54,0,1.08.03,1.61.07,5.89.5,11.02,3.69,14.15,8.34M359.4,184.83c-2.19-2.05-3.72-4.98-3.87-9.14.4.17.81.34,1.23.5,4.89,1.87,11.15,2.91,17.73,2.91,6.16,0,11.96-.9,16.67-2.53.79-.28,1.56-.57,2.28-.89-.15,4.09-1.63,6.99-3.76,9.03-4.37,4.19-11.43,4.81-15.2,4.81s-10.71-.61-15.08-4.7M395.73,168.46c-.06-.2-.13-.39-.19-.58-.13-.38-.27-.75-.41-1.12l4.85-1.61.65,3.16-4.82.41c-.03-.09-.05-.18-.08-.27"/>
        <path class="cls-26" d="M376.09,156.1c-6.65.48-12.42,3.89-15.89,8.87,3.95,1.3,8.97,2.03,14.29,2.03,6.02,0,11.64-.92,15.76-2.56-3.13-4.65-8.26-7.84-14.15-8.34"/>
        <path class="cls-26" d="M389.68,184.72c-3.23,2.42-7.8,3.53-12.87,3.53-.8,0-1.58-.03-2.35-.09,8.36-.57,15.07-4.14,16.7-11.59-4.71,1.63-10.52,2.53-16.67,2.53-6.57,0-12.83-1.04-17.72-2.91.06,3.37,1.01,6.26,2.64,8.64,4.38,4.1,11.35,4.7,15.08,4.7s10.83-.62,15.2-4.81"/>
        <path class="cls-2" d="M355.53,175.69c.16,4.16,1.68,7.09,3.87,9.14-1.64-2.38-2.58-5.26-2.64-8.64-.42-.16-.83-.33-1.23-.5"/>
        <path class="cls-2" d="M376.09,156.1c-.53-.04-1.07-.07-1.61-.07-6.56,0-12.35,3.34-15.76,8.41.47.19.96.36,1.47.53,3.47-4.98,9.25-8.4,15.89-8.87"/>
        <path class="cls-16" d="M374.46,188.16c.77.06,1.56.09,2.35.09,5.07,0,9.64-1.11,12.87-3.53,2.13-2.04,3.61-4.94,3.76-9.03-.73.32-1.49.61-2.28.89-1.62,7.45-8.34,11.01-16.7,11.59"/>
        <path class="cls-17" d="M390.35,166.89c-4.31,1.57-9.93,2.45-15.87,2.45s-11.17-.82-15.43-2.29c-.66,1.15-1.62,3.35-2.11,6.73,4.7,1.93,10.93,3.01,17.54,3.01s12.44-1.04,17.07-2.83c.09-1.48-.02-3.99-1.2-7.06M367.11,174.83c-2.03,0-3.67-2.26-3.67-5.06,0-.19,0-.37.02-.55,1.6.76,4.25,1.89,7,2.61-.57,1.77-1.86,3-3.35,3M381.86,174.83c-1.5,0-2.78-1.23-3.35-3,2.76-.72,5.4-1.85,7-2.61.02.18.02.37.02.55,0,2.79-1.65,5.06-3.67,5.06"/>
        <path class="cls-37" d="M357.54,166.47c-1.04,2.05-1.72,4.31-1.95,6.71.43.21.88.4,1.35.6.48-3.38,1.45-5.57,2.11-6.73-.52-.18-1.03-.38-1.51-.58"/>
        <path class="cls-23" d="M391.43,166.47c-.35.14-.71.28-1.08.42,1.18,3.07,1.3,5.58,1.2,7.06.64-.25,1.24-.51,1.82-.78-.23-2.39-.91-4.65-1.95-6.7"/>
        <path class="cls-24" d="M363.44,169.78c0,2.79,1.65,5.06,3.67,5.06,1.5,0,2.78-1.23,3.35-3-2.76-.72-5.4-1.85-7.01-2.61-.01.18-.02.37-.02.55"/>
        <path class="cls-24" d="M385.51,169.22c-1.6.76-4.25,1.89-7,2.61.57,1.77,1.86,3,3.35,3,2.03,0,3.67-2.26,3.67-5.06,0-.19,0-.37-.02-.55"/>
        <path class="cls-22" d="M186.92,119.15c.23.31.45.63.66.95l3.26-2.31-.02-1.16,1.21,1.49-4.13,2.45c.05.08.09.15.14.22l4.56-2.6-1.9-2.58-3.76,3.53Z"/>
        <path class="cls-22" d="M194.41,122.37l-4.82,1.59c.15.37.28.73.41,1.11l3.78-.67.49-1.08.03.16.35,1.65-4.46.52c.03.09.05.18.08.26l4.78-.4-.64-3.14Z"/>
        <path class="cls-25" d="M190.81,116.63l.02,1.16-3.26,2.31c.1.16.21.32.31.48l4.13-2.46-1.21-1.49Z"/>
        <path class="cls-25" d="M194.31,123.48l-.03-.16-.49,1.08-3.78.67c.07.19.13.38.19.58l4.46-.52-.34-1.65Z"/>
        <path class="cls-24" d="M195.8,119.96l-6.18,2.05,5.67-3.24-4.37-5.92-5.16,4.85c-4.05-4.66-10.02-7.62-16.66-7.62-12.17,0-22.07,9.9-22.07,22.06,0,11.06,8.25,17.66,22.07,17.66s22.07-6.6,22.07-17.66c0-1.51-.15-2.99-.45-4.42l6.55-.55-1.48-7.21ZM186.04,131.1c-4.6,1.78-10.66,2.81-16.95,2.81s-12.74-1.08-17.41-2.99c-.46-.19-.91-.39-1.34-.59.23-2.37.9-4.62,1.93-6.65.48.2.98.39,1.5.57,4.22,1.46,9.63,2.27,15.32,2.27s11.47-.87,15.75-2.43c.37-.13.72-.27,1.07-.41,1.03,2.03,1.7,4.28,1.93,6.65-.57.27-1.17.53-1.8.78M188.02,120.8c-.04-.08-.09-.15-.14-.22-.1-.16-.2-.32-.31-.48-.21-.32-.43-.64-.66-.95l3.75-3.53,1.9,2.58-4.56,2.6ZM184.74,121.66c-4.09,1.63-9.67,2.54-15.64,2.54-5.28,0-10.26-.72-14.18-2.02-.51-.17-1-.34-1.46-.53,3.39-5.03,9.13-8.35,15.64-8.35.54,0,1.07.03,1.6.07,5.85.49,10.94,3.66,14.05,8.28M154.13,141.9c-2.17-2.03-3.69-4.94-3.85-9.07.4.17.8.34,1.22.5,4.86,1.85,11.07,2.89,17.6,2.89,6.11,0,11.88-.89,16.55-2.51.79-.27,1.54-.57,2.27-.88-.15,4.06-1.62,6.93-3.73,8.96-4.33,4.16-11.35,4.78-15.08,4.78s-10.63-.6-14.97-4.67M190.19,125.65c-.06-.19-.13-.39-.19-.58-.13-.37-.26-.74-.41-1.11l4.82-1.59.64,3.14-4.78.4c-.03-.09-.05-.18-.08-.26"/>
        <path class="cls-1" d="M170.7,113.38c-6.6.47-12.33,3.86-15.78,8.81,3.92,1.3,8.9,2.02,14.18,2.02,5.97,0,11.55-.92,15.65-2.54-3.1-4.62-8.2-7.79-14.05-8.28"/>
        <path class="cls-1" d="M184.18,141.79c-3.21,2.4-7.74,3.5-12.78,3.5-.79,0-1.57-.03-2.34-.09,8.3-.57,14.96-4.11,16.58-11.5-4.67,1.62-10.44,2.51-16.55,2.51-6.52,0-12.74-1.04-17.6-2.89.06,3.35,1,6.21,2.62,8.57,4.34,4.07,11.27,4.67,14.97,4.67s10.75-.61,15.09-4.78"/>
        <path class="cls-27" d="M150.28,132.83c.15,4.13,1.67,7.04,3.84,9.07-1.62-2.36-2.57-5.23-2.62-8.57-.42-.16-.83-.33-1.22-.5"/>
        <path class="cls-27" d="M170.7,113.38c-.53-.04-1.06-.07-1.6-.07-6.51,0-12.26,3.32-15.64,8.35.47.19.96.36,1.46.53,3.45-4.95,9.18-8.33,15.78-8.81"/>
        <path class="cls-25" d="M169.07,145.21c.77.05,1.54.09,2.34.09,5.03,0,9.57-1.1,12.78-3.5,2.11-2.03,3.58-4.91,3.73-8.96-.72.31-1.48.61-2.27.88-1.61,7.39-8.28,10.93-16.58,11.5"/>
        <path class="cls-17" d="M184.85,124.09c-4.28,1.56-9.85,2.43-15.75,2.43s-11.09-.82-15.32-2.27c-.65,1.15-1.61,3.32-2.09,6.68,4.67,1.91,10.85,2.99,17.41,2.99s12.34-1.03,16.94-2.81c.09-1.47-.02-3.96-1.19-7.01M161.78,131.98c-2.01,0-3.65-2.25-3.65-5.02,0-.19,0-.37.02-.55,1.59.75,4.22,1.88,6.95,2.59-.57,1.76-1.84,2.98-3.33,2.98M176.42,131.98c-1.49,0-2.76-1.23-3.33-2.98,2.74-.71,5.36-1.84,6.95-2.59.02.18.02.36.02.55,0,2.77-1.63,5.02-3.65,5.02"/>
        <path class="cls-37" d="M152.28,123.67c-1.03,2.04-1.7,4.28-1.93,6.66.43.21.88.4,1.34.59.48-3.35,1.44-5.53,2.09-6.68-.52-.18-1.02-.37-1.5-.57"/>
        <path class="cls-23" d="M185.92,123.67c-.35.14-.7.28-1.07.41,1.17,3.05,1.28,5.54,1.2,7.01.63-.24,1.23-.5,1.8-.78-.23-2.37-.9-4.62-1.93-6.65"/>
        <path class="cls-24" d="M158.13,126.96c0,2.77,1.63,5.02,3.65,5.02,1.49,0,2.76-1.23,3.33-2.98-2.73-.71-5.36-1.84-6.95-2.59-.02.18-.02.36-.02.55"/>
        <path class="cls-24" d="M180.04,126.41c-1.59.75-4.22,1.88-6.95,2.59.57,1.76,1.84,2.98,3.33,2.98,2.01,0,3.65-2.25,3.65-5.02,0-.19,0-.37-.02-.55"/>
        <path class="cls-26" d="M118.36,129.01c.23.31.45.63.66.96l3.28-2.33-.02-1.17,1.22,1.5-4.16,2.47c.05.07.09.15.14.22l4.59-2.62-1.92-2.6-3.78,3.55Z"/>
        <path class="cls-26" d="M125.9,132.26l-4.85,1.61c.15.37.29.74.41,1.12l3.81-.68.5-1.09.03.16.35,1.66-4.49.52c.03.09.05.18.08.27l4.82-.41-.65-3.16Z"/>
        <path class="cls-16" d="M122.28,126.48l.02,1.17-3.28,2.33c.1.16.21.32.31.48l4.16-2.47-1.22-1.5Z"/>
        <path class="cls-16" d="M125.8,133.38l-.03-.16-.5,1.09-3.81.68c.07.19.13.39.19.58l4.49-.52-.35-1.66Z"/>
        <path class="cls-24" d="M127.31,129.84l-6.22,2.06,5.71-3.26-4.4-5.96-5.2,4.88c-4.08-4.7-10.09-7.68-16.79-7.68-12.26,0-22.23,9.97-22.23,22.22,0,11.14,8.31,17.79,22.23,17.79s22.23-6.65,22.23-17.79c0-1.52-.15-3.01-.45-4.45l6.6-.56-1.49-7.26ZM117.48,141.05c-4.63,1.8-10.73,2.83-17.07,2.83s-12.84-1.09-17.54-3.01c-.46-.19-.92-.39-1.35-.6.23-2.39.91-4.65,1.95-6.71.49.2.99.39,1.51.58,4.26,1.47,9.7,2.29,15.43,2.29s11.55-.88,15.87-2.45c.37-.13.73-.27,1.08-.42,1.04,2.05,1.72,4.31,1.95,6.7-.58.27-1.18.54-1.82.78M119.47,130.68c-.04-.08-.09-.15-.14-.22-.1-.16-.21-.32-.31-.48-.21-.33-.43-.64-.66-.96l3.78-3.55,1.92,2.6-4.59,2.62ZM116.17,131.55c-4.12,1.64-9.74,2.56-15.76,2.56-5.32,0-10.34-.73-14.28-2.03-.51-.17-1-.35-1.48-.53,3.41-5.07,9.2-8.41,15.76-8.41.54,0,1.08.03,1.61.07,5.89.5,11.02,3.69,14.15,8.34M85.33,151.93c-2.19-2.05-3.72-4.98-3.87-9.14.4.17.81.34,1.23.5,4.89,1.87,11.15,2.91,17.72,2.91,6.16,0,11.97-.9,16.67-2.53.79-.28,1.56-.57,2.28-.89-.15,4.09-1.63,6.99-3.76,9.03-4.37,4.19-11.43,4.81-15.2,4.81s-10.71-.61-15.08-4.7M121.66,135.56c-.06-.2-.13-.39-.19-.58-.13-.38-.27-.75-.41-1.12l4.85-1.61.65,3.16-4.82.41c-.03-.09-.05-.18-.08-.27"/>
        <path class="cls-26" d="M102.02,123.21c-6.65.48-12.42,3.89-15.89,8.87,3.95,1.3,8.97,2.03,14.28,2.03,6.02,0,11.64-.92,15.76-2.56-3.13-4.65-8.26-7.84-14.15-8.34"/>
        <path class="cls-26" d="M115.61,151.82c-3.23,2.42-7.8,3.53-12.87,3.53-.8,0-1.58-.03-2.35-.09,8.36-.57,15.08-4.14,16.7-11.59-4.71,1.63-10.52,2.53-16.67,2.53-6.57,0-12.83-1.04-17.72-2.91.06,3.37,1.01,6.26,2.64,8.64,4.38,4.1,11.35,4.7,15.08,4.7s10.83-.62,15.2-4.81"/>
        <path class="cls-2" d="M81.45,142.8c.16,4.16,1.68,7.09,3.87,9.14-1.64-2.38-2.58-5.26-2.64-8.64-.42-.16-.83-.33-1.23-.5"/>
        <path class="cls-2" d="M102.02,123.21c-.53-.04-1.07-.07-1.61-.07-6.56,0-12.35,3.34-15.76,8.41.47.19.97.36,1.48.53,3.47-4.98,9.25-8.4,15.89-8.87"/>
        <path class="cls-16" d="M100.38,155.27c.77.05,1.56.09,2.35.09,5.07,0,9.64-1.11,12.87-3.53,2.13-2.04,3.61-4.94,3.76-9.03-.73.32-1.49.61-2.28.89-1.62,7.45-8.34,11.01-16.7,11.59"/>
        <path class="cls-17" d="M116.28,133.99c-4.31,1.57-9.93,2.45-15.87,2.45s-11.17-.82-15.43-2.29c-.66,1.16-1.62,3.35-2.11,6.73,4.7,1.93,10.93,3.01,17.54,3.01s12.44-1.04,17.07-2.83c.09-1.48-.02-3.99-1.2-7.06M93.04,141.94c-2.03,0-3.67-2.26-3.67-5.06,0-.19,0-.37.02-.55,1.6.76,4.25,1.89,7,2.61-.57,1.77-1.86,3-3.35,3M107.78,141.94c-1.5,0-2.78-1.23-3.35-3,2.76-.72,5.4-1.85,7.01-2.61.01.18.02.37.02.55,0,2.79-1.64,5.06-3.67,5.06"/>
        <path class="cls-37" d="M83.47,133.57c-1.04,2.05-1.72,4.31-1.95,6.71.43.21.88.4,1.35.6.48-3.38,1.45-5.57,2.11-6.73-.53-.18-1.03-.37-1.51-.58"/>
        <path class="cls-23" d="M117.35,133.57c-.35.14-.71.28-1.08.42,1.18,3.07,1.29,5.59,1.2,7.06.64-.25,1.24-.51,1.82-.78-.23-2.39-.91-4.65-1.95-6.7"/>
        <path class="cls-24" d="M89.36,136.88c0,2.79,1.65,5.06,3.67,5.06,1.5,0,2.78-1.23,3.36-3-2.76-.72-5.4-1.85-7.01-2.61-.01.18-.02.37-.02.55"/>
        <path class="cls-24" d="M111.43,136.33c-1.6.76-4.25,1.89-7.01,2.61.57,1.77,1.86,3,3.35,3,2.03,0,3.67-2.26,3.67-5.06,0-.19,0-.37-.02-.55"/>
        <path class="cls-22" d="M337.5,132.03c.22.3.44.62.65.93l3.2-2.27-.02-1.14,1.19,1.47-4.06,2.41c.04.07.09.14.14.22l4.47-2.55-1.87-2.53-3.69,3.46Z"/>
        <path class="cls-22" d="M344.85,135.19l-4.73,1.57c.14.36.28.72.4,1.09l3.71-.66.49-1.06.03.16.34,1.62-4.38.51c.03.09.05.17.07.26l4.7-.4-.63-3.08Z"/>
        <path class="cls-25" d="M341.32,129.56l.02,1.14-3.2,2.27c.1.16.2.31.3.47l4.06-2.41-1.19-1.47Z"/>
        <path class="cls-25" d="M344.75,136.29l-.03-.16-.49,1.06-3.71.66c.06.19.13.38.19.57l4.38-.51-.34-1.61Z"/>
        <path class="cls-24" d="M347.67,139.91l-1.45-7.08-6.06,2.01,5.57-3.18-4.29-5.81-5.07,4.76c-3.98-4.58-9.83-7.48-16.36-7.48-11.95,0-21.67,9.72-21.67,21.66,0,10.86,8.1,17.34,21.67,17.34s21.67-6.48,21.67-17.34c0-1.48-.15-2.94-.44-4.34l6.43-.54ZM336.64,143.77c-4.52,1.75-10.46,2.76-16.64,2.76s-12.51-1.06-17.09-2.94c-.45-.19-.89-.38-1.32-.58.22-2.33.89-4.53,1.9-6.53.47.2.96.38,1.47.56,4.15,1.43,9.45,2.23,15.04,2.23s11.26-.86,15.46-2.38c.36-.13.71-.27,1.05-.41,1.01,2,1.67,4.2,1.9,6.53-.56.27-1.15.52-1.77.76M340.71,138.41c-.06-.19-.12-.38-.19-.57-.12-.37-.26-.73-.4-1.09l4.73-1.57.63,3.08-4.7.4c-.03-.09-.05-.17-.07-.26M338.58,133.65c-.04-.07-.09-.15-.13-.22-.1-.16-.2-.31-.3-.47-.21-.32-.42-.63-.64-.93l3.69-3.46,1.87,2.53-4.47,2.55ZM335.36,134.5c-4.02,1.6-9.5,2.5-15.36,2.5-5.18,0-10.08-.71-13.92-1.98-.5-.16-.98-.34-1.44-.52,3.33-4.94,8.97-8.2,15.36-8.2.53,0,1.05.03,1.57.07,5.74.49,10.74,3.6,13.79,8.13M305.3,154.37c-2.13-2-3.62-4.85-3.78-8.91.39.17.79.33,1.2.49,4.77,1.82,10.87,2.84,17.28,2.84,6,0,11.66-.88,16.25-2.47.77-.27,1.52-.56,2.23-.86-.15,3.98-1.59,6.81-3.67,8.8-4.26,4.09-11.14,4.69-14.81,4.69s-10.44-.59-14.7-4.58"/>
        <path class="cls-1" d="M334.81,154.26c-3.15,2.36-7.6,3.44-12.54,3.44-.78,0-1.54-.03-2.29-.08,8.15-.56,14.69-4.03,16.28-11.29-4.59,1.59-10.25,2.47-16.25,2.47-6.41,0-12.51-1.02-17.27-2.84.05,3.29.98,6.1,2.57,8.42,4.26,3.99,11.06,4.59,14.7,4.59s10.56-.61,14.81-4.69"/>
        <path class="cls-1" d="M321.57,126.37c-6.48.47-12.11,3.79-15.49,8.65,3.85,1.27,8.74,1.98,13.92,1.98,5.86,0,11.34-.9,15.36-2.5-3.05-4.53-8.05-7.65-13.79-8.13"/>
        <path class="cls-27" d="M321.57,126.37c-.52-.04-1.04-.07-1.57-.07-6.39,0-12.04,3.26-15.36,8.2.46.18.94.36,1.44.52,3.38-4.86,9.01-8.18,15.49-8.65"/>
        <path class="cls-27" d="M301.53,145.46c.15,4.05,1.64,6.91,3.78,8.91-1.59-2.32-2.52-5.13-2.57-8.42-.41-.16-.81-.32-1.2-.49"/>
        <path class="cls-25" d="M319.98,157.62c.75.05,1.52.08,2.29.08,4.94,0,9.39-1.08,12.54-3.44,2.07-1.99,3.52-4.82,3.67-8.8-.71.31-1.45.6-2.23.86-1.58,7.26-8.13,10.73-16.28,11.29"/>
        <path class="cls-17" d="M335.47,136.88c-4.2,1.53-9.67,2.38-15.46,2.38s-10.89-.8-15.04-2.23c-.64,1.13-1.58,3.26-2.06,6.55,4.58,1.88,10.66,2.94,17.09,2.94s12.12-1.01,16.64-2.76c.09-1.44-.02-3.89-1.17-6.88M315.04,143.37l-.9.9-1.47-1.47-1.47,1.47-.9-.9,1.47-1.47-1.47-1.47.9-.9,1.47,1.47,1.47-1.47.9.9-1.47,1.47,1.47,1.47ZM328.82,144.26l-1.47-1.47-1.47,1.47-.9-.9,1.47-1.47-1.47-1.47.9-.9,1.47,1.47,1.47-1.47.9.9-1.47,1.47,1.47,1.47-.9.9Z"/>
        <path class="cls-37" d="M303.49,136.47c-1.01,2-1.67,4.2-1.9,6.53.42.2.86.4,1.32.58.47-3.29,1.42-5.43,2.06-6.55-.51-.18-1-.36-1.47-.56"/>
        <path class="cls-23" d="M336.52,136.47c-.34.14-.69.28-1.05.41,1.15,2.99,1.26,5.44,1.17,6.89.62-.24,1.21-.49,1.77-.76-.22-2.33-.89-4.53-1.9-6.53"/>
        <polygon class="cls-24" points="314.14 139.52 312.66 140.99 311.19 139.52 310.29 140.42 311.76 141.89 310.29 143.36 311.19 144.26 312.66 142.79 314.14 144.26 315.03 143.36 313.56 141.89 315.03 140.42 314.14 139.52"/>
        <polygon class="cls-24" points="329.72 140.42 328.82 139.52 327.34 140.99 325.87 139.52 324.97 140.42 326.45 141.89 324.97 143.37 325.87 144.26 327.34 142.79 328.82 144.26 329.72 143.37 328.24 141.89 329.72 140.42"/>
        <polygon class="cls-35" points="361.43 187.59 308.76 234.79 308.76 215.14 45.38 215.14 45.38 310.62 308.76 310.62 308.76 260.79 361.43 187.59"/>
        <polygon class="cls-30" points="361.43 187.59 308.76 234.79 308.76 215.14 45.38 215.14 45.38 310.62 308.76 310.62 308.76 260.79 361.43 187.59"/>
      </g>
      <text class="cls-7" transform="translate(60.17 263)"><tspan x="0" y="0">ペナルティーエリアの中は</tspan><tspan class="cls-29" x="144" y="0">、</tspan><tspan x="151.37" y="0">ゴールキーパー</tspan></text>
      <text class="cls-7" transform="translate(60.17 278.99)"><tspan x="0" y="0">を含む２人で守ることができるでござる！</tspan></text>
      <text class="cls-7" transform="translate(60.17 294.99)"><tspan x="0" y="0">２on１は適用されないのでござる！</tspan></text>
      <text class="cls-9" transform="translate(88 240.18)"><tspan x="0" y="0">ゴールキーパーは特別な人！</tspan></text>
      <g>
        <path class="cls-15" d="M71.89,244.38h-3.88c-3.97,0-7.22-3.25-7.22-7.22v-3.88c0-3.97,3.25-7.22,7.22-7.22h3.88c3.97,0,7.22,3.25,7.22,7.22v3.88c0,3.97-3.25,7.22-7.22,7.22"/>
        <polygon class="cls-28" points="68.4 239.89 63.93 235.13 65.99 232.85 68.5 236.91 73.38 229.5 75.88 231.33 68.4 239.89"/>
        <path class="cls-24" d="M173.3,189.79c-7.77-3.74-11.03-13.06-7.29-20.83,3.74-7.77,13.06-11.03,20.83-7.3,7.77,3.74,11.03,13.06,7.29,20.83-3.74,7.77-13.06,11.03-20.83,7.29"/>
        <polygon class="cls-24" points="179.49 161.56 174.16 156.65 172.97 163.58 179.49 161.56"/>
        <path class="cls-28" d="M188.19,176.95c-.38,4.36-4.24,7.6-8.6,7.23-4.36-.38-7.6-4.24-7.23-8.59.38-4.36,4.24-7.6,8.59-7.23,4.36.38,7.6,4.24,7.23,8.6M185.63,176.73c.26-2.94-1.94-5.55-4.88-5.81s-5.55,1.94-5.81,4.88c-.26,2.94,1.94,5.55,4.88,5.81,2.94.25,5.55-1.94,5.81-4.88"/>
      </g>
      <text class="cls-8" transform="translate(393.67 289.39)"><tspan x="0" y="0">味方が３人以上</tspan></text>
      <text class="cls-8" transform="translate(393.67 308.4)"><tspan x="0" y="0">入っちゃダメ！</tspan></text>
      <polygon class="cls-24" points="413.54 144.01 396.88 102.14 395.22 102.74 409.16 145.61 404.59 147.29 414.94 154.58 418.12 142.33 413.54 144.01"/>
    </g>
  </g>
</svg>